<svg xmlns="http://www.w3.org/2000/svg" viewBox="0 0 77 63">
  <path d="M29 0l1 1h2v1h2v2h1v2h3v2h12l1 1v1h3l1-1h2l3 1 1 1h2l1 1h2v-1h1v2l-1 1-1 1v2l-1 1 1 1h2l2 1 2 1h5l1 2-3 2h-3l-1 1-2 1-1 2-1 1v5l-1 2v1h-1v1h1v3l-1 1-4 3h-1l-1-1h-6v2l-1 2v3h-1l-1 1v-1h-1l-1 1v-1h-1v1h-6l-1-1-1 1h-1l-1 1-1 2-1 1-1-1-1-1h-1v4h-2v3h-5l-1 1h-3l-2-1h-3l-2-1-3-1H8l-1-2 1 1-1-1v-3l1-1H7v-1l-1-1v-1l1-1-1-1-2-1H2l-1-1v1H0v-1l1-1 1-1h5l2-1v-1l1-1 1-1 1-1-2-4H9v-3l-3-1H5l-2 1H2l-1 1v-1l1-3 1-2 1-1 2-1 1-1v-1l-1-1H5l-1-2v-2h1l1-1 1-1v-2h3l2-1h1v-1l1-1v-1l-1-1V8l-1-1V6l1-1 1-1V2l1-1h2l1 1 1 1h4V2h3V1l2-1z"/>
</svg>
