<svg xmlns="http://www.w3.org/2000/svg" viewBox="0 0 77 59">
  <path d="M73 0l1 1v1l-1 4v2h1l1-1 1 1h1v2h-1l1 1-1 1v5l-1 1h1v1h-1v1l-1 1v1h-1v1h-1v1h-1v-1 1h-1l-1-1 1-1-1-2h1l-1-2-1 1h-2v2l1 2-1 1v5l-1 1v1l1 1h2v1l1 1h-1v1h-3l-1-1-2 1-2 1v1h1v3l-1 1v1l-1 1-1 2-2 3-1 1v2l-1 2v3l-2 2-2 1-19-4-18-5-6-12-7-11v-1l1-1v-2h1v2h1v1-2l1 1v4h1l1 1h1l1 1h3l1-1h1l1-1 1-1h1v-1h1l1 1h3v1h5l1 1h4v1l1-1h2v1h3l1-1h2v-1h1l-1-1h1l1 1h3v-1h1v-1h-1l-1-1h-1l1-1 1-1v2h2v-1l1-1v-1h1v-2l1-1 1 1v-1h1v-1l1-1 2-1 3-3 1-1h1l1-2v1l1-1v-1 1l1-1V9l1-1v1l1-1h1V7l1-1 2-1 1-1 1-1v1h-1 1l2-4zM17 25h1v1h-1v-1zm18 3h1l1 1v1h-1v-1h-1l-1 1v-1h-2l1-1h2z"/>
</svg>
