<svg xmlns="http://www.w3.org/2000/svg" viewBox="0 0 77 58">
  <path d="M56 0l1 1h1v3h1v5l1 2v1h1l2-1 1-2h2V8l1-1h2l1-1 1 1h2l1-1h1l1 1h1-2v2l-1 1h-9l-1 1-1 1h-1v1h-2l-1 1-1 2 1 1h1v5l-1 1h-1v1l-1 1v1l1 1-1 1v1h-4l-2-1v2l1 1 1 1v1l-1 1h-1l-1 1h-2 1v1l-1 1h1l-1 1h-1v5l-1 1h-1l-1-1h-1v1-1h-2l-1 1-2 1h1v1l-2 1h-1l-1-1-2 1v1h-2v5l-1 1h1v1l-7 2h-1l-2-1-2 1v1h-1l-2-1H9l-8-3h1v-2h1l1-2 2-2v-3l-3-1-2-1v-7l-1-3v-1h1v-1h1l-1-1H0v-4h2v-1l-1-1h1l1-1v-4l1-1 1-1v1l1 1h2l1-1v1l1 1v1-1h2l2-1v-1l1-1h-1v-1h3l1-1h1v1l1-1 1-1 1-1v-1l1-1V9l2-1h2l1-1V6h1l1 1h6v1h3l1 1v1h2l1-1 1-1h3v1l1-1V7l1-1h2l1 1V5l1-1V3l1-1V1h1V0z"/>
</svg>
