<svg xmlns="http://www.w3.org/2000/svg" viewBox="0 0 77 61">
  <path d="M57 0l1 1 1 1 1 1v1l1 1-1 1h-1V5h1l-1-1V3l-1 2h-1l1 1v1l1 1h2l1-1v1-1h1l1-1h-1l-1 1h-1 1V5h-1 2l1 1 1-1 1 1h1v1l1 1 1 2h1l1 1 1 1v1h1l1 1v1h1v2h1v4l1 1v3l-1 1v7l1 1h-1l-1-1-2-1h-1l-1 1-1 1h1l-1-2-1-2-1-1h-3v-1l-3-2h-1v-1h-2l-2 1-2 1v1h-1v-3l1-1v-2l1-3v-2l-1-1v-1l-1-3-1-1-1-2-2-2-1-1h1V5h1V4l1-1 1-1v2l1 1v1h-1v2h1v1l-1-1V7l-1-1h1l-1-1h1l-1-1v1h-1v1l1 1 1 1v1h1v2l1 1 1 1v9h3v-6h1v-1l-1-1v-1l-1-2v1h1v-2h1l-1-1V8l-1-1-1-1v2h-1V7h-1l-1-1V2h3V0l-1 1v1-1l-1 1V1l1-1zM13 30h6v2h2l-1 1h1v1h1v1h1v1h-1v1l-1 1v1l2-1v3-1h1v1h1v-1h1v-1h-1l2-2v-1h1v1l-1 1v2h1l1 1h2l1 1h-1v2h-1v1h1v-1l1-1h2-1v1h1v-1 1l1-1v1-1h1-1l1-1 1 1h1l1-1v1h1v-1 1l-1 1h1l-1 1v1h-1v-1h-1v1h-1l-1 1v1h-1 2v-1 1h1-1 1v1-1h1v1h-1 2v-1h1v3h1l-1 1h1v1h-2v1h-1v1h1-6l-1-1h-1v-1h-2l-1 1h1v2h1v1h1v1l-1 1v-1h-1l1 1v2-1h-1v1h-4 1v-1h-1v-1 1h-1v1l-1-1v-1h1v-2h-2v1h-1v2l-1-1h-1l-1-1v1l-1-1v1h-1v1h-3v-2l-1 1h-1v-1H9l-1-1H4l-1-1-1-1v-4h1v-2l-1-1 1-1H2v-1H0v1-1l1-1h4v-1l1-1v-1H2l-1 1H0v-1h1v-1l1-1v-1h1-1l1-1h1-1l1-1 1 1h1l1 1h2l1 1h1v-1l-1-1H9h1v-1H7h1v-1 1-1l1-1v-2h1v1H9v1H8h2v-2l1-1v-2h2zm11 29zm2-28v1h2v1h-1v1l-1-1v1l-1-1h1v-1zm-1 3h1l-1 1v-1zm7 3h1v1h-1v1h-2l-1 1h-1v-1h2v-1h1l1-1z"/>
</svg>
