<svg xmlns="http://www.w3.org/2000/svg" viewBox="0 0 77 45">
  <path d="M76 0h1l-1 1v3h-1l-1 1v1l-1 1h-1v1h-1l-1 1v1h-1v2h2v2h-1v1h-1v3h-1v1h-1 1v1h-3v1h-3l-1-1v2h-1l-1 1v2h-1v1h-2l-1 1h-1l-1 1h-2v1l-1 1h-3l-1 1-1 1v1h-3v1h-2l-1 1v-1h-1v1l-1 1-1 1-1 2h-1l-1 1h-1l-1 1h-3l-2 1h-1v-3h-5v1l-2 1h-1v1h-1v-1h-2l-1 1-1 2-1 1v-2l-2 1v1H8l-1-1H4l-1 1H0l1-1h1v-1h1l1-1v-1h2l2-1 1-1v-1h2l1-1 2-2v-1l1-1h3v-1l2 1 3-1h2l2-1h3v-3h-2l1-1 3-1h1l1-1h2l1-1 1-1 1-1v-1l-1-1v-2l-1-1v-1h1l1-1v-1h2v-1h2v-1l2-1 1-1h2l1-1h2l2-2h1l1 1h2l1-1h1l1-1h2l1 1h1l1-1h2l1-1h3l1-1 1-1 1-1 1-1V0z"/>
</svg>
