<svg xmlns="http://www.w3.org/2000/svg" viewBox="0 0 34 77">
  <path d="M8 0h1v4h1v1h1l1-1h2V3h2v1l1 1 1 1v2h1l1 1V8v1l2 1 1 1 1 1v2l1 1 1 3h-1v2l-1 1v7l-1 1h-1 1v1l1 1v2h-1v1l1 3 1 2v1h2v2l1 2 1 1 1-1h2v1h1v4l1 1v3l-2 2v1h-2v1h-1v2l-1 1v2l-1 1v2l-1 1h-4v1l-1 1h-1v2h1v1l1 1-1 1h-1v2l-1 1h-1v1l-2-1h-3l1-2h-1 1v-3h-1l-1-1v-2l-1-1-1-1H9l-1-1-3-2-2-1-1-2-2-2v-1h1l1 2h2v-3H3l-1-2v1h1v-2H1l-1-2 1-1v-1l1-2v-3h1v1h2l-1-2v1H3v-5l1-1v-3H3v-1l-1-1v-1h1v-1l1-1v-2H3h2l1-1v-1l-1-1h1v-3l-1-1H2v-1l-1-1 1-1H1h1v-4l-2-2 1-1 1-1 1-1V7l1-1 1-1 1-2 1-1 1-2z"/>
</svg>
