<svg xmlns="http://www.w3.org/2000/svg" viewBox="0 0 76 77">
  <path d="M33 0l1 1h2l1-1h1v3h2l1 1h1v2h-2l-1 1v1l1-1 1-1v2h1v1h2V8l1 1h3l-1 1h1l1 1v1h2v1h1l-1 2-2 1-2 1v1l-1 1v2l1 1h1v3h1l1 1 1 1 1 1 1 1 2 1 3 1h2v2l1 2v1h-1l1 1h-2v3h-1l-1 1v-1h-5v1l2 1h2l1 1v2l1 1 2 1h1v1l2 1v2h2l1 2h2l2-1h1l1 1v1l1-1 1 1h1v1h-1l-1 1 1 1h-1l-1 1v-1h-1v3l1 1h1l1 1v1l1 1 1 1-1 1-1 1v-2l-1 1h-1v1h1v1l1 1v7-1l-1 1-1-1h-3l-1 1h-2l-1 1v-2l-1-1v-2l-1-1v-2h-1v-2h-1l1-1h-1v-3l-1-1-2-1-1-1h-1v-1l1-1v-4h-1l-1-1h-1l-1 1h-2l-1 1-1 1h-1l-1-1-2-1v-1h-2v1l-1-1v-3l-1-1-1-1-1-1-1 1-1 1h-6v-1h-1v-1l-2-1h-1v-2l-1-1-1-1-1-1h-2v-1h-1l-1-1h-2v1h-1l-2-1h-1l-1 1h-3l-1-1-1-1H6l-1-1 1-1v-2H5h1v-1l-1-1H4v-5l-1-1H2h1v-1l1-1h1v-1l1-2 1-1v-4l-1-1-1-1v-1h1v-1H5l1-1-2-1H3L2 9H1L0 8l1-1H0V6l1-1h3v1l1-1 2 1 2-1 1-1h3l3-1h1l1-1h1v1h2l1-1v1h2l1 1 1-2v1h2V2h1l1 1h4V2h-1l-1-1h1V0zm16 20h1v2h-1v-2z"/>
</svg>
