<svg xmlns="http://www.w3.org/2000/svg" viewBox="0 0 67 77">
  <path d="M4 0l1 1 1 1-2 1-1 1v4H1V5L0 4l1-1V2h1l1-1h1zm17 8l4 1h1v1h1l-1 1 2 3v2l3 4v1h4l1-1h6v-2l1-1-1-1 1-1h4v-1h1v3h8v1l-1 1v2l1 1v3l-1 2v2l1 1v1h1l1 2v3l-1 1v1l1 1 1-1h5v-1l1 1h2v-1 9l-1 1v1l1 1H56v19l3 3 2 2 1 1 1 1-11 2-1-1-1 1h-1l-1-1h-6l-1-1-1 1h-2v-1l-2-2H15l-1 1h-2l-1-1-1-1-1-1H8l-1 1-2 1H3l-1-1v1H1v-5l-1-3h1l1-2 1-3v-5l1-1v-3h1l1-1v-2l1-1h1v-1h1l1-2 1-1v-6h-1l1-1-1-1-2-3-1-1v-2l-1-1v-2h1l1-2v-1l-1-3-2-4v-1l-1-1-2-2v-2l3-1h16z"/>
</svg>
