<svg xmlns="http://www.w3.org/2000/svg" viewBox="0 0 77 68">
  <path d="M36 0h1v1h1l1 1 1 1-1 1v1l1-1V2l1-1 1 1 1 1 1 1V3h1l1 1v5h2v1l1-1V8l1 1v1l1 2h3v3h2v-1l1 1 1 1h1v2h1l1 1h1v3h1l1 1h2v1h2v1l1 1v2h1l1 1v2h1v1h1v1h-1v1h1v3h1v1h1v2l1-1v2h1v2h-1 1v2l-1 1v1h-1v2l-1 1v2h-2v1l-1 1h-1v2h-1v3h-2l-1 1h-3l-1 1-1 1h-1v1l-1 1h-2l-1 1h-1v-1l-1 1h-4v1h-5l-1 1h-1v1h-1l-1-1h-1l-1-1-1-1h-1l-2-1v-1h-2l1-1h1-2v-3h-3v-2h1v-2h1v-1h-1v-2h-1v-1h-1v-1h1v-2h2-2v1l-2 1v1h-3v-1l-1-2v6h-1v1h-1l-1-1v1h1v2l-1 1v1h-3 1l1 1-1 1v1l-5-1h-1v-2l-1-1v-1 3h1l-1 1h-1l-1 1v1l-1-1H7l-1-1-1-1h1-1l-1-1H3v-1h1v-1l-1 1-1-1H1v-6h1v-1H0v-5h1l1 1v-1H0v-2l1-1H0v-1l1-1 1 1h1l1 1-1-1-1-1h1l1-1v-1h1v-1l1-1 1 1v-1l1-1h1v-1h1v-1h1v-1h1l1-1v-1h1l1 1 1 3v1h1v2l1 1 2 1h1-1v-2l-1-1v-1l-1-1v-3h-2l-1-1v-5h2-1v-2h2v-1l-1-1h1v-1h-1v-2h-1v-1l1-1v-3l1-1h-1 2l1 1v1l1-1 1-2h-2v-1h-1V9h1l1-1h2l1-1v1l1-1V6v1h2v1h1l1-1h2V6h1-1V5h1l1 1-1-1V4h1-1V3l1-1h1V1h1V0h1z"/>
</svg>
