<svg xmlns="http://www.w3.org/2000/svg" viewBox="0 0 77 38">
  <path d="M47 0v2l-1 1h1v1-1h1V2h2v2h1V3h1v2h2V3h1v1-1l1-1v1h1V2l1 1v1-1h1v1l-1 1h3l1-1h1v1h1l1 1V4l1 1h2l1 1 1 1V4l1-1v1-1h1V2h1l2 1V2h2-1v3l1 1h-1v3h-3v1h-3v1h-1l-1 1h-1l-1 1h-1v-1h-1l1-1v-1l-1-1h-1V8l-1 1h-2v1h-1v1l-1 1h-2v1l-1 1h-5l-1 1V9h-3l-1-1h-1l-1 1h-4l1 1h1l1 1h3-1v1l1 1h1l-1 1h-1v1h1v1h1v1h-2v1h-2v1h-1v1l-1 1v1l-1 1-1 1v-1h1v-2h-2v1h-1v-1 1h-1l1 1v1l2 1 1-1v1l-1 1h-1 1l-1 1h-1v1h-2v2h-1v1h-1l-1 1v1l-1 1-1 1-1 1-1-1-1-1h-1v3h-1v1l-1-1v-2h-1l-1 1-1-1h-1l-1-1-2-1 1-1-1-1v-3h-1v-1h-1v-1h-1v1l-1-1h-1v-1H9l-1 1H5v-1H4v-1H0l1-1h2v-1l1-1v-1h1l1-2h1v-1l1 1 1-1h1v-1l1-1h5v-1h1l1 1v1l1-1h2l1-1h1v1h2v1l1-1h3v-1l1-1h1v-1l1 1h1v1l1-1-1-1v-1l1-2 1-1h1V7l1-1h1v1l1-1V5l1-1h3l-1-1V2h2V1v1l2-1 1-1z"/>
</svg>
