<svg xmlns="http://www.w3.org/2000/svg" viewBox="0 0 148 76">
  <path d="M65 30v-1l-1-2v-1l1-1 1-1h1v-1l1-1h3v-1h2l2-1 1-1 1-2v-3l1-1h2v1h1l1 1v-1l1-1v-1h1V9h-1l1-1h1l1 1h1v1h1l-1 1 2 1h3l2 1h1l1-2h1l1 1 1-1v1h1v1l1-1V9l1-1 1-1h2V5l1-2V0h3v2h2l1-2v1h1l1 1 1-1 1 1 1 1h1l1 1h2V3l1 1 5 3h6l1-2h1l2 1h1v1h4l1 1v2l1 2-1 1-1 2v2l1 1v1l1 1v2l1 1 1 1 1 1v2h1v2l-1 1v1l-1 1h1v4l-2 1h-4v-1h-2v-1h-1l-1 1h-1v1h-1v1l1 1 1-1 1 1h1v2h1v1l-1 1h1l-2 2h-1l-1 1v-1 1l-1 1h1v4h-1v1h1v1h1v1h-1v1h1v1h-1v1h1-4l-1 1-1 2-1 1-1 1h-2v3l1 1v1h-1v-1h-4l-1 1h-1v-1l-1 1h-1l-1 1-1 1-1-1h-8v1h-2l-1 1-1 1v1l-2 1v1h-1l-1 1-1 1-1-1h-1l-1-1-2 1h-3l-1-2h-2l-2-1-1 1h-1l-1-1h-4v-1h-8l-1-1h-5l-1-1h-1l-1-1h-5l-1-1v-2h-2v-2l-1-1-1-1h-1l1-1h-1v-2h1l1-2h-2l-2 1h-2l-1 1h-1l-1 1h-2l-1-1h-1l-1 1-1-1-1 1-2-1-3 1-1 1-1 1v2l-1 2-1-1h-5l1-2-1 1-1-1h-4v-1l1-1-1-1-1-1h-1l-1 1-1 1h-1v1l-2 1-1-1-1-1H8l-1-1v-2H6l-1-1H4l-1-1H1l1-2-1-1v-1l-1-1h1l-1-1 1-1 1-2h1v-2l-2-1 1-1 1 1 1-1v-1l1-1h1v1l1 1h2v1h1l1 1v3h1l2-1v1l-1 1v2h1l3-3 1-1 1-1v-1l-1-1v-2h1v1h2l1-1v1h2v1h1l2-1v1l-1 1h2l1 1-1 2h3l2-1h1l-1 1h2l1-2h1v-1l1-1h2v-1l2-1h2l1 1 1-1h6v-3l2-1-1 2 2-1 1 1 1-1v1l1 1h2l1-1h2l1 1v3h1l2 2h1l1-1v-3l1-1v-1l-2-1h-2v-1l1-1 1-2v-1h-1v-2h-1z"/>
</svg>
