<svg xmlns="http://www.w3.org/2000/svg" viewBox="0 0 77 72">
  <path d="M55 0h1v1l1 1v3h1v2h2v1h1v4h1v2l1 1v1l1 1h1v1h2v1h1-1l1 1v1l1 1v1h2v1l1 2h1v1l1 1 1 1v1h1v4l1 2v1l-1 1v3l-1 2v1l-1 2-1 1-1 1v1l-1 1v1l-1 3v3h-4l-1 1-1 1-1 1h-1v-1h-1v-1 1h-1v-1h-1 1-1l-1 2h-1v-1h-2l-1-1-1 1-1-1-1-2-1-1v-2l-1-1h-2l1-1v-1l-1-1v1l-1 1h-1v-1h1v-2l1-1v-2l-1 1v1l-1 1-1 1h-1v1h-1v-2h-1v-1h-1v-2h-1v-1h-3l-1-1h-6l-2 1-1 1-1-1-1 1h-1l-2 1-1 1-1 1h-7v1h-1v1h-1l-1 1H7l-1-1H5l-1-1H3v-2h1v-1l1-1v-1l-1-2-1-2v-3l-1-1v-2l-1-1-1-1v-1h1v1-1l-1-1h1v1h1v1-2l-2-3 1-1v-3l1-1v1l1-1 2-2h2v-1l1 1 1-1h2l1-1h2l2-2 1-1v-3h1v-1l1 1 1 1v-2h1V9h1l1-1V7h1V6h1v1-1h2l1 1 1 1h-1v1l1-1h2V6l1-1V4h1V3h3l1-1h2l2 1h3V2v1h1l-1 1v1h-1v2l-1 1 1 1h1v1h1l2 1 1 1 1 1h1l2 1v-2h1v-2l1-1V2l1-1V0zm5 64l2 1h3l1-1v1h1v3h-1v3h-1v-1 1h-1 1-1v1h-2v-1l-1-2v-1 1-1l-1-1v-2z"/>
</svg>
