<svg xmlns="http://www.w3.org/2000/svg" viewBox="0 0 71 77">
  <path d="M4 0h1l1 1 1 1 1 1 2 2 1 1 1 1h2l1 1 1 1 2 5 2 2 2 1v1l1 1 1 1 2 1v1l1 1 1 1h1l1 1h1l1 1h1v1h2l1 1 1 1h1v2h3v-1h1v2h1l1 1v1h2v1h1l1 1v2h1v1l1 1 1 1 1 1v1l2 1h1l1 1 1 1v1h1v1l1 1v1h1l2 1h1v1l2 4v2l1 2 1 2 1 2v4l1 1v4h1l1 1v1h-1v1l-2 1h-3 1v-1h-1v1l-1-1v-1l-1-2h-4v-1h-1l-1-1-1-1h-3l-3-1-1-1h-1l-2-1h-2l-1-1h1l1 1h3l1 1 1-1h-2l-2-1h-2v-1h-1l-2-1-1-1h-1v-1h-1v-1h-1v-1l-1-1h-2v-1h-1v-1h-1l-1-1v-1h1v-3 1l-1 1v2-1l-1-1-2-1h-1l-1-1h-1l-1 1v-1h-1v-2h-2l-2-1v-2h-1v-1l-1-1h-2l-1-1-1-1h-1v-3h-1v-1h-1l-1-1H8v-1H7l-1-1H5v-2H4l-1-1-1-1-1-1-1-1 1-1 1-1 1-2v-3h1v-1l2-2 1-2v-4L4 6V4L2 2V1h1V0z"/>
</svg>
