<svg xmlns="http://www.w3.org/2000/svg" viewBox="0 0 77 53">
  <path d="M6 0l1 1 1 1v2H6v2H5v1L3 8 2 7V6H1V5L0 4V3h1l1-1 2-2h1zm11 7h7v2h-2v1h2l1-1v1l2 1 2-1h1l2 2 2 2v3h1v-1h4l1 1h3l3 2 2 1 1 1v1h1l1-1 2 2 3 2 1 1h2l2 2 2 1 1 1 3 2 1 1h-1 1v1l-1 1h-1v1l-1 1-1 1 1 1 1-1h1v1l1 1h-1l1 1 1 1 1-1v-1h1v-2l1-1h1l2 1v4h1l1 1v3l-1 1v1l-1 1-1-1h-3v1l1 1-1 1h-1l-1-1h-1v1h-3v-2l-1 1v1h-1l-1-1h-2l-1 3-1-1-2-2v-1l-1 1h-1l1 1-1 1-1-1v-1l-1-1-1-1h-4l-1 1-4-3-1-1v-1h-1v-4h-1v-2l1-1h-4v1l-1 1v1h-1v-1l-2-1-1 1-1 1v-3l-2-1v-1l-1-2v-3l-1 1v4l1 2 1 2v2h-1 1v1h-1v1l-1 1h-1v1l1 2v1h-1v1l-1-1h-1v-2h-3l-1-1-2-2v-1h1v-1h-3l-1-2v-1l1-3h1v-2l-1-1h-2v1h-1l-1 1-3-4H4v-1l1-1-1-2 1-1v-1l-1-1-1-1v-2l-1-1v-1H1v-4H0l1-2 1-2 2-1 2-1v1l1 1v1l1 2v1l1 1v1H8v2h3l1-1 5-3h1l1-1h-4l-1 1-2 1-1 1-1-2h2l-1-1-1-1H9l-1-1 1-1 1 1v-1h1l1 1h1l2-2h1-1V8l1-1h1z"/>
</svg>
