<svg xmlns="http://www.w3.org/2000/svg" viewBox="0 0 77 61">
  <path d="M50 0h1l1 1 1 3 5 5v2l1 1 1 2 1 1 2 2h1v2l1 1v1h6l1-1v1h1v1h2v1h1l-1-1h1v2l1 1v1h-1v-1h-6l-1 1h-1l-2 2-1 1-1 1v1l1 1-1 1v1h1l-1 1v2h1-1v1l-1 2v1l1 1 1 1v1h-1v-1 1h1-2v4l-1 1v-1h-2v-2l-1 1-1 1v2h1l-1 1-1 1v1l1 1v3l1 2v1h-1v1h-4v-1l-1-1-1-1h-2v-1l-2-1-2-2v-1h1v-1h2l1-1 1-1h-1l-1-1h-1v-1h-1v-1l1-1 1-1h1v-1l-3-3-2-2h-1l-1 1h-1l-1 1-1 1h-1l-1 1-1 1-1 1h-1v1h-1l-1 1v1l-2 2h-2l-1 1v1l-1 1-1 1-1 1v-5l-1-1h1l1 1v-1h1l-1-1h-1v-1h-1l-1-1v-1l1-1h1-1l1-1h-2v-1h-5v-1l-1-1v-1h-2l-1-1v-1h-2v-1h-1v-1h2l1 1h1v-1l1-1v-3h-1l-1-1h-2l-1-1-1-1-1-1v-1H8l-1-1 1-1 1-1 1-1v-1l-1-1H8v-1H5v1-2H3v-1h2l-1-1H3v-1H2v-1h1l1-2h1v-1h4l1 1h2v1h-1l1 1h1l1 1h3l2-1 1 1h1l1 1 1-1h1v-2l1-1h-1v-1h-1l-1-1h-1l-2-1V8l-1-1-1-1V4h2V3l1-1h2l1 1h2l1 1v1h2v1l1 1h1l1 2 1 1 1 1 1 1h6l1-1h-1l1-1V9h1V7h1l2-1 1-1h1V3l1-1 1-1 1-1zM4 40h1v2h1v1h1v1h2v1h1v-1h1l1-1h2l1 1v2l-1 1h1l1 1h2l-1 1v1l2 2v2l1 1h-4l-3-1h-3v-1l-1-1-1-1-2-1-1-1-1-1-1-1v-2H2v-2H0v-2h2l1-1z"/>
</svg>
