<svg xmlns="http://www.w3.org/2000/svg" viewBox="0 0 77 75">
  <path d="M24 0l1 1h1l2 1v1h4l1 1h6l1 1 1 1h2V5l1-1V3h2v2h2l1-1-1-1h2l1 1h1l1 1h4V4l1 1v2h2-1l1 1v2h1l1 1h1l1-1h1l1-1h4v1h1v3h-1v6h-1v1h-1v1l-1 1v4h1l3 1v1l1 2h2v1l1 1h2v1l-1 1h1v1h-2v2h-2l-2-1v1l1 2h1l1 2h1v6h-2v1h-1v-2 1h-2v2h-5v-1l-1 1h1l1 1v1l1 2v2l-1 1h-1l-1-1v-1h-2l-1 1-1 1v2h-1v5h-2v1l-1 1v2h-1l1 1 1 1v5l-1 1h-2l-1-1h-3l-2-2-1-2h-2l-1-2-1-1-1-1h-4l-1-1h2l1-1h-2l-1-1h2v-1l-2-1-1-2h-2v-2l-1-1-1 1v-2l-1-2v-3h-3l-4-4-1-2-2-1-1-1v-3h-1l-1-1h-1v-1l-1-1v-1h-2v-2h-1v1h-1l-2-4-1-1v-4l-1-1v-3l-1-1v-1l-2-2-1-1H2l-1-1-1-1 1-1-1-1v-1h1l-1-1 1-1 1-1V7H1V2l1-1V0h3l1 1 1 2v1l1 1 2 1v1h3V6l1-1 1-2 1-1 1-1h1l3 1h2V0z"/>
</svg>
