<svg xmlns="http://www.w3.org/2000/svg" viewBox="0 0 64 77">
  <path d="M9 0h1l4 3 1 1 1 1 1 1 1 1h2v2l2 5 1 1v2l1 2 2 2 1 1v2h1l2 3 1 2 2 1 1 1h1v1l2 1 3 1h1l1 1 1 1h1l1-1 1 1 1 1 1 1 2 1 1 1h1v-1h1l2 1 2 2 2 1 1 1h1v-1h1v2h1l1 1v4l-1 1v1h-1v4l-1 1-2 1v2h-1v1l-1 1v1h-1l-1 1-2 1-1 1-1 1-1 1h-1l-1 2h-3v1l-1 1-1 2v-1l-1 1-1 1h-1l-1 1v1h-2l-1-2-1-1-2-1-3-2-1-1-4 1h-1l-1-1-4-2-1 1h-2l-1-1h-1l-1-1v-3l-1-1H8v-2l1-1-1-3-1-1-1-1H5v-1l1-1-1-1v-8l-1-2 1-1v-2H4v-1l-1-1v-2l1-1-1-1v-1l-1-2v-8l1-1v-1l-1-1v-1l-2-3v-3h1l-1-2V9l1-1 1-3 1-2h2V2h1l1-1h1l1-1z"/>
</svg>
