<svg xmlns="http://www.w3.org/2000/svg" viewBox="0 0 55 77">
  <path d="M4 0h1v1h1l1 1 1 1v1h1-1v1h4V4h-1V3h1v1h1v2l1 1h1v1h2l1 1V8h1V7h-1 1l-1-1h2v2h1v1h1l-1 1v2l1 1v1l-1 1v3h3l3 1h13v1l2-1v1l1-1h5l1 1h2v1h1v2h-2v2l-1 1v1l-1 1-1 2h-1v2h-3v1h-4v2h-1v1l-1 2v1l1 2v1l1 1v3l1 1v-2h-1l1-1h1v3h1v1h1l1-1 1-1-1-1v-1l1-1 1-1v-4h1v1l1-1h1l1 1v-1 2h1v3h1v1l-1 1 1 1v3h1v3l1 1v7l1 2v8h-1v-1h-1l-1-1v-1l-1 1h-1v4l1 2v2l1 1h-1v-1l-1-2-1-1-1-1v-2l-1-1v-3l1-1h-1v-1 3h-1v-1l-1-1v-1h1v-3l-1-1v-3l-1-1v-1l-1-2-2-1v-1l-1-1h1v-1l-1 1v1h-1l-1 1v-1h-1v1h1v1h-2v-1h-1v1h-1v-1h-1v-1l-1-1v-2l-1-1v2-1h-1l-1 1h2v1h-1v1l-1 1 1 1v5h-1v1l-1 1v-1l-1 1v1l-1 2h-2v-1h-1l1-1 1-1v-1h1v-1l-1 1-1 1v1h-1v-2h1v-1l-1 1v2l-1-2v-2h-1 1v-1l1-1v-1 1h-1v1h-1v5h1v1h-1v1h-1l-1-1v2h-1l-1-1 1-1v-1h-1v1l-1 1h1l-1 1v-1l-1-1v-1 2l-1 1v1h1-2l1-1-1-1h-1v-1 2h1-1l-1-1v-1l1-1v-3l-1-1v-3l-1-1v-3h1l-1-1v-1l-1-1 1-1 1-1-1-1H8v-2l1-1H8l-1-1-1-1v-2l1-1h1v-5l-1-1v1l-1-1H5l-1-1-2-1H1v-1l-1-1v-2h1l1-1-1-1h2l1 1 1-2v-2h6v-2h-1l-1-1v-1H6v-1H5v-2l-2-1H1V8h1V6h2V4h2V2H4V1zm27 51l1 1v1h1v1l1 1-1 3v1l-1 1-1 1v-1h-1l1-1v-6h-1l-1-1 1-1zm10 2l1 2-1 1-1-1v-2zm-5 1l1 1v3l-1 1h-1 1v-5zm1 1zm-7 4v1l-1 1v-2h1zm-2 1v1l-1 1v1-3zm1 0l-1 2v-2z"/>
</svg>
