<svg xmlns="http://www.w3.org/2000/svg" viewBox="0 0 77 63">
  <path d="M44 0h1v2h-1v1h4l1-2V0l1 1v1h1-1v1l1 1v1l1 1h1v1h1v1h1V7h4l1 2h1v1h3v1h1v2l-1 1v1l-1 1v1h1l-1 1v1h-1l-1 1v1h1v1l1 1h-1l1 1 1-1h3l2 1h1l1 1v1l1 1h1l1 1-1 1-1 1h1l-1 1h3v1l1 1v3h1v1h-2l-1 1v1h-1v1h-1v3h-1v-1h-3l-1 1v1l-1 1v1l-1 1v1l-1 1v1l-1 1h1v3h1v1l1 1v1l1 1-1 2v1l-1 1v-1h-1v1h-1l-1-1-1 1v1-1h-1l-2 1v-3l-1-1h-2v-1l-1-1h-2v-1h-1v-1h-1l-1-1h-3v-4l-1-1v-2l1-1v-3h1-1l-1-1-1 1-1 1v1l-1 1v1l-2 1-1 1h-4l-1-1h-2v-1l-1-1h1l1-1v-1l-1-1h-1v-1l1-1v-1h1v-1l-1-1v1h-1v-1l-1-1v-1h-2l-1 1h-1v-1h-2v1h-1l-1-1v-4h-3v-1h-4l-1-1v-4l-1-2-1-1v-1h-2v1H7v2l-1-1H5l-1-1v-1H3v-1H1v-4l1-1H1v-1H0v-3h1l8-5 2-2h3l2-1v2h1v1l1 1h1V7l2-1h1l1 1h2v2h3l1-1h1l1-1 1-1 1-1 1-1h3V1h3l-1 1 1 1V2h2l1-1 1-1z"/>
</svg>
