<svg xmlns="http://www.w3.org/2000/svg" viewBox="0 0 77 55">
  <path d="M48 0h4l2 1 3 1h-1l1 1-1 1v2l1 1 1 1v2l1 1 1 2 1 1h2l1 1v1h1l2 1h-3v3h1l2 2 2 2h2l1-1h2l1 1v1l1 1h-2l1 3 2 2v1h-1l-2 2-1 2-1-1h-1l-1 1h-1v-1h-2l-1 1v1-1 1h-2l1 1h-1v1h-2v1h-4l-4-1-3-1h-1v1h-1l-1 1h-1v1l-1-1h-7l-1-1v1H26l-1 2v3l1 1v8h1l-1 1-2-2-1-1v-1h-1v-1l-1 1v-1h-4l-1 1-1-1v1h-2v1h-1l-1 1H9v-1h1-3v-1H5v-2l-1-1v-1H3l-1-1H1v-1l-1-1v-2l1-1v-2l1-2h1v-5l-1-1h1l1-1 2-1h3v-1h1v-1l1-1v-1l1-1-1-1v-1h2v-3l-1-1h1v-1h1l1-1 1-1 1 1h-1 2l1 1 2 1 1-1h1v-4h2v1-1l1 1 1-1v-3l1-1h1l1-1 1-1 2 1 1 1 1-1 1-1V5h2l1 1 1-2 2-1h2l2-2z"/>
</svg>
