<svg xmlns="http://www.w3.org/2000/svg" viewBox="0 0 77 51">
  <path d="M5 0h1l1 1 1 1h2v1H9L8 4 7 5v1h2l2 1h5l1 1 1-1 1 1 1 1 3 1h1l2-1 1-1 1 1h1l2 1h3l3 1h3l2-1 1-1h1V8l1-1 1-1h1V5h1l2-1v1l6-2h2l3 1 1 1h3l1 1h1l1 1 2 1v1h3l3 1 1 1v3l-1 1-1 1h-4l-1 1v1l-1 1h-3 3v1l-1 1v7h-3v1l-1 1h-1l-1 1h-1 1v1h3l1 1v1h1-1v1l1 1 1 1 1 2v1h-1v-1l-1 1h-2l-1 1-1-1-1-1-1-1h-3l-1 1-1 1-1-1h-1l-1 1-1-1-1 1v2h-1l-1 1v1h-1l-1-1h-1l-1 1 1 1v5h-8l-3 1h-1l-1-1v-1h-1l-1-1h-1l-1 1h-1l-1-1-1-1v-1h-1v1l-1-1h-4v1h-2v-1l-1 1h-4l-3 1-1-1v1l-1 1-1-1H6v-3l1-1v-1l1-1v-1H7l-1-1v-3l-4-2v-1l-1-1-1-1h1v-1l1-1v-1l-1-1v-2l1-2v-2h3v-1l1-1h1v-1h1v-2H7v-1l-1-1-1-1-1-1-1-1V9H2L1 8V6l1-2V3h1l1-1h1V0z"/>
</svg>
