<svg xmlns="http://www.w3.org/2000/svg" viewBox="0 0 31 77">
  <path d="M25 0l1 1h1v1h2l1 1h-1v1l1 1h-1v1l1 1v3h-1V9l-1-1-1-1h-1 1v2l-1-1V7h-1V6l-1 1h-2V5l-1-1 1-1h-1l-1-1V1l1 1h2l1-1h1V0h-1 1zm-4 7v1l1 2-1 1h2l1 1h-1 1l1 1-1 1-1-1v1l-1 1h-2l-1-1h-3v1h1-1v1l1 2 1 1 1 1 1 1v1h3l1 1v-1l-1-1h-1v-1l-1-2 2-2h1l1 1h-1v1h1v5l5-3v-1l1 1h-1v1h1-3v2h-2l-1 1h1v3h1l-1 1h1-2v-1l-1-2v-2 2l1 1v3-1h-1v5l1 1h-1v4h1l1 1h-1l-1 1h1v2l-1 1v4l-1 1v8l-1 2v3l-1 1v3l1 3-2 1-2 3-2 2v3l-1-2-1-2v-5l-1-1-1-3-2-3-1-2v2-1l-3-3v-1H5l-2-2-1-1v-1l-1-1v-3l1-1v-1l2-3H3v-1l1-1 1-1v-9l-1-1v-1l-1-1v-1l-1-1v-1l-1-1H0l1-1v-2l-1-2v-1h1v-4l-1-1v-1l1-1 1-1 1-1h4l1-1 2 1 1-1h1V7h1v1h1v1h3l1-1h1l1-1z"/>
</svg>
