<svg xmlns="http://www.w3.org/2000/svg" viewBox="0 0 65 77">
  <path d="M49 0h1l1 1V0l1 1v1l1 1 1 1-1 1v1l-1 2v1l-1 1-1 2v2h2v-1h2v1h-1l-1 1h-1v2l-1 1v2h-1l1 1 1 1 1 1h2v-1h1v-1l1 1 1 1h1v1l1 1v-1h1l3 1 1-1h1l-1 1v1l-1 1 1 1v2l1 1-1 2v1l-1 1h-2v-1 1l-1 1h-2v2h-1 1l1 1-2 2v1h-1l-1 1h-1l-1 1h-1l-1 1v2h-1v2l-1 1v3h-3v2l-1 1-1 1v1l-1 1v3h-1l-1 1v1l-1 1-1 1-2 3-1 1-1 1-1 1h-1v1h-2l-1 1h-1v-1l-1 1v1l-1 1h-1v1h-1l-1-1h-1v-1l-1-1h-1l-1-1v-2l-1-1v-3h-1v-1l-1-2h-1v-2l-1-1v-1l-1-1v-2l-1-1v-1h-1v-2l-1-1v-4l1-2v-8l-1-1h-1l-1 1H8l-1-2v-1h1v-5l1-1v-2l-1-1-1-1H6v-1l-1-1H4v-1H3v-2H2v-1H1l-1-2 1-1 1-2v-3l2-1v1h2l2 1h1l1-1v1h1v1l1 2v2l1 1v1-1h4l1 1 2-1h6v-1h4v-1h1l1-1V9l1-1V7l1-1V3l-1-1 1-1h1l2 1 1 1 1 1 1 1h1V4h1V3h1V2h1l2 1 2-1V1h1z"/>
</svg>
