<svg xmlns="http://www.w3.org/2000/svg" viewBox="0 0 77 44">
  <path d="M9 0l1 2v1H9l1 1h1l1 2v1h1l1-1V5h1v1l1 1h4V6l4-1v1l1 2h1l1 1 1-1 1 1v1h-1v1l1 2 1 1h1l1-1v3l-1 1 1 1 1 1h1l1 1h2l1-1h1l-1-1v-1l1-1 1-1 1-1h2v1l1 1h3l1-1h1v-2h1v-1l1-1v-1h1V9l-1-1V7l2-1h1v1l1 1h3V7h1v1l1 1v1h-1v1h-1l1 1 1 1 1-1 1-2h2v3h3v-2l-1-1-1-1V7l1-2V4h2v2h-2v3l1 1 1 1h1l1 1v4h2v-2h1l1-1h1v-1h1v4h1v1l-1 1v1h-1v2l2 4-1 1h-1l-1-1-1-1v-1h-1l-1 1h-1l-1 1-1 1v1h-1l-1 1h-1l-3 1-1 1v6h1l-1 1v1h-1l-1 1h-1l-1-1-1-1v-2h-2l-1-1-2-1h-1l-1 1-1 2v3h-1l-1-1v2l-1 1v1h-1v-2h-1l-1-2v-1h-1v-1l-1 1h-1l-1 1v3h-1v1l-1 1v1h-1l-1-1h-1v-1l-1-1v-2h-1l-1-1-1-2h-1l-1-2-1-1-1-1v-2h-3v-1l-2-3v-1l1-1 1 1 1 1v1h1v-2h-1l-1-2h-1v-1l-1-1h1v-2l-2-1h-1v-2h-5v-1l-2-1v-1h-1v-2H7V8L6 7H4V6h3l1-1 1-1V3L8 2H6V1h1l1-1h1zM2 6l1 1-1 1-1-1V6zM0 7h1-1z"/>
</svg>
