<svg xmlns="http://www.w3.org/2000/svg" viewBox="0 0 77 55">
  <path d="M68 0l2 2 1 1 1 1h-6l-1 1h-1v1h-1l1 1h-2l-1 1h-1l-2 1h-1v1h-1v1h-1 1v1h-1v1l1 1h1v2h1v1h-1l1 1h1l1 1h2v1h1v1h1v-1h2l2-1h1l-1 1-1 1h-2v1l-1 1h-1v-1 1l-3 1-1 1-1 1h-1l-1 2h-1l-1 1-1 1-1 1h-1l-1 1h-1l-1 1v1h-2v1l-1 1h-1v1h-1l-1 1h-1v1l-1 1-1 1-1 1-1 2-1 1h-1l-1 1-2 1h-1l-1 1h-1l-4 2-1 1-1 1v1h-2v1h-1l-2 1h-1v-1 1h-3l-1-1h-1v1H9l-4-2-2-2-1-3v-1l-1-1v-1l-1-2v-1l1-1h1-1v1h1v1h1v-6l-1-1-1-1v-1h3l1-1-1-1h2v2h2v2h1v1H7v1l-1 1-1 2v1h1v1H4v1h1l1 1h6l1 1-1 1-2-1H7l1 3v2h1v-1l1 1-1 1h6l1-1v-1h2v-3h1l1-1h1l2-1h1l1-1 1-1h2v-1h1v-1h1v-1h3l1-1 1-1h1v-1h-2l-1 1h-4l-1-1h-2v-2l-1-1h2-3v1l-1-1v-1l-1-1h1v-1h4l1 1h5l1-1h4l1-1 3-1 1-1h1l1-1 1-1h6l1 1h1v-2h1l1-1 2-1h1v-2h-2v-3h-3v1h-4v1l-1 1v2l-1 1-1 1h-1l1-2v-1h-1l1-1v-1l1-1v-1l1-1h1l2-1v-1l1-2h1v-2l1-1 1-1V8h1l1-1 1-1 1-1h1l1-1 1-1 1-1 2-1V0h1zm4 4v1h1v1h-1l-1-1zm-3 1v1l-1-1zm1 1h1l2 1v1l-2-1h-2V6zm5 1h1v1h1v1h-1v1l-1 1h-2v1l1 1v2h1v1h-1v-1l-1 1v-1h-1l-1-2-1-1h-1l-1-1h-2v4h-1l-1-1v-1l1-2-1-1h-2l-2 2h-2v-2l1-1h1l1-1h4l-1-1h2l1 1V7h2v1h2v1h2V8h1-1 1V7zM16 25v1l-2 2-1 1v2h-2v-1l1-2 1-1h1v-1l1-1h1zm-6 6h1v2H9v1-1l1-2zm13 8v1h-3v-1h2zm-5 0l1 1h-1v-1h-1 1zm6 0l1 1h-1 1v1h-2v-1h1v-1zm-4 1v1l-1-1h1zm7 0l1 1-1 1-1-1v-1h1zm-7 1l1-1v1h1-2zm-4 3h1v1l-1-1z"/>
</svg>
