<svg xmlns="http://www.w3.org/2000/svg" viewBox="0 0 77 62">
  <path d="M58 0h1v1h3-2v1h3v1h-5v2h-1l-1 1v1l-1 1h-1l-1 2h-2v1h2l1-1 2-2v1l-1 1h-1v3l-1 1h-4l-2 1h-1v1l-1 2h-2l-1 1v2l1 1v3l1 3v7l1 2h3v2l-1 4-2 2-1 2h1l1-1v2l-1 1-1 2-1 1v1h1l-1 1-1 1v1l-1 1-2 1-1 2-1 1h-1l-4 1v-1l1-1h-1l-3-2-1-1-1-2-2-1v-1l-2-3v-3l-1-1h-1v2h-1l-1-1h-4v-5l-1-1v-3l-1-1-1-3-1-1-2-2-2-1H6v-1l-1-1H1l-1-1h10l2-1 3-1 3-1 5-2 2-1 4-3 2-1 1-1h1v-1h-1 1l6-5 4-3 4-2 5-3 4-1zm5 8h1v2h1l1 1v1l1 1 2 2v3l1 1v2l1 1v2h1v4l-1 2v3l1 1v3l2 2 1 1 1 2 1 1h-1l-1 1h-2l-1-1v-1h-1l-1 1v-1l-1-1h-3l-2-1h-3v-6l-1-1v-4l-1-1-1-1-1-1 1-1v-1l-1-1v-7l1-2v1h1v-2l1-1h1l1-1-1-1V9h1z"/>
</svg>
