<svg xmlns="http://www.w3.org/2000/svg" viewBox="0 0 68 77">
  <path d="M25 0v9l1 2v1l1 1v1h1v1h2v1h2l2 1h2l1 1h1l1 1 1 1h2l1 1 1 1 1 1h5v1h1l1 1h1v7h-2l1 2 1 1v4l5 1h6v2l-1 1v2l2 2v1l1-1 1 1v3h1v1l-1 2-1 2v1l-1 2-1 2 1 1-1 1h-1v-2l-2-2-3-1h-2l-3-1-1 1h-5l-3 1-1 1-1 2-1 1-1 1v3l-1 3-1 4-1-1-3-1h-3l-1 1v2l-1 1v1l-1-1v-2h-1v-1h-1l-1-1h-4l-1-1h-1v-1h-1v2h-1l-1 1-1 1h-1v1l-1 1h-3l-1-1v-4H8v-4l-1-1-1-1v-2l-1-1v-2l1-1v-2l1-1H6l-1-1-1-1v-2l-1-1v-3H2v-1l-1-1v-1l-1-1 1-1 2-2v-1h2l-1-1h1v-1h1-1l-1-1 1-1H4l-1-1-1-2 1-1-1-1v-2l1-1 1-1v-1h1l-1-1v-2H3h1v-1l1-1v-5l-2-5-2-4 3 1 1-1v1h1l2-1 1-1V5l2 1V5h1l1-1 1-1h1l3-2h3l1-1 1 1h1V0z"/>
</svg>
