<svg xmlns="http://www.w3.org/2000/svg" viewBox="0 0 58 77">
  <path d="M8 0h1l1 1h2l1 1h1l1 1h1v1l1 1v1l1 1 1 1v1h1l1 1 1 1 3 1v1l1 1 1 1h1l3 1 1 1 1 1h2l1 1 1 1v1h5l6 2h8l2 1v3l-1 1v1h-1v2l-1 2v1h-1l-1 1h2v2l1 2v1l1 2v1l1 2v5l-2 3-1 1h-1l-1 1-1 1-1-1h2v-1l-1-1v-1l-1-1-1-1h-2l-1 1v5l-1 1 1 1h-1v1h3v4l1 2 1 2v4l-1 1-2 3v1h-1l-2 1h-1v-1l-2-2h-1v-1l-3-4-2-1v-5l-1-5-1-3-1-2v-1l1-1v-1l1-1 1-2 1-1v-2l-1-3v-1l-1-1-1-2-1-3-1-1-1-1v-2h-2l-1-1-1-1h-1l-1-1h-1l-1-1h-2l-2-1h-2l-2-1-2 1-3-1H3v-1l-1-1v-4l-1-1-1-1v-2l1-1h1l-1-3V9l1-1V6l1-1V4h1V3h1l1-1 1-1h1zm20 38l3 1h1l1 1v1l-1 2-1 1h-3l-1-1h-4l2-3v-1h2z"/>
</svg>
