<svg xmlns="http://www.w3.org/2000/svg" viewBox="0 0 77 72">
  <path d="M26 0l1 1v5h3l2-1h2V4h7V3l2-2V0l1 2v1l1 1v1h1v3h1l1 1h1v2h-1 2v-1h3l1 1h3v1l1 1h-1v1h1v-1h3v1h6l1 1 1 1 1 1 4 2h1l1 1v2l1 1-1 3-2 3-1 1h-1l-1 1v1l-2 2v1h-1l-1 4v4l-1 1v1l-1 1v2l-1 1-1 1v1h-1v1l-1 1-1 1h-5v1h-1v1l-1-1v1l-2 1-1 1-2 2v4l-2 2-1 2-1 1-1 1-1 1-1 1v1l-1-2-2-1h-1v-1h-2v-1l-1-1h-1l1-1v-1l3-2v-1h1l1-1v-3h-1v-3h-2v-3h-4v-3l-1-2 1-1v-3h-1l-1-1 1-1-1-1h-3v-4h-1l-1-1h-2v-1h-2v-1h-3v-1h-1v-3l-1-1-2 1-1 1h-1v1H7v-3l-1 1H3v-1H2v-1l-2-2 1-1-1-1h1v-1h1-1v-1h1v-2h1l2-1h2l1-1v-5h1l-1-1v-1H7V8h2L8 7H7l1-1h5v1h1l1 1h1V7h1l1-1h1V5h1l-1-1-1-1V2l-1-1h2v1h2l1-1h1l1-1z"/>
</svg>
