<svg xmlns="http://www.w3.org/2000/svg" viewBox="0 0 57 77">
  <path d="M6 0h1l2 1h1l1 1 1 1 1 1 1 1 1 1 1 1 1 1v7h1v2h1l1 2 1 1 1 1 2 2v2l1 2 1 2 1 2 1 1v1l1 1 1 1 1 2 1 2 1 1 1 2 1 1v1l3 1 2 2h1l1 1 1 1 1 1h1l2 2v2l1 1h1v2l1 2 1 1h1l1 3 2 4v1l1 1v1l1 1v3l-1-1h-1l-1-1h-1l-2-1-2 1h-2v1h-2v1h-1v-2h-2l1 1h-3v1h-1v1l-1 1-1 1-1-1h-4v-1h-1v-1l-1-1h-1v-2h1l2-1h1l1-1 1-1 2-1h1v-1 1h1v-1h4v-1h1l1-1v-1 1l-1 1h-1l1-1v-1h1v-4l-1-2-1-2-1-1-1-1h-4v-1h-1v-1h-1v-3h1-1v-1l-1-1-2-2-1-1-1-2-1-1v-2h-1v-2l-1-1v-1l-1-2-1-2-1-1h-1v-3l-1-1-1-1-1-1-1-1h-5 4l1-1h-4l-1 1v-1l1-1v-5l-1-1-1-1v-1l-1-1-1-1h-1L9 9H8L7 8V7H6V6H5V5H4h1-1v1h2L5 7H4L3 8V5L1 4V3H0V2h4V1h1l1-1z"/>
</svg>
