<svg xmlns="http://www.w3.org/2000/svg" viewBox="0 0 77 39">
  <path d="M24 0l1 1h1v1l1-1v1h3v1h1V2l1-1 1 1v1h1l1-1v1h1v1h1v1h12v1-1h1v1h6V5h1V4v1h3v1h2v2h2v1h1v1h-1v1h1v1h1l-1 1v2h-1v2l1 1v1h3v1h1l1-1h2v1h1l1-1v1h1v3l1 1 1 1h-2v5l1 1v1h1v2l-1 1h-2l-2-1h-2v1l-1 1h-4l-1 1h-2l-1-1h-1l-1 1h-3l-2-1h-1v1h-2l-6 1-1-1h-3l-2-2-1-1h-1l-1 1-1 1-1-1-1 1v2l-4 1h-9v-2h-3l-1-1h-6v1H9l-1-1v-1l-1-1H5l-1-1v-1H3v1-4H2v-1H0v-1h1v-2h2l1-1v-1l1 1h1v-1l-1-1v-4h1v-1l1-1h2v-1l1-1v-1h1v-1l1-1v-1h2V9h1V8l1-1V5h1V4h1l1-1V2h3V1h1l1-1z"/>
</svg>
