<svg xmlns="http://www.w3.org/2000/svg" viewBox="0 0 77 48">
  <path d="M27 0h2l1 1 1 1 1-1h1v1h1v1h3V1h2v1h1V1l1 1h2l-1 1h1l1-1h1l1 1h1l2 1 2 1h2V4l1 1v1-1h2v1h2l2-1h2l1 1h1l1 1 3 3 2 1 1 1h1v4l1 1v1l2 1h1v1h-1l-1 1h-1v-1 1h-1v3l1 1v1l1 1h1v1h1v3h1l-2 2v1h-2l1 1v2h-3l-1 1-1 1v6h-1v1h1l-1 1h-2l-1-1h-1v-1 1h-4v-1h-1v1h-3v1l-1-1h-3l-2-1v-1H38v1l-1-1h-1v1l1 1v1h-1v1h-1l-2-1 1-1v-3h-6v1l-2-1h-1l-1 1h-2v-1h-1l-1-1-2-1-2-1-1-1-2-1-1-1h-1l-2-1-2-1v-1l-1-1-2-2v-1H3l-1-2v-3l-1-1v-2l-1-1v-6h1v-4H0v-1l1 1 1-1 1-1V6h3V5h1V4h2l2-1h1l1-1h3l2-1h4l1-1 2 1h1l1-1z"/>
</svg>
