<svg xmlns="http://www.w3.org/2000/svg" viewBox="0 0 77 77">
  <path d="M45 0l1 1v2l1 1 1 1v1l1 1v1l1 1 1 1v2l1 1v2l1 1 1 1h1v1h1v1l3 1h1l1 1v3h4v3l-1 1v1l1 2 1 1v1l1 1h3l4 1v1l1 2h1v1h1-2l-1 1h-1v1h-1l-1 1-2 1h-2l-2 2-1 1-1 1-1 1h-1v1h-3v1l-2 1v1l-1 2-1 2v1l-3 1-1 2-2 1h-2v2l-2 3v2h-1l-2 1-1-1-2 1-3-1h-1l-1-1h-3l-2-2h-1v-1h-2l-1 1h-1l-1 1v1l-1 1v1l-2 3-2 1-1 1-1 1h-2v1h-1l-2 1H8l-1-1H6l-1 1-1-1v-3l2-2v-3H5v-2l-1-1v-1H3v-2l-1-1-1-1H0V47l1-12h8V20l1-16h4l8-1 7-2 1 1v1l1 1v2l1-1h1l1-1V3l2-1 1-1h4l3-1z"/>
</svg>
