<svg xmlns="http://www.w3.org/2000/svg" viewBox="0 0 77 65">
  <path d="M40 0l1 1v1h1l2-1 1 1v1l2-1 2 1h1v3l1 1V6l1-1h1l1-1h3l1 1h1v2h1v1l1-1h1v1l-1 1v1h1l-1 1v1l1 1v3l-1 1v1l1 1 1 1h1v1l-1 1h1l1 1v2l1 1h1v1h2v1l1 1-1 1v1h3l1 1h2v1h-1l1 1 1 1 1 1v1h-2v1l-1 1-2 1h-3v-1h-2l-1 1v3l1 1 1 1v3h1l-1 1h1v3l1 1v1h-4v1h-1l-1-1-1 1h1l-1 1h-1v1l-1 2-1 1v2l1 1v2h-2v-1l-1-1-1-1h-1l-1 1h-3l-2 1v-1l-1-1v-1h-2v1h-1v1l-1 1v-1l-2-1h-1l-1-1h-1v1h-1l-1-1h-1v2l-1-1h1l-1-1h-3v-1l-1-1h-3l-1-1h-4v-1h-2l-1-1-2 1-1-1h-3l-3 1H9v1l-1 1-1 1H3v1l-1-2v-1h1v-3l1-1-1-1-1-1H1l-1-1 1-2 2-2h1l1-1h1v-1l1-2-1-2v-1h1l-1-1v-1l-1-3v-4l-1-1v-1h6v1h1l1-1h1v-1l1 1h1v-2l1-1v1h1l1-2h2l1 1h-1l2 1v-2l-1-1v1l-1-1 1-1v-1l1-1v-4h1l1-1h1l1-1 1-1h2v-1h1v-2h-1l-1 1v-2l1-1-1-1h1V7l1-1h1l1-1h5V3l1-1 1-1 1-1z"/>
</svg>
