<svg xmlns="http://www.w3.org/2000/svg" viewBox="0 0 42 77">
  <path d="M23 0h2l1 1v1l-1 1-1 1h2l-1 1v1-1l2-1h2v1h1l1-1h1v8l-1 1v2l-1 1v1h-1v4l-1 2v2h-1v2l1 1v1h2v1h-2v2l-1 2v3l-1 2v1l1 1v1h1v2l1 1-1 1-1 1v2h1v1h-1v1h-1v2l-1 2v3l-1 1h-1v1l-1 1-1 1v1l-1 1v1h-1v1h-1l-1-1h-1v1h-1v1h-1v2l-2 1v1l-1 1-1 1-1 1H8l1 2v1l-2-1H6v1-1H1l-1 1v-1l2-22V16h1v-1h4v1h1l1 1h1l1 1v-2h1l1-1v-1l1-1h1v-3h1l-1-1h1l1-1 1-1V6l1-1V4l1-1V1h1l1-1h1zm16 9v1h1-1v2h-1v2h-1v1l-2 3h-1 1v-1l1-1v1h-1v-1l1-1 1-1v-2h1-1v-1h1v-1l1-1zm1 19h1v1h1l-1 1-1 1v2h1v2h-1v-3h-1v-1l-1 1v1l-1 1v4l1 1-1-1-1-2 1-1v-2h1-1v-1l1-1 1-1v1-1h1v-1h1-1v-1 1-1zm-1 7h1l-1 1h1l-1 1v2l-1-1v-1h1v-2zm1 0v1zm-3 4h1-1z"/>
</svg>
