<svg xmlns="http://www.w3.org/2000/svg" viewBox="0 0 77 65">
  <path d="M39 0v1l1-1h1v2h-1v1l1-1v1l-1 2v1h-1v1h1-1 1v2h-1 1l-1 1h-1 1l1 1-1 1v-1l-1 1h-2v-2h2-1V9h-1V8h2-1V7h-1V6h2-1V5h1V4l-1 1h-2l1-1h-1l-1-1h2V2h1V1h1V0h1zm-5 4l1 1v1l1-1v2h1l-1 1v1h-2V7v1-1h-1V6h1-1l1-1h-1 1V4zm-2 2v1-1zm-1 1v1h1v2-1h-2 1V7zm-2 1v1l-1-1zm4 0v1h1l-1 1V9zm-5 1h1-1v1l-1-1h1zm-2 0v2h-1v-1 1h-2v-1h1l1-1zm5 1zm-1 0v1-1zm4 0h-1 1zm1 0v1-1zm-9 1h1v1l1 1v-2h1v1l1 1h-1v1h-3v-1h1-2v-1h1v-1zm8 0v1h1v1h2l2-1v1h1v1h-1v1-1l-1 1h-3v-2l-1-1h-1v-1zm-9 1h-1l1-1zm6 0h-1zm1 0l1 1v1h-2 1v-1h-1v-1l1 1-1-1h1zm-2 0h1l-1 1v-1zm-8 1h1l1 1v1h1-1l-2 1v1h-2v-1l-1-1 1-1h1v-1h1zm9 0h-1 1zm-1 0v1-1zm4 1v1h-1v-2zm-23 0v1l1 1v1h4-2l-1 1h4v-1 2h1v-1h1l-1 1v1h1v-1l1 1v1h1l1 1 1 1h-1v1h3v1l1 1v1-2h1l1-1h-2 1v-1l1 1v1h1l1 1v-1l1 1h1v-1h1v2-2h1v-2h-1v-3l1-1 1 2v2h1v2l1-1v-1 1l1 1h-1l1 1h1v-4h1v1h1v2l1 1h-1v1h-1 1-2v2h-1l-1-1-1 1h3v1h-1v1h-1v1h-2 1l1 1h-1v1h-1v1l-1 1v4h1l1 2h2l2 1v1h5v2l1 1v1l1 1h1v1l1-1v-3h-1v-1h-1l1-1 1-1v-3l-1-1-1-1v-3h-1v-2l1-1h1l1-1v1h2v1h1v-1 1h1v2h1l-1 1h1v-1l1 1 1-1v-3h1v1h1v1h2v1h1v1h1l1 1h2v-1h1v1l-1 1v1-1h1v-1h1v1-1l1 1h1v2l-1 1v2h-1v1l-1 1h-2l-2 2h-1v2h-1v4l-1 1-2 2v1l1-1v-1l1-1 1-2 2-4 1-1h1l1 1-1 1v1h-1 1l1-1v2h6l-2 2-1 1v1l-1 1h-1v-1l1-1v-1l1-1h-1v1-1l-1 1v1h-3v-1l-1-1h-1v3l-1 1v1l-4 1-1 1-1 1-2 1v1h1v1h-2l-1 1h-1v1h-1v-1h1v-5l1 1h1v-1h-1v-1h-5v-1l-1-1h-1v-1h-2l-1 1v-1 1h-6v-1h-1L9 50l-4-1v-2H4v-1l-1-1v-3h1-1v-2l1-1H3v-2h1v-9H3v1l-1-1v-2H1v-1l5-5zm31 2v1h-2v-1h1zm-17 0v1l1-1v2-1h1-1l1 1v1h1v-2h1v4h1v1h1-1v1-1l-1 1h1l-1 1h-1v-1h-2l-1 1-1-1h-1v-1l-1-1v-1h2l1 1-1-1h-1v-1h-1v-1h2-2v-1h1v-1h2zm9 0h2v1l-1 1h-1v1l-1-1v-2h1zm5 0h1v2h1v-1 1-1h3l-1 1h2v1-1h1v1l1-1v1h1v1h1-1v1h1l1 1v-1h1v1h2v3h-1v-1h-2l1 1h-1 1v1h2v1h1v2h-2v-1h-1l1 1h1l1 1h-5v-1h-1l-1-1v1h-2v-1l1-1h1v-1h-1l1-1v-1l-1-1h-1v-1h-1v1-1l-1-1h-2v1h-3v-1h-1v-1 1-1l-1-1v-2l1-1h1v4h1v-1h-1v-3h1zm-10 0v1l-1-1zm3 0h1v1h-1 1v2l-1 1h-1v-1l-1-1v-1l1 1v-2zm-19 0h1v1h-2v-1zm19 6l1 1v1h1-1v1l-1-1h-1v-1h1zm13 1v1l-1 1v-2zm1 0v1h-1v-1zm-5 5h-1zm-1 0v1-1zm0 0v1h1l1 1h1l1 1h-3v1h-2v-4zm6 2v1-1zm0 1h-1zm-3 1v1h-1v1-2zm2 1v1h-1v-1zM1 37v1-1l1 1H1v1H0v1-3zm69 2v2l1 1v-1 1h2v-1h1v1h1v-1 2-1h1v1-1l1 1v1h-1v1-1h-1v-1 2h-1v-1 1h-1v-1 1h-1v1l-2 1v-2h-1 1v-2l-1-2v-1l1-1zm-23 3v-1zM2 44l1 1 1 1v4l-1-2v-1H2v-2H1h1v-1H1zm63 2h2-3zm-18 1v1l-1-1zm21 1v1-1zm2 0v1h1v1h-2l1-1v-1zm-1 2v1h-3v-1h1v1l1-1h1zm-21 8l1 1h-2l1-1z"/>
</svg>
