<svg xmlns="http://www.w3.org/2000/svg" viewBox="0 0 63 77">
  <path d="M13 0l1 1 1 2 1 1v2l-1-1h-2l-1-1h-1V3l-1 1-1-1-1-1V1h1l2-1h1zm22 8h2l2 2v2h-1v-2h-1l-1-1-1 1h-2l1-1V8h1zm5 11v1h1l1 1 1 1 2 2 1 1h2v1h1v1l1 1-2 1v-1l-1-1h-3l-1 1v-1l-1-1v-3h-1v-1h-1v-2h-1v-1zm10 11h1v2-1h-1l1-1h-1zm2 2h-1zm0 0v1h-1v-1zm1 2v1h-2v-1h1zm0 1l1 1h1v1l1 1 1 1v1h-1v-1h-1v-1 1h-1v-1h1v-1h-1v-1h-2l1-1zM2 35l1 1 1 3v1l1 1v1l1 3v2l2 3v1l1 2v4H8v-1H6l1-2h1v-2l-1-1v-2H6v1H5h1v-1H5v3l-1 2v2l-1 1v4l1 1h1v-2h2v-1 1l1 1v1l1 1v1l2 2v2l1 1 1 1v1h1l1 2h-1v1h2v1h2v-1h1l1-1v-1l1 1v-1l1-1v-1h1v-1 1l1 1v-1h-1 2v-1h-1v-1h-1l3 1v4h-1l-1 1h-3l-2 1-1 1h-2l-2-1-1-1-1-2-1-1-2-2-1-2-1-2-4-2-1-2v-1l-1-1v-3l1-1 1-2v-1l-1-1v-4l-1-4-1-1v-3h1v-1l1-1v-2zm54 5v1h2v3h-3v-2 1h2v-2h-3l1-1zm-2 5h3v1h-2v-1h-1zm1 1h1v1h-1v-1zm2 1zm0 1h-2 1zm0 1l1 1h1l1 5 2 2v2l1 2v1l-1 1-1 2-2 4v1l-2 2-5 2-2 1-2 1-2 1h-3v-2l-2-1h-1l-1-1v-4h1l-1 2h1v1h1l1-1v2h1v1-1 1l1 1v-1l1-1h1v1l2 1 1-2v-2l-1-1h2v-1l1 1v1h4v1l1-1 2-2-1-1h1v-4h1v1-2h-1 3v-1l1-1-1-1v-1l-1-1v-1l-1-1v-1l-1-1v-2h-2v-1h1v-1h-1v-1h1zM18 69h4-1l-1 1v-1h-2l-2 1 1-1zm17 1h1l-1 1v-1zm-7 1v1l-1-1zm7 1v1-1z"/>
</svg>
