<svg xmlns="http://www.w3.org/2000/svg" viewBox="0 0 76 77">
  <path d="M54 0h1l2 1h2l1-1 1 1 2 1 1 1 1 1h2V3l2 1 1-1h1l1 1 1 1v1h1l1 1v5h1v1l-2 3-1 1-1 1h-1v3h-1v6h-1v1l-1 1v2h-1v1l1 1v2l1 3v4l1 2v3l1 2 1 1 2 5-4 1h-3v1l-1 1-1 1 1 3v3l-1 1v2l-1 1h1v1l1 1 2 1h2v5l-1-1h-1l-1 1v-1h-1v-2h-1v-2h-4v-1l-1-1v-1h-1v1h-4l-1-1h-2v-2h-1l-1 1h-2 1v-1l-1-1h-5l-1 1h-2v-5h-1v-2h-1v-1l1-2v-2l-1-1v-3h-5l1-1h-5v4h-3v-1h-1v1h-4l-1-1-1-1v-2l-1-1v-2l-1-1v-1l-1 1v-1H3l-1 1H0v-1h1v-3l2-1h3v-1h1l1-1h1v2l1 1v-1l1-1 1-1h1l1-1h1v-1l1-1v-6h1v-1l1-1 2-2 1-1 1-1v-2l1-1v-4l1-1v-2l1-3 1-2V8l-1-2V4h1l1-1V2h1l2-1h1l2 2v1h4v1l1-1 1 1h2l1-1V3h1V2l1 1h2l2-1h1V1l1 1h1l1-1h1V0z"/>
</svg>
