<svg xmlns="http://www.w3.org/2000/svg" viewBox="0 0 77 52">
  <path d="M48 0h1v1l2 1 2 4 1 1v4h-1v1h1v2h4l-1 1v1l1 1h4l1 1v1h1l-1 1v1h1v1h2l1 1h1v1l1 1h1v2l1 1v1h1l1 1h1l1 1v1h1v2l1 1-2-1-2 1h-3v-1h-3l-1-1h-1l-1 1v1l-1 1h-3l-1-1-1 1h-1v1h-3l-1 1h-1l-1-1h-1l-1 1-1 1v1l-1 1-2-1h-5l-1-1h-3v-1l-1-1h-1l-1-1-1-1h-1l-3 1h-1l-1 2v1h-1v1h-1l1 2v3l-1-1-1 1-1-1h-7l-1 1h-1v3l-1 2-1 2h-1v-4H9v-1H8l-1-1-2-3-1-2v-1l-1-1H2v-5l-1-1h1-1v-3H0v-1l1-1h1v-1l1-1 1-1v-1l1-1v-1l1-1h3l1-1 2-1h1v1l1 1 1-1h1l1-1 2-1h6v-1l2-2v-1l-1-1h1l2-1h4v-1h2l1-1h1l1-1V8l1-1 1-1h1l1-1V4l1-1-1-1h1V1h2l1-1h1z"/>
</svg>
