<svg xmlns="http://www.w3.org/2000/svg" viewBox="0 0 67 77">
  <path d="M56 0v1h4v1h1l1-1v1h1V1h2l1 1 1 1-1 1v1l-1 1v1l-1 1-1 2v1l-1 1-1 1v7l-1 1v9l-1 1v1l-1 1v5l-1 1-2 2-1 1h-1l-1 1-2 1-1 1v2l-1 1-1 2-2 1-1 1v1l1 2v2l-1 1v2l1 2-1 1-1 2v2h-1l-1 1h-2v1l-1 1v1h-2l-1 1-1 1-1 1-1 1-1 1h-1v-1l-1 1v-2l-1-1 1-1v-1h-1l1-1h-1l-1 1h-1l-1 1h-1l-1-1v3h-1v1h-1v-1 1h-1v1-1h-1l-1-1v-1h-2v-1l-1-1h-1v1h-1l-1 1h-1v1l-1 1-1-1v2l-1 1-2-2v-2l-2-2-1-1-1-1-1-1-1-1v-1l1-1 1-1h1v-1h1v1l1 1h2l-1-1 1-2h1-1v-1H6l-1-1v-1h1l-1-1v-1H4v1-1l1-1-1-1v-2l1 1h1l1-1 1 1 4-1v-4h2l1 1 1 2 1 1h-1v1h4l2-1 1-2 1 2v1h3v-3l1-1 1-1v-3l1-1-1-1h1l-1-1v-3l1-1v-1l-1-1h-2v-2h-3v-1l1-1v-1l-1-1 1-1 1-1v-1h2l1-1v-3l-1-1v-2h-1v-1l-1 1-1-1h-2l-1 1h-1v1h-3v-6l1-1v-1h11v-1l1 1h1v1l1-1v1h3l1 1h1v-1h1l1 1h1l1 1h1v1h1v-5h1l1-2 1-3V5l1-2V2h2V1h1l1 1 1-1h2l1-1z"/>
</svg>
