<svg xmlns="http://www.w3.org/2000/svg" viewBox="0 0 77 49">
  <path d="M44 0h1v1l1-1v1h1v1l1 1V2h1v1l1 1 1-1h4v1h3l1 1 1 1 1 1 1 1 1 1v2h-1v1h-1v1l-1 2v3h1l2 1h3v2l1 1h2v1h1l1 1 1-1 1-1h1v-2h1l1 1 1 1-1 1v3l-1 1v2h1l1 1-1 1h-3v-1l-1-1h-1v1h-1v1l-1 1v1l1 1h1v1l-1 1 1 1v2h-2v-1l-1-1v-1l-1-1h-1v1h-2l-1 1h-2l-1-1-1-1v-3 1h-1v-1h-2v6l-1 1v1h-1v1h-1v1l-1 1v3l1 1-1 1v1h-1l-1-1v-2h-1v-1h-1v-1l1-1v-1h-3l-1-1-1-1v-1h-1l-1-1v-5l-2 1v1l-1 1h-1v1h-1l-1 1h1v3l-1 1h-1v2l-1 1h-2v1h-3v-1h-3v1h-1l-1 1-1-1-1 1-1 1h-2v-1l-1-1v-1l-1-1-1-1v-2h-2v-2l1-1v-1l-1-1v-2l-3-1H9v1H8l-2 1H5l-1 2 1 1h1l-1 1-1 1-2 1H0v-2h1l1-1 1-1v-2l-1-1v-1l1-1v-1l-1-1h1l2-2 2-1v-1h1v-4l1-1v-1h2l1-1v-1h1v-1h1l1-1 1-2 1-1 1-1v-1h-3 1v-1l1-1h1l-1-1 1-1 1 1h2v1h4V8h1V6h1V5h2v2l1-1h1l1-1 1 1h3l1-1h1V4l1 1h1l1 1h1l1-1V4h1v1l1-1-1-1v1h-2V2l1-1h1V0z"/>
</svg>
