<svg xmlns="http://www.w3.org/2000/svg" viewBox="0 0 73 77">
  <path d="M29 0v2h-1v1h1v1h1l-1 1v1h3V5h1V4h1l1-1h1l2 1v1h4v1h-1 1l1 1v1h1v2l2 1v1h1v1l1-1h1v1h1l1 1v-1h1v-1h1v-1h2l1-1h2l1-1h1l1 1h5v2h1l1 1 1 2 1 1 1-1v3l-1 1v1l1 1 1 1v1l1 4v4h-1v1l-1 1-1 1v-1 2l-1 1-1 1v5l-1 2-1 1-1 2v2h-1l1 2v3h1l1 3v3h1v1h2v2l1 1-1 1v1l1 1v1h-4l-4-1-6-1h-3l-4 1-8 1h-8l-4 2-3 1-1 1h-2l-3 1h-1v1h-1v1h-3v1h-1l-2 1-1-1v-6h1v-2l1-2 1-1-1-1v-1h1v-1h-1 1l-1-1v-2h-2v-1h-1l-1-1v-1H9v-2l-1-1H4l-1-1v1H2v-2 1H1v-1H0l1-1v-1h1l1-1v-2l1-1v-3H3v-2l-1-1v-2l1 1h2l1-1v-3l1-1v-1l1 1v-1l-1-1H6v-1H5l-1-1 1-1v-1h4v1-1h1v1h2-1v-3l-1-1H9l-1-1v-2l1-1h2-1v-1H9l-1-1h1v-2H6v-6H5l1-1V8l1-1h1l1-1 1-1h1V3h3v1h1v1h1v1h2l1 1V6h1l-1-1h1V4h3v1l1-1V3h-1V2l1-1 1 1h1V1l1-1h1z"/>
</svg>
