<svg xmlns="http://www.w3.org/2000/svg" viewBox="0 0 14 77">
  <path d="M9 0v1h1v2h1v5h1v3h2l-1 2h-1l-1 1v5h-1v1l-1 1v1l-1 1v3l-1 1v2h1v5H7v4H6v3l1 1-1 1v1H5v10h1v1H5l1 1H5l1 1H5v1h1l-1 1v1l-1 1h1v1H4v2H3v2h1v1-1h1v3h3l1 1h1-1v5h2v1h-1v-1 2l-1-1H8v-1H7v1-1H6h1-1l-1-1h4-1v-2H7v-1h1v-1 1H7v1l-1 1-1-1h1v-1H5v1H4v-2 1h1l1-1H4v1H3v-1 1-1h1v-1 1l1-1-1-1 1 1H3v-1H2v-1h1-1l1-1H2h1-1v-1h1-1 1v-1H2h1v-1l-1 1v1l-1-1v1H0h1v-1H0v-1h1-1v-2h1v-1h1v-1H1v-1l-1 1v-1h1v-1h1v-1 1h1v-2h1v-1H3v-2h1v-3 1-2H3v3l-1 1v-7l1-1v-1l-1-1v-3h1v-2l1-2h1V25l1-1-1-1 1-1v-3l1-2v-6l1-2V3H7V2l1-1V0h1zM3 66v1-1zm3 6H5h1zm-5-7v1h1-1zm1 1v2H1v-1h1v-1zm-1 0v1-1zm1 3v1l-1-1zm0 2h1l1 1 1 1h1v1H5l-1-1-1-1-1-1zm5 2v1h1-1v-2z"/>
</svg>
