<svg xmlns="http://www.w3.org/2000/svg" viewBox="0 0 54 77">
  <path d="M42 0v1h1l1 1v1l1 1v1l1 1v10h1v1l1 1 1 1h1l-1 1h-9l-1 1v1l1 1 1 2 1 1h1v1l1 1h1l1 1 1 1 1 3 1 2v2l-2 1v2l-1 1-1 1v1l-1 1v1l-1 1h-1v1l1 1v3l-1 1h1v2l1 2v1l1 1h1v1l1 1-1 1 2 3 2 2 1 1h1v1l1 1v3l1 1h-1v2l1 1h-1v1-1h-1l-1-1h-4v-1h-1l-1 1v-1h-2v-1l-1 1-1-1H16l-4 1h-1v-1l-1-1v-3l1-1v-1l-1-1v-1l-1-1-1-1v-1h1v-1H8v-1H7v2l-1-1H5l-1-1v-1l-1-1v-2 1H1v-2l1-1v-1l1-1v-4h1l1-1 1-1v-1h1v-1h1l1-1v-1h1l1-1 1-1v1h3v-1h1l1 1v1h1l1 1h2l1-1v-1l1-1h1v-2l1-1v-1l1-2v-2l1-1v-1h1v-1h1l1-1v-1l1-2v-1l1-1h1v-3l1-1h1v-3l1-1v-1l1-1v-1h1v-1h2l1-1 1-1V6l1-1-1-1-1-1h-1V1h1l-1-1h1v1l1-1zM2 62h1l1 1-1 1-1 2H0v-1l1-1 1-1z"/>
</svg>
