<svg xmlns="http://www.w3.org/2000/svg" viewBox="0 0 77 64">
  <path d="M61 0h3l1 1v1h1v1l1 1v1l1 1h3v1h1v1h2V7h1l1-1 1 1v1l-1 2v2h-1l-1 1v1l1 1v1l-1 1h-1v1l-1 1v1h-2v1h-1v1l-1 1-1 1h-1l-1 1v1h-1v-2l1-1h-2l-1 1-1 1v1h-1l-1 1v1h2v2h1v-1h1v-1h3v2-1h-1v1h-1v1h-1v1l-1 1v1h2v1l1 1v1h1v1h1v1h-1v-1h-1l1 1h1v1l-1 1h-1 3v3h-1v2l-1 1v1h-1 1v1h-1l1 1h-1v1h-1v1h-1v1l-1 1-1 1h-2v1h-2v-1h-1v1h1v1h-1l-1 1h-2l-1 1h-1l1 1-1 1v-2l-1-1-1 1v-1h-1v1h-1l-1-1h-1v-2h-3v1h-5v3-1h-3v-1h-1v-1l1-1h-1v-1l-1-1h-1v-2h1v-2l1-2h-1v-1h-2l-1-1v-1h-3l-1 1h-1l-1 1h-1l-1-1h-3v1h-1v-1h-3v-1h-2v-1h-1v-1h-1l-1-1v-1H8v-1H7l-1-1H5l-1-1v-3 1h1v-4l-1-1v-1l-2-1v-1l-1-1-1-1h1v-2H0v-2h1v-1h6l1-1h1l1-1v-1h1v-3h3v-1l1-1 1-1h1l1 1v-3h1l1-1h1v1h1v1l1 1v-1 1l1 1v4h2l1 1h2v1h1v2l1 1h7v1h3v1h1v-1l2-1h4l1-1 1-1 1-1h-1v-2h3l1-1h1l1-1v-1h1l1-1h2l-1-1v-1h-2l-1 1h-2v-2h1V8h2V7h1V4h1V3l-1-1 1-1h1V0h1zm-9 61h1v1l-1 1v1h-3v-2h1v-1h2z"/>
</svg>
