<svg xmlns="http://www.w3.org/2000/svg" viewBox="0 0 56 77">
  <path d="M34 0h1v1h1v2l-2 1h-1l-1 1-1 1-1 1-1 2-1 1v2l-1 2-1 1v1l1-1h1v1l1 1v1l1 1 1 1v1l-1 2 1 1h1v1l1 1h4l1-1h1l2 1 2 2 2 1h8v2l-1 1v7l1 1v1l1 1-1 1-1 2h1l1 1 1 1v2l1 2v1h-1v-2l-1-1v-1h-1l-1 1-1 1v-1h-1v1h-7v3h2l1 1v1h-4l-1 2v2h1l1 1h1v3h1l-1 1-2 13-1-1v-1h-3l2-3 1-2v-1h-2l-2-1h-3v-1l-1 1h-1l-1 1-1-1-1 1-1-1-1-1h1-1v-1l-1-1-1-1-1-1-1-1h-1v-1l-2-2h-1v-1h-3v-1h-1l-1-1h-2v1l-3-1H8v-1H7v-1H5l-1-1-1-1H2l-1-1-1-1 1-1h1v-3h1l1-1 1 1v-1h1v-1l1-1v-1l1-1 1-1H8v-1 1l-1-1v-1l1-2v-2l-1-1v-1h1v-2l-1-1h1v-2H7v-1H6v-1H5l1-1v-2l1 1 1-1v-1h1l-1-1v-2l1 1v1h1v1h1v-2l-1-1h1l1-1 1-2h1l1-1h1v-1h-1l1-1v-1h-1l1-1V9h1V8h1l1-1V6l1 1h2V6l1-1 1 1h1l2-1 3-2h1l1-1V1h1V0h1z"/>
</svg>
