<svg xmlns="http://www.w3.org/2000/svg" viewBox="0 0 77 72">
  <path d="M9 0l2 1h2l2 1 5 2 3 2 3-2 3-2 1 1h1l1 1 1 1h2l1-1v1l1 1v1h2v2h2l1 1h1V9l1 1h1v1h2v-1h2V9h2V6h1l1 1v2l2 6 3 5 3 3 3 3 1 1h2l1 1h-2l2 3 2 2h1v2h1l1-1h1v1h1v1h1v1h1v1h-2v1h-1v-1h-1v-1h-1l-1-1h-1v1h-1 1v1l-1 1h-1v9h1l2 1v1h1l1 1v1l-1 1h-2v2h-1v2h1v2l1 1-1 1v2h-2l-1 1-1 1v1l1 1h1v1l1 1v3-1l-1-1-1-3-1-1h-1l-1-1-1-1h1v-2l-1-2v-1h-2v-1h-1l-2-1h-2 1v2l2 1h1v2h1v2l-1 1-1-1h-1l-2-1h-2l-1-1-1-1-1-1-1-1v-2h2v-2l1-1v-2h-1v-3l-2-2-2-1v-1h-1v-1h-1l-1-1-1-1h-2l-1-1h-1l-1-1-2-1h-2l-2-1h-1l-1-1h-1v-1l-1-2 1-1-1-1v-1l-1-1v-1h-1v-1h-2l-1-1-2-1v-1h-1l-1-1h-2l-1-1h-1v1h2v1h1l-1 1-1-1h-1 1v1h1-1l2 1v1h1v-1h2v1l-1-1v1h1v1h1v2h2v1l-1-1v1h-1v1h-2v1h1l-1 1h-1v1l-1 1h-1v-1l-1-1v-1l-2-1v-1h-1l-1-1h-2v-1H7l-1-1-1-1v-1l-1-1v-1H3v-2H2v-6h2v-1H3v-1h2l1-1 1-1H6v-3h1L6 9H3V8L2 7H0l1-1h1L1 5h1l1 1h2V4H4h1V3h1v1-3l1-1h1z"/>
</svg>
