<svg xmlns="http://www.w3.org/2000/svg" viewBox="0 0 77 24">
  <path d="M26 0v1h5l1 1h4l-1 1h2v1h1v1h1l1 1 1-1h2v1h1V5l1 1 1 1h2l1 1v1h1V8v1h1l1 1h1v1h1v1l1-1 1 1h2v1h1v1-1h2l1 1h4v1h-1v1h1-1v1l1-1v1h1v-1l1 1h4l1 1h1v1h3v1l-1 1h-4v1h-1v1h-1v-1h-1v1H57v1h-6l1-1 1-1 1-1h1v-1h1v-1h-1v-1h-6l-1-1h-1v-1h-1l-1-1v-2l-1-1v-1h-1l-1 1h-4l-1-1h-2l-1-1h-1l-1-1V8h-1l-1 1h-2l-1-1-1-1v2-1h-5V7h-1V6h2l1-1-2-1h-6v1h-1v1h-1l-1 1-1 1H8L7 9v1H6l-1 1H4l-1 1v-1H0h1l1-1h3L4 9V7l1-1V5h1l1-1h2V3h2l1-1h4l1-1h2l1-1 3 1h1l1-1zm20 4v1h-2V4h1zm2 1v1h1l1 1h1v2-1h-1l-1-1h-1V6h-1V5h-1 1zm4 4h1-1zm1 0l1 1h1v1h-1v-1h-1V9zm-39 1h1l1 1 1 1v1h-1l-1 1h-1l-1-1-1-1 1 1h1l-1-2 1-1zm26 6l-1-1zm1 0v1-1zm1 1zm1 0v1-1zm1 1zm3 1h-1z"/>
</svg>
