<svg xmlns="http://www.w3.org/2000/svg" viewBox="0 0 77 70">
  <path d="M7 0h1l2 1v1h1v2l-1 1-2 1-2 1-1 2H1V6L0 5V3h2l1-1h1l1-1 2-1zm5 9h1v1h1v2h-3l-1 1-1-1H8v-2h1V9v1h1V9h1V8v1h1zm58 2v3l1 1v1l-1 1 1 1h-2v-3h-2 1v-4h1v-1zm-54 1h1l1 1h1v1h-2v-1h-1v-1zm13 3v1h1l1 1h1v-1l1 1h3l1 1h1l-1 1h-3v-1h-2l-1 1-1 1v1h-1v-1l-1-1-1-1v-2h1l1-1zm-10 1zm3 1zm51 11l1 1h2v2h1v3l-2 1-2 1h-2l-1-1h-2v-2l1-1h1v-2h-1v-1h4zM46 55h1v1l1 1v1h2v1l1 1h1v1l1 1v1h1v1l1 1h-1v1l-1 1h-5l-1-1-1-1h1l-1-1-1-1v-4l1-1v-1l-1-1 1-1zm16 0h1v1l1-1v4l1 1-1 1h-3l-1-1 1-2v-1h-1l1-1 1-1zm-34 8l1 1 1 1v4l-2 1h-2l-1-1-1-1v-1l1-2 1-1h1l1-1zm-9 5v2h-2v-1l1-1h1z"/>
</svg>
