<svg xmlns="http://www.w3.org/2000/svg" viewBox="0 0 77 33">
  <path d="M1 0h1l1 1h3l1 1h8l2 2h-1v1h2v1h1l-1 1h1v2h1v2l1 1 1 1 1 1h1l1 1 1 1 2 1h2v1h1l3 1h7l1-1h7v-1h3l1-1h1v1h4l1 1h1l1 1 1 1h1l-1 1-1 1-1-1v2h3v-1h-1v-1h1l3 2v1h2v1h1l2 1 1 1h1v1h2l1 1h1v1h-2l-1 1h-3l-1 1v1h-7 2-3 1-1l-1-1h-1l-1-1v-1h1v-2h-1v2l-1-1v1h-1v-1 2h2v1h-1l-1-1h-1v1h-1l-1-1h-4l-4-1h-3l-1 1v-1h-2v-2l-1-1v2h1-5l-1-1v-1h-1l-1-1-1-1-1-1v-1h-1l-1-1h-3l-1 1v-1h-1v-1l-1 1h1l-1 1h1v-1h1v3h-2l-1-1h-1l-1-1v-2h-2v-1h-2v-1h-1v-1h-1l-2-1h-1v-2h1-1v-1 1H9l1 1v1H8v-1H6v-1H5v-1l-1-1h1v-2l-1-1V9L3 8V6L2 5V4L1 3 0 2V0z"/>
</svg>
