<svg xmlns="http://www.w3.org/2000/svg" viewBox="0 0 77 68">
  <path d="M71 0h1v5l1 1v3l1 2 1 2v3h-1v1l-1 1 1 1v2l1 2 2 1h-1v1h-1l-1 1h-2v1h-3l-2 2-1 2v2h-1l-1 1-1 2h-1v1l-1 1v7l1 1v1l-1 1-1 1v1l-1 2-1 1v4l-1 4v6l-2 1h-6l-2-1-1-1v-1l-1-4-1-1 1-1v-1l-1-1v-3l-1-2v-3l-3-4-9-2h-6l-2-2-1-1H10l-3 3-1 1-2 1H2l-2-1v-2l1-1 3-3v-1h1l1-1 1-1h1v-1l1-2 1-3v-1h1v-1l-1-2-1-2-1-1-1-1-1-3v-1l1-2 1-2h2l2 1v2l1 2h1l1 1h2l3 2 2 1h4l4 1 1 1 1-1h4l4-2 4-1 2-2 4-2 1-1 2-2 1-1 1-1V7h4V4l1-2V1h2l2 1h1l4-1 2-1z"/>
</svg>
