<svg xmlns="http://www.w3.org/2000/svg" viewBox="0 0 77 47">
  <path d="M77 1h-1v1l-1 1h-2v1h-1l-1 1v1l-1 1-2 1-1 1-2 1-2 1-1 1-1 1-1 1v1h-1l-1 1-1-1v1h-1l-1 1-1 2v3h1l1 2 2 2 1 1v1h1v2h-2v-1h-2l-1 1h-1l-1 1h-1v-1h-5l-1 2v2l-1 2h-2l-1 1-1 1h-1l-2 1h-1l-1 1h-2l-1 1h-6l-2 2v4l-1-1h-2v-1l-1-2-2-1h-1l-1 1h-5l-1-1-1-1H8l-1-1H6l-1-1H4v-4H3l-1-1v-1H1v-5l-1-2v-1h1l1 1h1v1h3v-1l1-1 1-2h1v-1h1l1-1h4l1 1h1l1 1h1l1-1h1l1-3v-4l-1-1 1-1h1l1 1h1l2 1 1-1h3v1h11l2-1h2l2-1 1-1h4l2-1h1l1-1h1l1-1 1-1 2-1 1-1h2l2-1 1-1 1-1h1l1-1h2l1-1h1l1-1z"/>
</svg>
