<svg xmlns="http://www.w3.org/2000/svg" viewBox="0 0 77 43">
  <path d="M25 0h1v1h1V0h1v2h1v1l2 1V3h2V1h3v2h1v2h1V4l2 1h2v1h1v1l1-1v2h1V7h3l1 1v1h-1v1h-1v2h2v1h1l1 2v1h2v-1h1v-1 1-1h2v-1h-1l-1-2h3l1 1h1v1h1v1h1l1-1h2v2h-2l1 1h1v1l1 1 1 1 1-1h1-1v-1h1v1h1l1 1 1 1v-1h1v1h1v-1l1 1h-1 1v3h2v1l1 1v1l-1 1h-3l-1 1v1l-1 1h-2v2l-1 1-1 2h-1l-1 1h-1v2h-7l-1 1v1h-1v1-1h-3v-1h-3l-1 1h-3v-1h-1l-1-1-1-1v1h-1l-1-1h-1v-1h-2v-1l-1 1h-1v-1h-2v4h-2l-1 1v2h-2l-1-1v1h-1v1h-1v-1h-2l-1-1-1-1v-1h-2v-2h-1l-1-1h-1l-1-1v-1h-1l-1-1-1-1-1-1v-1h-1l-1-1H8l-1-1-1-1v-1H5v-2l-1-1-1-1h1v-1l1-1v-1H4v-1H3v-1H2l-1-1v-2H0v-1h1v1h1v1l1-1v-1h1v-1l1-1h3v-1l1 1h1l1-1 1-1v1l1-1V8h1l1-1 1 1V6h3V5h2V4h2l1-1h1l1-1h-1V1h-1 1V0z"/>
</svg>
