<svg xmlns="http://www.w3.org/2000/svg" viewBox="0 0 68 77">
  <path d="M19 0v1h-1 1l1 1V1h2v1h6l1 1h2l-1 1h1l-1 1v1h-1 3v1l1-1h1l1 1h4-1l1 1-1 1h-1v1l-1-1v1h1v1h1v-1h2v1h1v-1h1l1-1h3l1-1 1-1 1-1h4V5l1-1v1h-1v2h1v1h1v1h1v1-1h3l1 1 1 1h1v1h-3v-1 1h1l2 1v2h1v5h-1l-1 1v1h1v1h1l1 1 1 1v1h-1v1l1 1v6h1v1l1 1v1h1v2l-1 1v1l-1 1h-1v-1h-1v-1h-2l1 1h-1v1h-2l-1 1h-2v1h-3v1h-1l-1 1h-2l-2 1v1h-1v-1h-1v1h1v1h1v1h1v2h-1l1 1v1h1v1l1 1h1l1 1 1 1 1 1 1 1h1l1 1 1 1v2h-3v2l-2 1h-1l-1 1h-1v1l1 1 1 1-1 2h1v2l-2-1v-1h-4v-1 1l-2 1h-3v1h-2v1l-1-1-1 1-1-2-1 1v-1h-2v2h-1l-1 1v-1h-1v-1l-1-1h-1l-1 1h-1l-1-1-1-1h-3v-1 1h-1v-1h-2v1h1l-1 1h-6l-1-1v-1l1-1v-4l1-1v-2l1-1 2-2v-1h-1l-1-1h-3l-1-1H9v1l-1-1H6l-1-1v-1H4v-3h1v-1H4l-1-1-1-1v-2l1-1h1l-1-1v-1H2v-1h1l-1-1H1v-2l-1-1 1-1h1v-1H1l1-2v-2H1v-2l1-1h1l1 1 1-1h2v-2l1-1 1-1v-1H6v-2h2l1-1v-2h1v-3l-1-1-1-1 1-1v-1l2-1h5v1h1v1h-1l1 1h1v-1h-1l1-1 1 1v1l1-1-1-1 1-1v-2l1 1h5v1l1 1 1 1h1l-1-1h-1v-1h-1l-1-1-2-1-1-1h1V9h-1V8l1-1h-2v1h-1V7h1-1V6h3V5v1h-1V5h1-1V4l-1-1-1-1h-2v1-3zm41 10v1-1h-1v1h1zM20 3v1h-1V3zm-2 0v1h1-1zm38 1v1h2-1v1h1v2-1h-2v1h-2V5l1-1h-1v1-1h1zM21 5l-1 1V5zm-2 0zm20 0l1 1h-2V5zM19 6z"/>
</svg>
