<svg xmlns="http://www.w3.org/2000/svg" viewBox="0 0 68 77">
  <path d="M56 0l1 1 2 4 2 3 1 2 1 1h1v-1 1l1 3 1 4v1l1 1v4l1 1-2 5v1l-1 1h-4l-1 1h-2l-1 1-1 1-1 1v1h-1v1h-1v1h-4v1h-1v1-1h-4v1h-2l-1 1v1h-1v2l-2 2v1l-1 1h-4l-1-1h-1v1l1 1h-1l1 2h1l1 1h4v-1h-1v-2h1l1-1h3v-1h12v1h1l1-1v-1h1v2l1 1v1h1v1h1v1h1v1l-2 3-7 11-3 5v1h-2l-1 1h-1v-1h-3v-1h-1v-2l-1-1h-1l-1 1h-1l-1-1-1-1v1h-1l-2 1-4 2-2 1h-1l-1-1h-1l-1 1h-1l-4 1v-1h-3v1h-1l-1 1H8v1l-1-1H5l-1-1H2l-1-1v-6h1l1-1v-1l1-1-1-1-1-1H1v-1h1-1v-7l-1-3 1-2v-4l2-4 1-1 1-1v-1h2l1-1 2-3 3-4 1-3 1-1 1-1 2-4 1-1 2-2 2-2v-3l2-2 1-2 1-1 2-1 2 1 3 1 1 2 3 3v-1h2l1-1h1l1-1v-2l-1-1 1-1 1-1h1V5h1V4h2l1-1 4-2z"/>
</svg>
