<svg xmlns="http://www.w3.org/2000/svg" viewBox="0 0 77 51">
  <path d="M19 0h3v1-1h1l1 1 1 1 2 1h1l1 1 1-1h2l1 1v1h1l2 1h4l1-1h1l1 1h1v1l-1 1 1 1v2h1v1l1 1v1h3l1-1h3l2 1h1v-1l1-1h1l-1 1v1h1l1-1v2l-1 1h-9v2h4v1-1h1l1 1h2v1h2l1-1 1 1h2v-1h1l1 1h2l1 1 2 2h1v1h1l1 1 2 1 1 1 1 1-1 1v2h-1v2l-1 1-2-1h-1v2l-1 2h-2v-1l-2-2-1-1h-6l-1-1-2 1h-4l-1 1v-1h-1v-1l-1 1h-1l-2-1h-3l-2 1v1l-1 1-1 1v1h-1l-1 1h-8 1v-1h-1v-3l-1-1h-1l-1 1v1h-3v1l-1 1h-1l-1-1h-1l-1 1v1h1v3l-1 1-1 1-2 3-1 1-1 2v1l-1 1h-1l-1-1v-1H9v-1H6l1-1-1-1v-2l-1-1-1-1h1v-1l-1-1v-3l1-1-1-1-1-1H2v-1H1v-1l-1-1v-2h3v-1l1-1v-1l1-1v-2H4v-1H3v-1l2-2 1-1v-2l-1-1H4v-2h1V9L4 8V4H3l1-1h1V2l1-1h5l1 1h5l1-1 1-1zm50 38h3v1h-2v1l-1-1h-1v-1z"/>
</svg>
