<svg xmlns="http://www.w3.org/2000/svg" viewBox="0 0 70 77">
  <path d="M28 0v1l1 1h1v1h2l2 2h1v1h3v1h3v1l1 1h2v3l3 1h1l1 1h7v-2h2l1 1h2v1l1 1 1 1h2l1 1 2 1h1v1h-2l-1-1v1l1 1 1 1v1l1 1 1 1v5h-1l-1-1-1 4-1 4-3 3-3 4-7 5-7 2-8 4h-1l-1 1v1h-1v2l-1 1-1-1v3l-1 1-1 1-1 2v2l-1 1v2h1l-1 1-1 1-2 2v1h-1v2l-2-1h-2v-1h-1v-1l-1-1v-2l-1-1h-3l-1-1h-1l-2-1-1 1v1H8v-1l1-1v-1H8v1l-1-1v-2h3v-1h1v-3l-1-1v-2H9v-1h2l1-1 1-1v1l1-1v-1l1-1v-3h1v-4h-1v-4h1v-1l-1 1-1 1 1 1v3l-1 1h-1v-1h1-1v-2h1-1l-1 1v1l-2 2v-1 1l-1 1v-1H8l-1-1-2-2H4l-1-1H2v-1l-1-1h3v-5l-1-1v-2h1v-2l-1-2-1-1v-1h1v-1h3l1-2 1-2 1 1 1-1H8v-1l-1-1v-1l1-1h1v-1h1l1-1 1-1v-1h1v-6l-1-1V7h2l2-1V5h3l1-1h3l1-1V2l1 1v1l1-1V2h1V0zm-2 1v1h-1V1h1zm-1 1l1 1h-1V2zM13 12v1-1zM0 32h1l-1 1v-1zm15 14l1 1h-1v-1zm0 1v2-2zm1 1v-1zm-2 0v1h-1v-1zm-1 1l1 1-1 1h-2 1v2h-2v-3h1v-1h2zm0 2v1l-1-1zm-1 1z"/>
</svg>
