<svg xmlns="http://www.w3.org/2000/svg" viewBox="0 0 77 47">
  <path d="M47 0v1h1v1h1V1v1h1V1h1v1h3l1 1h4v1h2v1h6l3 1h4V5h1V4l1 1 1 1-1 2-1 1h-2v1l-1 1v2l-1 1v1h-7v1h-1l-1 2v1l1 1 1 2 1 1v3l1 2h1v1l1 1v2l1 2v1l1 2v-1h1v2h1v2h-3l-1 1 1 1-1 1h-1v2h-1v1h-2l-1-1h-1l-1-1-1 1h-1v1h-1v1h-2v-1h-1l-1-1h-1v-2l-1-1h-1v-2l-1-1h-2l-1-1h-2v-1l-1-1h-1l-1-1v1h-1v-1h-2l-1 1h-1l-1 1h-3l-1 1v1h-1v-3l1-2v-3l1-2v-1h-3v1l-1 1-1 1-1-1-1-1h-3v-2l-1-1v-1h-1v-1l-1-1h1l-1-1v-1h1v-1h2v-1h-2v1l-1-1v-1 1l1-1h-1v-1l-1-1h2v-1h1-2l-1-1h1v-1l1-1-1-1V9l1 1h1V9l1 1V9h3V8l1 1h1V8l-1-1V6l1 1h1V6h1V5l1-1 1 1h2V4h1v1h1V2l1 1v1h4l-1-1 1 1V3h1v1h2V3h1l-1-2h1v1h1l1-1h-1V0zM32 2l1 1h-1V2zm-6 5zm-1 0v1-1zM9 13h1l1 1h1l1 1h1v1h1v2h-3v1l1-1v1l-1 1v-1h-1v1l-1 1H8v-3l-1-1H3v-1h4l1-1v-1h1v-1zm8 1h2v1h-1v1l-1-1h-1v-1zm-1 8h2l1 1v2h-1 1-1v-1l-1 1-1-1-1-1h1v-1zm-7 1l1 1v-1l1 1 1-1h2l1 1h1v1h1l1 1v1h-1v-1h-1v1h-1v1h-2l1 1h-1v1-1h-1v2-1h-1v1H7l-1 1-1 1v4H4v1H2v-2h1v-1h1l1-2H4l-1-1-1-1H1v-2h1v-2H1v-1H0v-1l1 1v-1h1l1 1v1l1-1v-1h1v1l1-1v-1h2v-1h1zm-8 5H0h1zm8 5H8zm17 0v1-1zm-9 7v1-1z"/>
</svg>
