<svg xmlns="http://www.w3.org/2000/svg" viewBox="0 0 76 77">
  <path d="M10 0l1 1h3l1 1h2l1 1h1v1h3v1h5l1 1 2 1 2-1 3-2 1-1 1 1V3h1V2h3l2-1 2 1h3v1h-1l1 1h2v1l1-1h1l1 1h3V4l1 1h2l4-1V3h1l1 3 1 3v1l1 2 1 2v2l1 1-1 1-1 1v4l-1 1v4l-1 1-1 1h-1l-1-1-1-1-1-1v-1h-1v-1h-1l-1-2v-2l-2-2v-1l-1-1v-2l-1-1h-1v1l1 3v3l1 1 1 1v1l2 2 1 1 1 2h1v1h-1 1v2l1 2 1 2 1 1v2l2 3v2h1v1h1l1 2v1l1 1 1 2v1l1 1v1l1 1v1l1 1h1l1 1v1h1-1l-1 2v2l1 1v1l-1 2-2 1h-1l-2 4-2 1h-2v2l-1 1-1 1h-3l-1-1-1-1H46v-2l-1 1v1h-9L0 74l1-28 1-28v-3l-1-1 1-1-1-1v-2l1-1 1-2V6L2 5V2l1-1 1-1 1 1h2l1-1h1z"/>
</svg>
