<svg xmlns="http://www.w3.org/2000/svg" viewBox="0 0 77 65">
  <path d="M20 0l2 2 1 1 2 4v1l1 3 2 4 2 8v1l1 1v1l1 1v1h1l1 1v1l1 1v2h1v-2l-1-1 1-1h1l2 2h-1v1h1l1 1v1l1 1h1v-1h3v1h2v2h4v1h2l1 1 3 5 1 1 2 1 2 1 1 2h1l1 1v-1h-1 1l1 1v1h1v2l1 1h2v1h1l1 1v1l1 1 1 1h1v-1h1v1l1 1-1 1h-1v1h-2v2h-1v1l-1-1-1-1h-1l-1-1-2-1-1-1-1-1-3-2-1-2-2-1-3-3-1-1-3-3-2-3-4-2-3-1-1-1v-1h-1v1l-1 1-1-1h-1l-1-1h-2v2l-1-1h-1v1h-1v1-2l-1-1h-2v1l-1 1h-1l-2 1h-1l-2-1-1-2h-2l-1-1-1-1-3 8h-1v-1h-1v-2l-2 1-1 1v1H7l-2-1H3l-1 1v-3l-2-6v-2h1v-3l1-4 1-1v-3l1-2v-3l-1-1v-2h1v-5l1 1h1l1-1 1 1v-1l1-1V8l1-2h1l1-1h1l1-1h1v1-1l1-1h1V2l1-1 1-1h1zm18 20v1h1-1v1h-1v-1h1l-1-1zm-7 1v1-1zm6 2h1v1h1v2h2-1v-1h1v1h1-1 1v1h-4l-1-1v-1 1h1v-1h-1v-1 1-1h1l-1-1zm10 4zm-6 4zm0 1zm1 2h-1v-1z"/>
</svg>
