<svg xmlns="http://www.w3.org/2000/svg" viewBox="0 0 77 57">
  <path d="M9 0v1h2l1 1h7V1h1v1h4l1 1h4l2-1h2v1h2v1h1l-1-1h3l1 1h1l2-1h1v1h2l-1 1 1 1V5l1 1h2l1 1v1h1V7v1-1h1l1 1h4V7h1l1 1h2l1 1v1h2l1 1h1l1-1 1 1h1l1-1h1v1h1v1h-1v1h1v1l-1 1-1 1h-1v1h-2v1h-1l-2 1-1 1h-1l-2 1h-1l-1 2v1h-1l-1 1v1l-1 2h-1v1l-1 1-1 1v4l1 1 1 1h1v1h-1v1h-2v1h-1v2h-1v1l-1 1v2h-3v1h-1l-1 1-1 1v2h-1v1h-1l-1-1-1 1H28l-1 1-1 1h-3v2l-2 1h-1l-1-1h-1v-1l-1-1v-1l-1-1v-1l-1-1h-1v-1h-4v-3l1-1v-2h2v-1h-1v-1h-1v-2l1-1v-1l1-1v-1h-1l-1-1v-1l-1-1v-1h3v-4h1v-5l-1-1h1v-1l1-1h1l1-1v-2h-2v-2h-3l-1 1H8v-1l-1 1H6v-1l1-1H4l-1 1H2v-1l1-1h1-2l1-1-1-1 1-1H1V8h1-1V7H0V5h1l1-1h1l2-1h1-1V2h1V1h1l1-1v1l1-1zm67 28v1l1 1-2-1h-1v-1h2zm-5 1h-1v1h1-1 2l-1 2v1l-1 1h-1v-1h-1v-1h-2v-1h1l1-1h1v-1h1zm-9 7h-1l-1 1h-1l1-1 1-1zm-1 2h-1z"/>
</svg>
