<svg xmlns="http://www.w3.org/2000/svg" viewBox="0 0 44 77">
  <path d="M31 0l1 1 1 1 1 1 1 1v1l-1 1v2l-1 1h1v1l-1 1v3l1 1h1l1 1 1 2v2l-2 3v2l1 1v2l1 1v1l1 2v1h-1v7h1v2l1 1 1 1v2l-1 1-1 1h1v1l1 1h1l1 1h1v1l1 1v1l-1 3-1 2-1 1-2 2v1l-1 1v1l-1 1-1 1-1 1v1h-1l-1 1-1 1v1l-1 1v1l-1 1h-2l1-1h2v-2h-1l-2 1h-3v1l-1-1v1h-3v1l-1-1v1h-1v1h-1v-1l-3 1h-1l-1 1v-1h1-1v-1l-1 1-1-1v-1h-1v-2l-1-1H7v-1l1-1H7v-2h1v-2l1-2-1-2v-7l2-3h2v-1l1-1v-1h1l1-1h-1v-1h1v1l1-1 1-1 1-1v-1l1-1 1-1v-1l2-1h1v-5l-1-1h-1l-1-1v3-5h-1v-1l-1-1 1-1 1-2v-1l-1-3v-2h-1 1v-4l-1-1v-1h-1l-1-1h-1v-1h-1V9h-1V8h-1V7l1-1 1-1 1 1 1 2v2h2v1h1l1-1V9l1 1h1v1h1l1-1V9h1V6h1V3h1l1-2h2V0h1zM21 38h1-1zM8 50h1v1l-1-1zM1 71h1l1 1v1H2h1v1H1v-1H0v-1h2l-1-1z"/>
</svg>
