<svg xmlns="http://www.w3.org/2000/svg" viewBox="0 0 77 54">
  <path d="M51 0l-1 1h-1l-1 1-1 1v1h-1v2h-1l-1 1h-1v1l-1 1v1h-1v1h2l1-1h1V8h1l1-1 1-1h1v2h-1v1h-1l1 1 1 1h-1v1-1h-4l-1 1h-5l1-1h-1v-1h-1l-1 1h-1v1h-1l-1 2v-1h1v1h-2v-1h-2v1h-1v1l-1 1v-1l-1-1v-1h-1v-1h-2v-2h1l1-1h-1 4V8v1h1V7h1v1-2h3V5h6-1V4h1V3h2V2v1-1h2V1h2v1h1V1v1h1V1h1l1-1zM35 1v1h-1V1zm17 5l-1 1h-1l1-1zM27 8h-2 1zm22 1v1h-1V9h1zM8 9l1 1-1 1-1 1H6l1-1 1-1zm44 1l1 1v1l-1 1v1h-1l-1 1-1 1h-1v-1l1-1v-1h1v-1l1-1 1-1zm4 1v1-1zm-2 0h1v1h-1v-1zm-33 1h-1zM6 13l-1 1v-1h1zm-1 1l-1 1v-1zm-1 1v1-1zm-1 1v1-1 1l-1 1-1 1 1-1v-1zm65 2v3-2l-1-1zm-28 2v1l-1 1v-2zM0 20h1v1H0v-1zm19 1l1 1v1h1v1h1v1h1l1 1h1v1h1l-1 1v2h1v1l-1 1 1 1v1h1v1h-1l-2 1h1l-1-1-1 1v-1h-1l-1 1v-1 1h-1l-1 1-1 1h-5l-1-1h-2l-3-1H6l-1-1H4v-1H3v-3h1v-1h1v-1h1v-1H5v-1h1v-1h1v-2h4v-1l1-1h1l-1 1h3l1-1h2v-1h1zm50 0h-1zm-4 2h-1zm-33 1v-1zm40 0h1l-1 1v-1zm-45 1v1-1zm6 1v1-1zm-3 1v1h-1v1l-1-1 1-1zm41 0h-1zm-43 1v1h1-1v-1zm34 0v1-1zm-26 1v1h-1v-1zm4 0v1-1zm-2 3l1 1-1 2v-1l-1-1v1-2zm28 0h1v1h-1v-1zm5 4v1h-1zm2 3h-1zm-55 1v1h-1v-1zm58 1zM9 42v1h1v1l-1-1v-1zm40 1h-1v1h1l-1 1-1-2h1zm26 2zm-1 3h-1zm-5 0l-1 1v-1zm-45 1v1-1zm29 1v1l-1-1v1-1zm15 0v1l-1-1h1zm-46 0h1v1-1h1v1h-1v1h-2v-1h-1l-1 1h-1v1h1l-1 1v-1l-1 1h-1l-1-1h1l1-1h1v-1l2-1h1zm52 3v1l-1-1zm-28 0v1h-1v-1zm31 0v1l-1-1zm-60 1zm60 0h-1z"/>
</svg>
