<svg xmlns="http://www.w3.org/2000/svg" viewBox="0 0 77 49">
  <path d="M2 0l1 1h1-2V0zm3 1h1v1H4l1-1zm4 1l1 1v1L9 3zm4 2h-1 1zm8 1h-2zM11 5h-1zm12 0zM11 6l-1 1H9h1V6h1zm19 1h1-1zm20 1h1l1 1 2 1 1 1h2l1 1 1-1h-1v1l-1-1h1v-1h3l1 1h1v1h1v1h-1 1v2l-1 1v-1h-2v-1h-1v-1 3h-1 1v1-1h2v2l-1 1h1v-1h1v1h1v-1 1h1v-1 2h-1 1v2l1-1v1-1l-1-1h2-1v-1h-1 1v-1h-2l1-1v-1l-1 1v1l-1-1v-1h1v-1l1-1v-1h4v-1l1 1h1v-1h2v1l1 1v2h1l1 1h-2l2 1h-4l-1-1h-1v1h-3l1 1 1 1h2l3 1h2v1h1-2l-2 1h4-1l-1 1-1 1h-2 2-3l-1 1h-4l-1-1v1h3v1h-3l-1 1h1v-1h1l1 1h-1v1h-1 1-2 1v1h-2l-1 1h-1l1-1h-2v1l-1-1h-2v1l-1-1h-2l-2-1h-1v-2 1h-1v1h1l1 1 1 1h1v1h-1v-1h-1l1 1h1l1 1 1-1 1 1h1v1h1l-1 1h-1v3h-1l1-1h-1v-1h-1l-1-1-1 1v-1h-1v1h1v1h-1l-1 1v-2l-1 1v-2h-2v-1 1l-1-1v-1h-1v1h-2l-1 1h1v-1l2 1h-1v1l1-1h1v2h-1 2v1h-1l-1 1h3l-1 1v1h1v2l-1-1h-1l-1-1h-2v-1h-1v-1h-1l-1-1v1h1-1l-1-1v1l1 1h-1v1h1v1-1h2-1v2h-1v1l1-1v2h1v1h-1l-1-1-1-1h-1v-2h-1v1h-1l1-1v-1h-2v-2 1-1h-1v-1l-1-1v-1h1l-1 1h1v1h2l-1-1h1l1-1h-1v-1h-1v-1h1l-1-1v-1l1 1h1v-1h-1v-1h2v-2 1h1-1l1-1h-1v-1h1l1-1v2h1v-3 1h1v-1l1-1v1-1l1-1v1h1v-1l1-1h1l1 1v3l-1 1h1v-1h1v-1l-1-1v-3h-1v-1h-1l-1-1v-1h1v-2l1 1v2h1v-1l-1-1v-1h3-2l-1-1v1-1h-1v-2h2v1-1h1v-1h1l2-1h-1v-1l-1-2V8h-1zm23 15h1zM30 8h2v1h-1V8zM16 8l1 1 1 1h-1l-1-1V8zm17 0h1l2 1h1v1h1V9h1l1 2h1-1v-1 1l-2 1h-1v-2h-3l-2-1 1-1zM23 9l1 1h3v1h1-1v2h-1v1h-1l-1-1v1h-2v-1h1v-2h1v1l1 1h1v-1h-1l-1-1-1-1-1-1zm6 1h1v2l-1-1h-1l-1-1h2zm4 1h1v1h1-1v1-1h-1v1-1h-1 2l-1-1zm-19 0v2l-1-1v-1zm21 0h1v1h-1v-1zm7 0l1 2h2l-1 1v1h1l-1 1-1 1h-2 1v2l-1 1v1l-1 1v-2l-1 1-1 1v-1l-1 1v1l1-1v1h-1v2h-1l-1 2h-1v1h-1v2l-1 2v1h-2l-1 1h-1v-1h-1v-1 2h-3l1-1-2 1h-1v1l1 1v1-2 2l-1 1-1 1h-1 1v1h-1v-1h-1v1-1h-1l-1-1h-1 1v1h1v2h-1v1h-1l-1 1v-1h-1v-1h1l-1-1h1-1v-1h-1l1-1h-3l1 1 1 1h1-3v-1h-1v-1H9v-1H8v-1H7v-1 2-1H6l1-1-1-1h1l1 1H7h3v1H9h1v1l1-1h-1v-1h2l1-1h-2v-2l1 1h2v1h-1 1v-1 2h1-1 1v-2h2l-1 1v1-1l1 1v-2h1l2-1v-1l-1 1h-3l-1-1h1l1 1h1l1-2v-1h-1v-1l1-1v-1h1v1-1h1v1h-1v1-1h1v1l-1 1h1v-1h1v-2l1-1v1h1v1-1l1-1-1-1h-3v2h-1v-1 1h-3l1 1h-1v-1h-1l-1-1v-2h1l1 1h1l1-1h5l2 1 2 1-1-1v-1h-2l-1-1-1-1h1-1l-1-1h-1l-1-1-2-1v-1h2v-1l-1-1h-3v-1h-1v-2h-1 2-1v-1l1 1h1l1 1h1l1 1 1 1 1 1 1 1h2v-1 1h2v-1h2-1l-1-1v-1h1v-1h1l-1 1h1v-1h2v1l1-1v1h-1 3l-1 1h-1 5l2-2v1h1-1l-1 1h-1l1 1v-1h3v-1h-1v-2h1v-1zm-2 9zm-1 1zm-19-9h1-1zm16 0l1 1h-1l-1 1v-1h1-1v-1zm-4 0v1h-1v-1zm3 1v1h-1v-1zm-1 0h-1zm3 1h-1 1zm-11 0h-1zm-13 1v1h1-1zm4 1h1v1h-1v-1zm1 3zm-8 0zm1 0zm1 0h1v1h-1l-1-1zm33 1zm-31 0v1l1 1-1 1v-2zm5 0v1h1-1zm2 1v1-1zM2 23h1v1H1v2-1l-1-1v-1h1v1l1-1zm37 2l-1 1 1-1zm-1 1v1h-1v1l-1-1h1v-1h1zm-28 0h1v1h-1v3l-1 1h1l-1 1h1-1v1H7l-1-1v-1H5v-2H4v-1h1v-1 1h1l1-1H6v-1h1v1l1-1v1h1v1H8v1H7v1H6h1l1-1h1v-1h1v-1l-1-1h1zm26 0v1-1zM4 26v1zm1 0v1zm0 1zm-3 0l1 1H2v1H1l-1-1h1v-1 1h1v-1zm1 2h1-1v1H2v-1h1zm34 0v1-1zM4 30v1H3v-1zm32 0h-1zm0 1zm-1 1v1h1-1v1-1h-1 1v-1zm26 0zm-51 1l1 1H8h1v-1h1zm51 0l1 1v1h-1l1 1v1h-1v-1 1-1h-1v-1h-1l1-1h2l-1-1h-1zm-25 0v1zm27 1zm-28 1h1-1zm-3 0h-1zm4 0zm12 2v-1zm10 1v1-1zm-26 0v1-1zm24 0v1l-1-1zm-44 1zm38 0h-1zm-17 0l1 1h1v2l-1 1v1l-1-1 1-1v-1l-1-1v-1zm20 0v2l-1 1h-2 1v-1h2v-2zM9 40zm4 1zm6 0h1-1zm0 1h-1zm16 2v1h-1v1l-1 1v-1h-1 1v-1l1-1h1zm1 2v1h-2l1-1zm13 3h-3 1zm3 0z"/>
</svg>
