<svg xmlns="http://www.w3.org/2000/svg" viewBox="0 0 49 77">
  <path d="M38 0h1l1 1v2l1 1v1l1 1v1-1l1 1h1v1l-1 1h-2l-1-1 1 1 1 1 1 1v2h-2l-1-1v-1l1 2 1 1v3h-2v-1l-1-1v-1h-1l1 1v3-1h-1l-1-2v-1l-1-1v-1h1l1 1V8l-1-2V3h1v1l1 1v1-4h-1l-1-1h1V0zm-8 2h1v1h1v2l1 2 1 3 1 1v3l-1-1-1-1v-2l-2-4-1-4zm4 0l1 1v2l1 1 1 2v2l1 1h-2v-1l-1-1-1-2V3zm13 1l1 1h1v2h-2l-1-1 1-1zM24 4l1 1 1 1h1v1h-1l-1 1v2l1-1 1-1h2v2h2l1 1v1h-2l1 1h2l2 1 1 1v2l-1-1h-2l-1-1v1l1 1 1 1h1l1 1 1 1h1-4 1v1h1v1l-1 1h-1v3l-1-1-1-2v-1h1v-2l-1-2-1-1-1-1-1-1 1 2 1 2 1 1v3h-1v-1h-1l-2-3-1-1h-1v1h1l1 1v1h-1v1h-1 3l1 2v2h-3 2v1h3v2l-1 1v1h1v1l1 1v2h-2v-1l-1-1-3-2-1-1v-2h-1l-1-1v-2l-1-1v-1l-1-1h-3v-1l-1-1v-1h-1l-1-1-1-1v-3l1-1V7h2l1 1h1v1l1 2 2 3v2l1 1 2 1-1-1-1-1v-1l-1-1-1-1v-3h-1V8h-1V6h2l1-1h1zm22 3h1v1l1 1h-2v1h1v2h-1l-1 1-1-1V9h1V8l1-1zM16 19h-1l2 1 1 1v1l1 1h2l1 2h-1v2h-2l-1-1v1l1 1h-2l-1 1-1-1h-1v-1h-2l-2-1v-1h3v-1h-2l-1-1H9l-1-1v-3l1 1h1l1 1h1v-2h2zM3 22h2v1h1v1H5l-1-1H0h1l1-1h1zm32 7v1l1 1v1l1 1v1l-1 1v-1l-1-2v-1l-1-1v-1zm-11 2h1v2-1h-1l-1-1v-1zm2 2l1 1 1 1v1-1h-1v-1h-1v-1zm-1 4h2l1 1h1l2 1 1 1h1v1h1v1l1 1h1v2h-1v3h1l-1 1v1l-1-1-1-1-1-2v-2l-1-1h-1v1l-1-1-1 1-1-1v-2l-1-2v-1l-1-1zm4 10h1l1 3h-1l-2-2v-1zm3 6v1l1 1-2-1zm-6 4h1v1l-1 1h2-1l-1 1v1h-1 4v1h1l2 1v1h1v1h-2l-1-1h-1l3 2 1 1v1h-1v1h1l1 1h-1l-1 1h-2 1v1h1l1-1v2h1l1 1v3h-1v-1h-2v-1l-1-1v-1l-1-1h-1v-1h-1v-1l-1-1v-3l-1-1v-1l-1-1v-2h-1v-4h1zm7 1l1 1h-1v-1z"/>
</svg>
