<svg xmlns="http://www.w3.org/2000/svg" viewBox="0 0 77 74">
  <path d="M37 0l1 1 1 1v1-1h1v1l1 1h1l1 1v1h2v1l1 1h-1l1 1h1l1-2h1v2l2 1v1l1 1h5l1 2h4l1 1 3 1-1 1h-1v4l-1 2v4h-2l-1 1v1l-1 1v1h-1v1l-1 1-1 1v3l-1 1h1l1-1h1l-1-1 2-1h1v3l1 1v1l-1 1 1 1v1l1 1-1 1h-1l-1 1 1 1 1 1h1l-1 1v3l2 1h2v3h-1v1h-1l-1 1h-1v1l-1 1v1h-2v1h-3v-1h-2v-1h-2l1-1h-1v-1 1l-1 1h-1l-2-1h-1v-1h-1l-2 2h-1l-1 1-1 1v2l-1 1v1h1v1h-2l-1 1h-1l-1-1h-2v-1h-1v-1h-3v-1h-3v1h-4v-1h-3v-1h-1l-2-1v-1h-1v1-2h-1l-1-1 2-2 1-6 1-2h1l-1-1-1 1 1-3v-4l1 2 1 1v2h2l-1-1-1-2v-1l-2-2h1v-2l-1-2 1-1h-2l-1-1h-1v-1l-1-1v-1h-1l1-1h1l-1-1-1-1h2l1 1 1-1h-2l-1-1-1 1h-1v-2l-1-1H9l-1-1v1-1H7l-1-1v1l-2-1v-1H2v1-1H1v-1H0h1l1-1-1-1h2-1v-1H0v-1h1l1-1h2v1l1-1h2v-1h1v1l2 1v1h1v-1h1l1 1v-1l1 1v-1l1 1h1l1-1-1-2v-3l-1-1v-2h3v3h4l1 1 1-1h2l1-1h-2l1-2 1-1h3l2-2h1V1l3-1zm-3 67zm42-6v4l1 2-1 1v3l-1 1h1-1v2-1h-1l-1-1v-1h-1l1-1h-1v-2h-1v-1h1v-1h-1l1-1 1-1h1v-1h1v-2z"/>
</svg>
