<svg xmlns="http://www.w3.org/2000/svg" viewBox="0 0 72 77">
  <path d="M36 0h4l3 1 2-1h2v1h10v1l-1 2v1h-1v5h1v3h-1 5v-1h3v-1h3v1l2-1v1h1v3h1l1 1v3l-1 1v1l-1 1h-2l-1 1v1l-1 1h-1v3h1v2h-1v2h3l1 1v1h3v1h1v2l-1 1 1 1-1 1v3h1v1l-1 1 1 1v1h-1 1v1h-1v1l1 1h-1v2h-1v1h-1v2l-1 1v1h1v1h-1l-1 1h-3v-1h1l-1-1v-1l-1-1h-1v1l-1 1-1 1-1 1v-1h-4l-1-1-1 1 1-1h-1v-1l-1-1v-1l-1-1v-1h-1v-1h-2l-1 1h-1l1 1v4l-3 1h-6v1l-1-1-1-1v6l-1 1h1v-1l1 1 1 2v1h-1v1l1 1h1l1 1-1 1v3h-2l-1-1-2-1-1 1h-1v1l-1 2-1 1-2-2-4-4v-2h-1l-4-5-5-3-1-1-1-1v-1h-1v-2l-1-1-1-1-1-1v-1H7h2v1h1v1h1l-1-1v-1l-1-1v1-1H8v1l-1-1v-2l-1-2-1-1-1-1v-1l-1-1v-1l-1-1v-2H1v-1l-1-1v-1h1v2h1v-1h1l1 1v1-2h1v-1l1-1v-1l1-1v-2l1-2v-3l-1-1 1-1v2h1v1h1v-1l1 1h1l1 1h1-1v-1h1v-1h1-3l-1-1h-1l-1-1-1-2H7l1-1h1v-1h1l1 1h-1 1v2-6l-1-1h23V1l1-1h2zM16 26h-1 1z"/>
</svg>
