<svg xmlns="http://www.w3.org/2000/svg" viewBox="0 0 47 77">
  <path d="M24 0h1v1l-1-1zm0 1l1 1v1-1h-1V1h-1v1-1zm-1 2h1l-1 1V3zm2 0v1zm-1 2v2l-1 1-1 1-1 1v1h-1v1h-2l1 1h2-2v1l-1 1v-1h2l-1 1h-1v1l2-1 1-1h9v2l-1 2v2h-1v2h-1v1l-1 1-1 1h-1 2v2h-1l-1 1h-3 1l2 1h1v-1h2l1 1 1 1v1h1l1 3 1 2v2l1 1v1l2 1h1l1 1v1l1 1v1l1 2 1 1h-2v-1l-1 1h-1 2l1 1 1 2v2l-1 1h1v1h1v-1h5l1 2v4l-1 1-1 1v-1 1h-1 1v1h-2v1l1-1-1 2h-3l1 1 1-1v1h4v2h-2v2h-2l-2 1h-1l-1-1h-1l-2 1h-1l-1-1h-1 1l-1 1h-3v1h-2l-1-1h-2l-1 1h-1v3h-1l-1-1h-4v1h-1v1l-1 1v-1h-2v-1h1l1-1 1-1 1-1 1-1v-2h2v-1l1-1h1l2 1h1v-1h1v-1l1-1 1-1 1-1h-1l-1 1v-3 3l-1 1h-1l-1 1-1-1h-1v-1h-1l-1 1v-1h-1v-1h-1l-1 1h-2v-1h1l-1-1 1-1h1l1-1h1v-1h1l1-1v-1l-1-1h1l-1-1v-1h-1l-1 1h-1l1-1 1-1v-1l-1-1 1-1 1 1h5v1-2h1l1 1h-1l-1-2 1-1v-1h-1v-1h1v-1l1-1h-2v1h-1v-2l-1-2v-2h1v-1h1v-1h-2v1h-1l-1 1h-1v-1h-1v2l-1-1-1-1h-1v1l1 1h-1v-1l-1-1v-1h1v1-2l1-1 1-2v-1h-1v-3h1l-1-1v-1 1-1l-1 1v2-1h-1v1l-1-1 1-2h1v-1 1h-1l-1 1v4l-1 1v2l-1-1 1-1v-6h1l-1-1v-1h1v-2h1v-1l1-1h-1v1l-2 2h-1l-1-1h2l-1-1-2 1v-1h2v-2h1v-1h-1 2-1v-1h1l-1-1 1-1-1 1v-1 1h-1v-2h2-1l-1-1h1v-1h-1v-1l1 1v-1h2-1 1l1 1-1-1v-1l-1-1h1l-1-1h2l-1-1 1-1V5l1 1h1-1v1h1V6h1v1l1-1h2l1-1 1 1V5zm-6 12l-1 1 1-1zm-1 10v1-1zm11 4v1l1-1zM9 7v2H8v2l-1 1H6v1H5l1-1v-1H5V9h2V8l2-1zm-4 7v1l-1 1v3-4H3v-1h1zm4 0v1h1l-1 1 1 1v1h2-1v1h-1 1v-1h-1v1-1H8v-1h1-1v-1 1H7v-2h1v1l1-1H8v-1zm0 5v1H8zm-6 1v1-1zm5 3H7h1zm2 1h1l1 1h-1 1l-1 1H9h1v-1H9h1v-1H9v-1zm-4 0v1-1zm6 4l-2 2v-1l1-1zm-3 0zm1 1v3H9v-2l-1 1v-1h1zm4 2v2h1-1l-1-1v-1zm-6 4l2 1v1l1 1v1h1-1v1h1l1 1v1l-1-1v2h-1v1l-1 1H9v-1l-1 1H7v-1l-1-1v-1H5v1l-1 1H2l-1-1v-1H0v-1h1l1 1v-1H1h1v-1H1h1v-1h1l1-1v-1h1l1-1h1v-1z"/>
</svg>
