<svg xmlns="http://www.w3.org/2000/svg" viewBox="0 0 61 77">
  <path d="M45 0v1h1l1 1 1 1h4l1-1h1l2-1 1 1h2v1h1v2l-1 1v2l1 1v3l1 1v8h-1v3l-1 4v4l1 2h1v1l-1-1h-4l-1 1v1l-1 1v4h1v1h-1v2h1v2l1 1v2h-2v4h-1v1h1-1l-1-1v2l-1 1v1h1-1v2h-1v1h-2 1v1l-1-1h-1l-1 1h2v1l-1 1h-2v1l1 1h-1v-1l-1 1-1-1h-1l1 1v1h-1v1h-1v-1h-2 1v1h-1v2-1l-1-1v-1h-1v1h-1v2l-1-1h-5v-1l-1 1v1h2l1 1v1h-1l-1-1h-1l-1-1h1l-1-1h-1l-1 1h2v1l2 2h-1l1 1h-1v1l-1 1v-3l-1-1-1-2h-1l-1-1v2h1l1 1v2l-1-1h-2v-1l-1-1h-1l-1-1-1-1v2h1v1h-1v1h-1v1l-1 1v-3h-2v5l-1-1v1l-1 1v-4h1l-1-1h-1v-1l-1 1v3-2H9v1l-1-1v-1H6l-1 1H4l-1-1H0l1-1h1v-1h3v-1h1l1-1 1-1h1v-1l-1-1h1v1h3v-1h2v-2l1-1v-3h2l-1-1v-1l-1 1h-1l1-1v-1l-1-2v-1l1-1v-3h-1l-1-1v-1h-1v-1l1 1v-2h1v-2h1v-2l1-1v-1h2-1v-2l-1-1-1-1h1v-2l1-1v-1h1v-3h1l1-1v-1l1-1v-1l1-2v-1l1-1 1-1v-3l1-1 1-1 1-1h2l1-1 1-1 1-2V8h2V6l2-1h1l1-1h1V3h1V2h1l1-1V0h2zM20 71v2l1-1v1l-1 1h-1v-2h1zm4 2v3l-1-1v-2z"/>
</svg>
