<svg xmlns="http://www.w3.org/2000/svg" viewBox="0 0 77 39">
  <path d="M2 0h2l1 1h3l1 1 1 1h2l1 1h3v1h1v1h4l1 1h1l1-1h3l1 1h4l1 1 1 1 1 1 2 1h2v1l2 1h2v1l-1 1v1h5v-1l1-1h2l2-1 1 1 1 1v1-1l1-1h4v1h1v1l1 1h1l1-1 2 1v2l-1 2v1h1l1 1h1l1 1h1v1h3l1 1h1l-1 1v1l-1 1h-1v2h1v2h1l1 1h1l1 1h1v2l-1 1-1 1h-2l-1-1-1-1h-1l-2 1-3-2v-1h1-1l-2-1h-2l-3 1-2 2v-1h-1v1h-2l-1 1h-2v-1l-1 1-1-1h-1v1h-3l-1 1h-4v-1h-3v-1h-1l1-1h-1l-1-1-1-1v-1h-2l1-1h-3v1h-1v1h-2v-1h-5l-1 1-1-1h-2v-2h1l1-2v-1l1-1-1-3-1-1v-3l-1-1v-1l-1-4-1-1h-2l-1-1-1-2h-1V9L9 8H6L5 7H3V4H1L0 3V2l1-1 1-1z"/>
</svg>
