<svg xmlns="http://www.w3.org/2000/svg" viewBox="0 0 58 77">
  <path d="M13 0h1l1 1 1 1h2l1 1 1 1h1l1 1h4v1h4l2 1 1 1 1 1v1l2 2 3 2 3 2 2 2h1l3 3 2 1 1 2v2l1 1v-4l1 1 2 1v2l1 1v1h1l-1 1 1 2 1 1v3l-1 1h-1l-1 1v2l-2 2-1 1-1 1v1l-4 6-1 2-1 1v1h-1v3l-1 2v1l-1 1-1 1v1l-1 1v3h-1v2l-1 1-1 1-2 1-1 1-1 1-1 1h-2l-1-1h-2l-1-1h-4v-1h-3l-3 1v-1l-1-1h-1v1h-1l-1 1-1 1h-1v1H9v1H8l-1-1H5l-2-1H1l-1-1v-1h1v-3h1l1-2 1-2 1-1 1-1 1-1v-7H6v-1h1v-2h1v-1h1v-2h1v-2l1-2v-1H9v-1l-1-2H7v-1l-1-1H5l-1-2v-1l-1-1 1-1v-1H3v-4H2v-7l-1-1v-5l1-2 1-1 1-2 1-1 2-2 1-1V7l1-1 1-2 2-4z"/>
</svg>
