<svg xmlns="http://www.w3.org/2000/svg" viewBox="0 0 77 63">
  <path d="M70 0v2h1l1 1h1V2h2l1 2v3l1 1v2l-1 2v2h1-2v-1h-1v4h-1v1h-1v1h1l1 1-1 2h-3l-2 1h-3v1h-1v1l-1 1-1 2v3h1l1 1 1 1v2l1 1h-1v-1 1h-1l-1-1v2h1l1 1 1-1h1-1v2l-1-1h-2l-1 1 1 1 1 1v2h1-2v7h-1v1l1 1v2h1-1v1h1v1l1 1v2h-1v-1 3h-2l-1 1h-1v-1h-1v-1l1-1v-1l1-1h-3l-1-1-1 1v1h-2v1h-1l-1-1v1l1 1v1h-2v1l-1 1v1-1h-1v-2l-1-1v-1l-1-1h-1 1-4v1-1l-1-1h-1v3h-1v-1 1h-1l-1 1-1-1v3l-1-1-1-1h-2v1h-1v-1h-3l-1 1h-1v-1h-2l-2-1h-2v-1h-2v-1h-2v1l-1-1h-2v-1l-1-1v1h-1v-1 1l-1 1H5v-1H4v1l-1-1-1-1-1-1-1-2v-2l1-1v-1h1v1h2v-1l1 1v1h2l2-2v-2h1l1-2v-5l-1-1v-2H7v-3h1l1 1h1l2-1v-1h3l2 1h1v-1l1-2 1-1v-2h1v1h1v1l2 1h2l1-1h1l2-2v-1l-1-2-1-1-1-1h1l1 1 1-1 1 1 1 1v-2h3l1-1h1l1-2v-2l1-1v-1h-2v-1h-1l-1 1 1-2h3l1 1v-1l1 1h1v-2h2v-1l-1-1h1v-1h1l1 1V9l1-1h1v1-1h1l1 1h2V8l1-1h1v3h1l1 2h2V8h1V4h-1V3h-2V2h2V1h6V0v1l-1 1v1l1 1h4V2h1V0z"/>
</svg>
