<svg xmlns="http://www.w3.org/2000/svg" viewBox="0 0 53 77">
  <path d="M36 0h1v1h2v2l-1 1v2l1 1h1v1h1v1h1v1h1v7l-1 1h1v1h-2l1 1h-1 4v3l-1 1v2l1 1-1 1h-1l1 2v1h2v1l1 1v1l-1 1v7h-1v3h2l-1 1v3l-1 1v2h1l1 1v2l2 2 1 1h1v1h1l1 1v1l-2 1v2h-4v-1h-1l1 1h-4l-1 1h-2l-1 1-3 1-1 1h-1l-1 1h-1l-2 1-1 1h-3l-2 1-2 1h-3v1l-1 1h-1l-1 1h-1l-1 1-1-1h-1v-1l-2-1H8l-3-1H3l-2-1h4l1-1-1-1v-1h1v-2l-1-1H3v-3l-1-1v-1l-1-2v-1l-1-2v-4l1-2 1-1 1-1v-1l1-1H3l1-1v-4l1-1v-1l1-1h1l1-1v-2h1v-3l-1-4v-2l-1-1H6v-1l1-1v-4H6v-3h1l-1-1v-5H5l1-1V8H5V7L4 6h1V3h1V2h14l1-1 1 1h9v1l1-1h1V1h2V0z"/>
</svg>
