<svg xmlns="http://www.w3.org/2000/svg" viewBox="0 0 36 77">
  <path d="M27 0l9 4v7l-1 5v8l-1 1v8h1l-1 1v4l-1 1v4l1 2 1 2v1l-1 1v2h1l-1 3h-1v2l-1 1v4l1 1-1 1v1h-1v4l-1 1v1l-1 1v4l-1 1h-1v1h-1v-1h-2l-1-1-1-1-1-1v-4l1-1v-3h-1v-3h-1v-3l-1-1h-1v-1l-1-1h-1 1l1-1v-1h-2v-1l-1-1-1-1v-1l-3-2-5-8-4-4v-1h1l9 13h1l1-1h1v-1h1l-1-3-1-4 1-1h1v-1h-1v-1h-2l1 1h-1v-1h-1 1l1-1h1v-2l-1-2v-1l-2-2h-1l1 3h-1l-1-3 1-1h2v-1l1-1h-1l-1-1v-4h-1 1v-1h-1l1-1h1l1-1v-2l-1-1v-1l-1 1v1h-1l-1-1h1v-1l-1-1H7v2-1l-1-1v1H5v-1H4v1-1H3v1-1H2v1H1v-1 6l-1 1v-8h8l1 1h4l-1-1h-1l-1-1 3 1 3 3v1h1v-1l1-1v-1l1-1V8h-8V5h1v1h9V3l-1-2 3-1z"/>
</svg>
