<svg xmlns="http://www.w3.org/2000/svg" viewBox="0 0 41 77">
  <path d="M25 0h2v1h-1l-1 1h-1 1l2-1h1v1h2v2h-2l-2 1-1 1h1l1-1h2v1h-1 1V5l1-1 1 2-1 2v1l1-1V5l1 1 1-1V4v1-1h2v3h-1v1h-1 2l-1 1-1 1v1-1h1v3h1v1h-1v2h1-1v2-1h2v1h-1 1-1 2v2h-2l1 1v1h1l1 1v2h-1v1h1v1h1v-1 2h-1v-1 1h1-1v1h-1 1l1 1v1h-1l-1 1-1-1-1-1v2h2-1 1v1h-1 1l1-1v1h-1l1 1h1-1v1h1-2l-1-1v-1h1-2v1h-1 1l1 1h-1 2l1 1h1-1l1 1v-1 1-1 2-1h1v2h1v1h-1v-1 1l-1 1v-1l-1-1h-1v-1h-3v-1h-1l1 1h2v1h1-1v1h1l-1 1h-1l-1 1v-1h1v-1h1-2v2h-1 3-1l-1 1h1v-1h2v-1 1h3l1-1-1 1v1h-1v2h-1v1l-1 1h-1v1h-1l-1 1h-2v1h-1l-1-1v-1 1l1 1v1h-1l-1 1v2l-1 2h-1v1h-1v1-1l-1 1h-1v-1l1-1h-1v1l-1 1h-1v1h-1v1h-1v6h-1v1h-1l-1 1h1v3h-1v1l-1 2v1l-1 1v1h-1l-1-1v-1h-1l-1-1-1-1H8v-1l-1-1v-2H6v-2H5h1v-1H5v-4l-1-1v-2h1l-1-1v-3H3l1-1 1-1H4v-4h1v-1h1v-1H5h2-1 2v-1l1-1v-2H8v-1l-1-1-1-1h1l1 1 1 1v-2h1-1 1l-1-1v-1l-1 1v-1h1-1 1v-1H7v1H6v-2l1-1H6v-1h1-1v-1h1V23H6v-2H5v-1H4v1-1H3v1-1H2v-1 1-1l-1 1-1-2h2l-1-1v-1H0l1-1 1 1v-1l1 1h1v-1H2v-1H1h1v-1l-1-1v-1h6l1-1V9L7 8l1-1h1l1-1h2V4h1v1-1h3l-1 1v1l1-1 1 1v1-3h1v1l1 1V4l-1-1h1v1l1 1V3h1-2V2h1l1-1v1-1h2l1-1h1zm-9 4v1-1zM6 41v1h1l1 1v1l-2 1-1-1h1-1v-3z"/>
</svg>
