<svg xmlns="http://www.w3.org/2000/svg" viewBox="0 0 77 63">
  <path d="M15 0h5l1 1h1v1h2l1 1h2l1 1h3l2-1h2v1l1-1h3v2l-1 1 1 1 1 1 1 1V8h1V7l1-1h1V5l2 2v2h2V8l1-1h1V6l3 1h1l3 1v1l1-1V7h1l1-1h2V5l-1-1h3l1 1 1 1h-1v2l1 1 1 1-1 2v1h2v2l2 1 1 1-1 1h-2v2h-1l1 1 1-1h2l1 1-1 1v2l1 3h1l1 1h1l-1 1v2h-1v3l-1 2 1 2h1l1 1v2h-1l1 1h1v1h-1v1h-1v1h1l1 1 1 1v3h-1l-1-1v1h-1v-1h-3v3h2v1l-1 2v1l-2 4v-1l-2-1v1h-1v-1h-2v2l-1 1-1 1v1h-2l-1-1-1-1h-1v-1l-1 1v-2l1-1v-2h-1v-5h-1v-2h-1 1-1v-1l-1-1v1h-5l-2 1h-3l1-1v-1h1l1-1v-1l-1-1v-3h-1v-3h-1v-2h-1v-1l-1-1-1-1v-1l-1-1-1-1h-7v1h-1l-1 1-1-1-3 1-1 1v1h-1v1l-1 1v1h-1v1h-2l-1 2h-1v-1 1h-1v-1h1v-2l-1 1v1-3 1h-1v-2l-1 1v-1l-1-1h-1v1-1l1-1v-1h-1v-1l1-1h-1v1h-1l-2-2v-2 1H9l-1-1v1-1H7l-1-1-1-1v-2l-1 1v-2l1-1v-1h1v-1l-1 1-1 2v-2l-1 1v-3h1l1-1H4v-1 1H3l-1 1v-1 2H1v1H0v-1l1-1 1-1 1-2 2-3h2l2-1h4l1-1v1h1V7l-1-1h-1V5l1-1v1l1-1 1-1V2l-1-2z"/>
</svg>
