<svg xmlns="http://www.w3.org/2000/svg" viewBox="0 0 77 65">
  <path d="M33 0v1h2v1l1 1h1l1 1v2l1 1v3h-1v3h1l1 2 3 2h1v1l1-1h1l1 1v-1l1 1h2v1h1l1 1 1 1v1l3 2 1 1h3v1l-1-1h-9l-2 1h-5l-2 1v1h-3l-1 1h-2l-1 1h-2l-2-1h-1l-1-1v1h-1l-1-1v-2l-1-1h-1l1 1v2l-1-1h-2l-1 1v4h1l-1 1v1h1v2h1l1 1h-1v2l1 1v4l-1 2v1h-1v1l-2 1h-1v1l-1 1v1h-3v1h-1l-2 1h-2l-1-1v-2l-3-3-2-3v-5l-1-1 1-2-1-1v-4H2v-5l-1-1v-1H0v-2l1-1v-4l1-1 1-1 1-1h4l1 1 1 1 2 1h1v1h1l1-1v1h1v1h4l-1 1-1 1v-1l-1 1 1 1 1-1v1h-1 2v1h1v-1l1-1h2v-1h1v-1l1-1v-2h1v-1h2l1-1-1-1 1-1-1-1h-1 1l-2-1v-1h-1V5h1l1-1 1-1 1-1 1-1 1-1h1zM21 15l1 1h-1zm55 1l1 1-1 1-3 1h-1l-2 1-1 1h-1v-1l1-1h1l1-1h1l2-1v-1h2zM51 49h1l2 1 1 1v1l1 1 1 1 1 1v3l-1 1h-1v1l-2 1-1 1h-3l-1-1-2-1h-1v-2l-1-2v-1l1-1 1-1v-2h1v-1h1l1-1h1zM22 61h1v1h-1v1h-3l1-1h1v-1h1zm-2 0h1-1zm-4 1h2v1l-1 1v1l-1-1h-1v-1l1-1zm5 3h-1z"/>
</svg>
