<svg xmlns="http://www.w3.org/2000/svg" viewBox="0 0 72 77">
  <path d="M55 0h2l1 1v1h1v3h-2v1l-1 1 1 1v1h-1v1h-1v1h-1l-1-1h-4l-1-1h-2V8l-1 1-1 1h-2V9h-2v1l-1 1h-5v1h1l1 1v1h-1l1 1h1v-1 1h1l1 1 1 1v1h-1v-1l-1-1h-1l-1-1h-1v1h-1l1 1 1 1h1v2h-1l-1-1v-1l-1-1h-1l-1-1v2l2 2h1-4 1v-1h-1v-2h-1l-2-1v-1h-1v-1h1v-2l-1 1h-1v1-1 1h-1v5l1 1v1h1v2l1 1 1 1 1 1 1 1v2h-1v1h-1v-1 1l1-1v-1l-1-1h-1v1h-1v1h1v2l1-1v1l-1 1h-3v1h2l1 1h1v1h1v-1 1h1v1h2v1-2h-1v-1h-1l-1-1h-1v-1h-1v1h-1v-1h2v-1h1l1-1 1 1v1l1 1h1l1 1h1v1l1-1 1 1v1h1v1l-1 1h1v2h3v2h-1v1-1h-2v-1h-1v-2h-1v-1h-3v-1h-1l1 1h1l1 1h1v7l-1-1v-1h-1l-1-1-1-1h-1 1v1h-1 1l-1-1h-1l-1 1h-2v1h2v3h1v-1h1v2-1h1v1l-1 1h-1v1l-1-1v1h-1v-2h-1v-1l-1 1v-1h-1v1l1 1v3h1v2l1 1v3l1 1v1h-1v-1h-1v-1l-1-1v-1h-2l-1 1h1-1v3l-1-1v-2l-1-1v-1l-1-1v-1h-1l-1 1v2h-1l-1-1v-2h-1v-1l1-1v-3l-1-1-1-1h-1v-2h-1l-1-1h1l1-1v-1l1-1h2l1-1v-1h2v1h1v1h2l1 1h1l2 1h1-1l1-1h2v-1h-3v-1h-1v-1h-1v1l-1-1v-1h-1v1h-7v1l-1-1v-1h-1v1h-1v1l-1-1v-2l-1-1v-1l-1-1-1 1v-1 2l1-1v2-1H8v-1l1-1v-1h1v-1l1 1h2v-1l-1-1v1h-1l-1-1v1H9v-1l-2-2-1-1H5v-2H4v-1l-1-1h1l1 1v-1l1-1v-2l1-1h1l1-1v-2l1-1v-1h1l1-1v-3 1h1l-1-1h3V9l1 1 1-1h1l1-1 1-1h5V6h1v1-1l1-1h3V4h5l1-1h1l1-1h1v1l1-1h1l1 1v1h4v1h1l1 1 1-1h5V4h1V1h-1l1-1zM43 11v2h-1v-1h-1v-1h1zm6 8v1l-1 1v1l-1-1v1l-1-1v-1h2v-1h1zM2 22v3l1 1h1v1l-1-1H2v-1l-1-1v-1H0v-1h2zm43 3zm12 1v2h1v1l1 1v1l-1-1v-1 2h-3v-1l1-1v-1h-1v1l-1 1-1-1-1-1h2v-1h2v-1zm-21 2v1-1zM5 28v1H4v-1zm29 1h1v1h-1v-1l-1-1zm-1 0h-1zm8 2l1 1v1h1-2v-2zm9 5v-1zm3-1h1v1h1v3l-1 1-1-1 1-1-1-1-1-1 1-1zm-3 1zm6 0h-1zM9 37v1l-1-1h1zm-1 0v2h1l1 1v1H7v-2 1H6v-2h1v1-1h1v-1zm1 1v1-1zm34 4h1v1h1v2h-1v-1l-1-1v-1zM9 43l1 1h1v2-1h-1v1l-1-1v-1H8l1-1zm51 1h1l1 1h1-1v1h-2v-1l-1 1v-1l1-1zm-27 1l-1 1v-1zm-2 0v1-1zm26 1h-1l-1 1-1 1-1-1h1l1-1h1zm-18 0h1v1h-1v-1zm6 0h2v1h-1v-1h-1zm-1 2h1v1h-1v-1zm4 0h1l-1 1v-1zm-8 0h1v1l-1 1v-2zm18 1h1v1h-1 1-1zm-25 0v1h-1l1-1zm-4 1l1 1-1-1zm12 1v1h-1l1-1zm20 0v1l-1-1zm-11 0v3h-1v-1h-1v-1h1v-1zm-3 1h1v1h-1v1-1h-1v-1h1zm14 1v-1l1 1h1l-1 1-1-1h1-1zm-19 0h1v1h-1v-1zm4 0v1-1zm-1 1zm9 0l-1 1-1 1v-1 1-1h1v-1h1zm11 0v1l-1 1h-1l-1 1-1-1h1v-1h1l1-1zm-23 1v1l-1 1h-2l1-1v1-1h1v-1zm0 1zm6 0l1 1h-1v-1zm-1 1h-1 1zm-3 0l1 1h-1v-1zm25 0v2-2zm-12 0l1 1h-1v1l-1-1h1v-1zm7 1h-1zm-15 2v1-1l-1-1zm16-1l1 1h-1v-1zm-17 1v-1 1zm24 0v3h-1v1l-1 1-1 1h-1v-1l1-1-1-1 1-1v-1h1l1-1h1zm-20 0v1h-1l1-1zm-24 1h1v2h-1v-2h-1l1-1zm39 1zm-3 4v5h-1v-4h1v-1zm-29 2v2h2v-1h1v1h-1l1 1h1v-1 2h2l1-1h4v1h6l-1 1v1l1 1v-1h2v-1h1v1l1-1v-1 3l-1 1h-1v-1l-1 1h-7l-1 1h-2v-2h-1l-1-1h-4v-1h-4v-4h1v1-2zm27 3l-1 1 1-1z"/>
</svg>
