<svg xmlns="http://www.w3.org/2000/svg" viewBox="0 0 77 53">
  <path d="M10 0v1h2l-1 1h4v1h3V2h1V1h3v1h-2v2h-1l-1 1h8v1l1 1V5h2V4h1v1h1v1h-1v2l-1 1h2V8l1-1V6h1l1-1v1h1V5h1v2h-1l-1 1-1 1h2V8h1l1-1V6h2v1h2v3h1V8h4v1h2-1v1h-2 1-1v1h2-1v1h-1 1v1l1-1 1-1h2v1h2v1h-3v1h-1v1h-1v1l-1-1h-1v1h1v2h1l1-1v1l1-1 1-1h1v-1l1 1v-1l1 1v2h-1v1h1l-1 1v3l1-1v-1l1-1h1v1l1 1v1h1v-1h1l-1-1v-1l-1-1v-3l1 1h2v2l1-1v2h1l-1 1 1 1h1-1v1h-1v1h3v4h2v1h3v2h1l-1 1h-2v3l1-1 1 1v-1l1 1v1l1-1h1v-1h1v-1h1v1h-1v3h-1v2h1v3h-2l1 1h1v1h2v1h1v1h1v1h-1v1h-3v1h-3v-1h-1v-1h-1l-2-1v1h1v1h1l1 1h-2 3v1h-2 1v1l1-1h1l1 1v1l-1-1v2h-1v-2 2h-1v-1h-1v1l-1-1v1h-1v-1h1l-1-1v1-1h-1l-1-1v-1h-2v-1h-1v-2h-1v-2h-1l1-1h-1v-2h-1v-2h-1v-1l-1-1v-1h-1v-1h-1l-1-1h1v-2h-1v-1h1-2l-1-1v1h-2l-1 1v-2h-2v-1h-2v-1h-2l1-1v-1h1v-1h-2v-1h-2v-1h-1 1l1-1h-1l-1-1h-1v1h-3l-1-1h-1v-1h-1 1v-2h-2v-1h-2v-1l-1-1v1h-1l-1 1h-2v1-1h-2v-1h3v-1h1-1l-1-1h-1v-1h-1v-1h2v-1h4v-1h-8V9h-1v1h-1l-1-1v1l1 1h-1v1h-4v-1l-1-1h-1l1-1h1l1-1h-3V7l1-1h2V5h1V4h-4L9 5 8 4v1H7V4H4v1L3 4H2L1 5h1-2V4h1V3L0 2h1v1h1V2h4v1l1-1h3V1H9V0h1zm22 29h1l1 1v1h-2 1v-1h-2v-1h1zm44 19h1v1h-1l-1-1h1z"/>
</svg>
