<svg xmlns="http://www.w3.org/2000/svg" viewBox="0 0 62 77">
  <path d="M45 0l2 1 1 1 1 1 1 1v1l1 1h1l1 2v1l3 1h6v2l-1 1v2l-1 1-1 1v3l-1 1v1l-1 2-1 1-2 1h-1v1h-2v1h-1v2h-1l-1 1h-1l-1 1-1 1-1 1v1h-1v1h-2v1h-1v1h-1l-1 1v1h-2l-1 2v1h-4v1h-1l1 1v1h-1v2l-1 1h-1l1 1v2l-1 1v6h-1v1h1v7l-1 1v1l-1 1-1 1h-1v1h-1l-1 1h1v1h-1l-1 1v1h-1l-1 1v-1h-1l-1 1h-2l-2-1-1-1h-1l-1-1-1-1-1-1v-3l-1-1 1-1H7v-2H6v-1h1v-1H6v-2l-1-1H4l-1-1 1-1 1-1v-1l1-1v-4l1-1 1-1v-2l-1-2H5v-1H4l-1-2-1-1H1v-1H0v-1h2l2 1h3-1 2v3l1 1h1-1l1-1v-2H9v-2h2v1l1-1v-2h-2v1l-1-1v1-1h1l2-1h1-5v1-1H4l-1 1H1v1l1-1 1-1h3l2-1 1 1h2l1-1h4v-2h1v1l2-1h6v-1 1h2l1-1 1-1-1-1v-1l1-1h4l1-2 1-1h-1v-3l1-1v-1l1-1v-1l1-1v-1l1-1h1v-2h1V5l2-3h1l1-2z"/>
</svg>
