<svg xmlns="http://www.w3.org/2000/svg" viewBox="0 0 77 50">
  <path d="M75 0v1l1 3v1l1 2h-1v4l-1 1-1 1v-1h-1v1l-1-1h-1v1h-2v2h1l1 1v1h1v1h1l1 1h1v1l-1 1v7l-2 1v-1h-1v-1 1l-1 1h-1l-1 1h-1l-1-1-1 1h-1l-1-1h-3l-1 1v1l-2 1-2 1v1h-5l-2 2-1 3-5 10-1 1h-2l1-1-1 1h-1v-2l1-2v-1h1v-1h1v1h1v-1h-1v-1h3-2v-1h2v-1l-1 1 1-1h-1v-2h-1v1l1 1v1l-1-1-1-1v1h1v1h-1v1l-1 1v-1l-1 1v-1l1 1h-1v1h-1v1h-3l1-1v-3h1v-3 2l-2 1h-1v-1h-1l-1-1v1h-1v-2l1-1v-1l1 1 1-1 1-2-1 1v1l-1 1v-1h-1l1-2h1v-1l-1 1-1 1v1h-1v1h-1l-1 1h-1l1-1v-3h1v-1h2-1v-1h2v-1 1-1h1v1-1h-1l1-1 1 1v-1h-1v-1l1 1v-1 1h1v-1 2l1-1-1-1h2v1h1l-1 1v1l1-1h3v-1h-2v-1l-1 1v-1h-1 1v-1l-1 1-1-1h1v-1 1-1l-1 1h-1v1h-1l1-1v-2h1v1-1h-1v1l-1 1v-2 1h-1v2-1 1l-1-1v2l-1-1 1 1h-1v1l-1-1v1h-1 1v1h-1v-3h1v-1l-1 1h-1v-2h1-1l-1 1v-2l2-3h1l1-1h6l2-1v-1l1 1-1 1v2l1 1h1l1 1 1-1h-2l-1-1-1-1 1-1v-2h2l-1-1h-3l-1 1-1 1h-3v-1h-4l-1 1-1 1-1 1h-1v1h-2l-1 1h-1v1h-1v-2l1-1v-1l1 1v-1h-2v2l-1 1h-1v-1h1v-1h-1l1 1-1 1v1h-2l1-2v-2h1l1-1v-1l1-1h2l1 1v-2 1h-1v-1h-3v-1 2h-2 1-2v-1l1-1h-1v2h1v2h-3l-1 1h-1l-1-1-2-1-1-1H8v-1l-1-1v-1l1-1v-1l2-1v1-2h1l1-1h1l1-1 1-1h3l1 1 1 1 2 1h-1v-1h-1l-1-1-1-1h-4l-1 1v-1 1h-2v-1h1-1v1l-1 2-1 1-1-1 1-1v-1 1l-1 1v1H7v-1H6v1h1-3v-1l-2-1v-1H1l-1-1V9l1 1 2-1h5l1-1 2-1V6h5l1 1h9l3-1V5l3-1 2-2 2-1 2-1zM24 19h1-1zm1 0l1 1v-1h-1zm1 1zm12 17v2h-1 1v-2zM9 21l1 1 1 1h1l-1 1H8l1-3v-1zm8 2l-1 1v1l-1 1-1 1v-1h-1v-1h-1v-2h4zm15 18h1l1 1-1 1v1h-1v-1l-1-2h1zm2 1h1v3h-2v-1l1-1v-1zm3 4v1l-1 1-1 1v-2l1-1z"/>
</svg>
