<svg xmlns="http://www.w3.org/2000/svg" viewBox="0 0 53 77">
  <path d="M15 1l1 1V1l2 1 2 1 1 1 1 1h2v1h1l1 1 1 2h1l1 1 1 2v5h-1v5-2l1-1v-1l2-1h4v1l1 1 1 1 1 1 1 1 1 1v-1l2 1v1l2 2v2l-1 1v3l-1 1v1h1v1h-1v1h1-1l-1 1h-4l-1 1v2h1l-1 2v1h-1v2h-1v2l1 1h1v1l1 1v1l1 1h1v2h4v2l1 2v2h1v1l1 1v1l1 1v1h1v1l1 1v1h1l1 1h1-3l-1 1-1-1h-2v-1l-1 1h-2l-1 1v1h-1l-1 1-1-1-1 1h-2v2h-1v-1h-3v1h-1v2h-3l-1 1v-1h-2l-2-1-1-1v-1h-1v-1h-1l-1-1h-1l1-1h-2l1-1v-3l-1-1-1-1-1-2v-4l1-1v-2l1-2-1-1 1-1h1v-1l1-1 1-1h-1v-2h-1v-3h-2l-1-1h-2l1-1v-1l1-1v-3l-1-1h-1v-1h-1l-1 1H7l-7-8h1v-1l1-1h1v-1H2v-4l1-1h2v-1h1l1 1v-1h1l1-1h1v-1h1v-2h-1l-1 1-1-1H7l1-1v-1H7v-2l1-1V8h2l1-1 1-1V5h1l1-1 1-1h1V2l-1-1-1-1z"/>
</svg>
