<svg xmlns="http://www.w3.org/2000/svg" viewBox="0 0 77 59">
  <path d="M44 0h1l1 1h6v1l-1 1-1 1v1h2l1-1 1-1V2h3l-1 1h1v1h1l-1 1h2v1h1V5v1l-1 1V6v2h3v1h2l1-1h2l-2 2-1 1h-1l-1 1-2 1-1 1h-1l-1 1v-1l1-1h1l1-1 1-1h-1v-1h-2l-1 1h-1l-1-1-1-1v3l-1 1h-3l-1 2h1-2v1h-3l1 1 1 1 3 1 1 1v3l-2 2-1 2 3-4 1-2 1-1 1-1v-1h1v1h3l1 2h1v-1h1v-1l-1-1v-2h1v-1h2l1-2h1v-1l1 1h1l-1 1h2v-2 1l1 1v1h-1v-1 3l-1 1v1h1l1-1v2h1v-4l1-1h1v2h-1l1 1h3l1 1v2l1 1h-1l-1-1h-1l-1 1v1l-1 1h1l1 1 1 2h-1l1 1v1h-1v-1l-1-1v2h-1v-1h-1v-1h1v-1l-1 1v-1h-2l-1-1v1-1h-1v2h1v1h1l1 1h1l1 1h1-1v1-1h-1v1h-1v2-1l-1-1h-2l1-1h-1v-3h-1l-1-1v-2l-2 1v1h-1v-1h-1l-1-1-1 1v1h-1v2l1 1v2l-1-1v-1 1-2h-1l-1 1v1l1 1h1l-1 1 1 1 1 2h2v2h2v1l1 1-1 1h-2v1l1 1 1-1v1h-1l1 1v1l-1-1v1l-2-1-1 1v-1l-1-1v-2h1l-1-1v-1h-2l-1 3-1-1-1-1h1-1l-1-2-1-1h-2v-1l1 1 1 2-1-1-2-2v2l-1 1-1 1h-2l-1-1v1-3l-1-2h-1v1h1l-1 1h-1l-2-1 2-1h-1v-2h-1v-1h-1v-2l-1-1h-4l-1 1h-3l-1 1h-3l-1-1h-2l-1-1-1-1-1-1v1h-1 1v1h-3v1h-3l-1-1-1-1v-4H8l2-3h1l3-1v-1l2-2h1l2-2 1-2v-1l2-1 1 1-1 1v1h1v-1h1l1 1v2h1l-1-1v-1h1l1 2 2 2-1-1v-1l-2-2-1-1 1-1V8h3l1-1h2l1-1V5l1-1h2l1 1V4h1V3h3l1-1V1h1V0zm17 1h2l1 1h-2l1 1v1-1 1h-2V3h1l-1-1V1zm4 3v1h-1V4h1zm-1 1l1 1v1h-1v1h-2V7h1l1-1V5zm7 3v1h-1zm0 3v3-1l-1-1v-1zm-15 4h1l-1 1h-1l1-1zm-3 0v1-1zm10 12h-1zm1 0l1 1v2h1v1l-1 1h-1v-1 1l-1-2v-3h1zm1 0h1v1-1l-1 1v-1zm-4 1h1v2l-1-1v-1zm-25 1v1l1 3v1h-3v-2l-1-1v-2h2zm-6 1v1l1 1h-2v-1zm-2 1v1h1v5h-5v2h1v1-1h-1v2h1v2h-4 1v1l1 1-1 1-1 1h1v1h1l1 1h-1v1h-2v1h-2v-4l-3 1h-2l-1 1h-2v1l1 1v1h-1l-1-1v1l-2-1v-1H6l-1 1-1 1H3l-1 1H1v-1l-1-1v-3h1v-1l1-1h1v-1H1l1-1h1l1-1h1l1-1v1-1l1-1v-1h6l1-1h1l3-1 5-3v-1h2l1-1 1-1h1zm37 1h1v2h-1v-2zm6 1v1-1zm1 1h1-1zm-10 0v1h-1v-1zm7 1h1-1v1-1zm-59 1l3-1h1v1l-1 1v2H7v-1h1-1v-1l3-1zm61-1l1 1v1h-1v-1zm-21 4l1 1h1l1 1h1l1 1v1l1 1v2h-1l1 1v4l1 1h-1l-1-1-1-1v-3h-1l-1-1h-1l1 1 1 1h-1l-1 1v1l1 1v3h-1l-1-1v-1h1v-1l-1-1v1h-1v-1h-1l1-1-1-1-1-1-1-1v1l-1 1h-1v-1l-1-1h-2l-1-1h-1v-1l-1-1v-2l2-1h4v1h1l2-1 1-1zm-23 1l1 1h-1v-1zm5 1zm32 1zm5 1v1-1zm-40 1h-1zm-2 1h1v2l-1-1-1-1h-1 1zm43 0h-1zm-8 0v2h-2v-2h1zm-19 2v1l-1-1h-1zm-5 0v2l1 1h1v1l-1 1v1l1-1h3v1-1l-1 1h-1v1l1 2-1-1-1-1v2h-2l-1-1 1-1v-3l-1-1v1h-1v-1l1-1-1-1h1l1-1zm9 1h-1 1zm-21 2v2h1v1h-3 1v-1h1l-1-1v-1h1zm21 1zm-27 2v1l1 1-1-1h-1l1-1zm41 2v1h-1v-1zm-5 0v1h-1v-1h1zM9 55h1v1h1-2zm49 1l1 1v2h-2l-1-1v-1l1-1zM9 58h1v1H8l1-1z"/>
</svg>
