<svg xmlns="http://www.w3.org/2000/svg" viewBox="0 0 77 45">
  <path d="M43 0h1-1v1h-1l1-1zm-3 1zm-2 0l-2 1h-1l-1 1 2-1 1-1zm-8 4v1l-1-1h2zm12 1zm0 0h1v1zm2 1h1l1 1h4l2-1h3l1 1h2v1h1v1l1-1h2l1 1 1 1v1h1v1h-2 1v1-1h1v1h-1l1 1 1 1h3v1h1v-1h2-1v-1h-1l3 1 1 1 1 1 2 1-2 1v-1h-2v1-1h-1v1l-1 1h-1l-1 1h-2v1h-1v-1h-1v1h-1l-1-1v2h-1v-1l-1 1h-3l-1-1v-1h-3v1h-1v2h-1v1l-1 1v1h1v1h-3v1l-1 1h-1v1h-2l-1 1v1h1-2v-1h-1l-1-1v-1h-1v1h-1l-1 2-1 1h-5v5h1v1h-2l-1 1v2l-1 1h-4v-1l-1-1-1-1v-1l1-1h-2v1l-1-1h1-1v-1l-1 1h-1 1v-2h-1l1-1v-3l-1-1-2 1-1-2h-2v1l-1 1h-2v-1l-1-1H8v-1H7l-1-1-1-1-1-1-1-1v1H2v-1H0v-1l1-1h2v-2H2v-4l2-1 2-1 1-1 2-1 1-1 2-2 1-1 1-1h2l1-1 1-1h4v1h-1l1 1V9h6l1 1h2V9h7l3-1h1l1-1h1zm20 4h1l2 2v1-1h-2v-2h-1zm5 3zm-3 1v-1l2 1v1-1h-2zM21 41v1-1z"/>
</svg>
