<svg xmlns="http://www.w3.org/2000/svg" viewBox="0 0 77 67">
  <path d="M37 0h2v1h2l1 1h1v1l1 1 2 1 2 1v2h1v1h1v1h1V9l1 1 2 1h1l1 1h5l2 1 1-1h1l2-2h3v1h-1l1 1h-1l1 1h1-1v1h1l-1 1v1h2v1h-1v1h1-1v1h1v1h3v1h2v1h-4v1h-1v1l1 1v1h-1l-1 1h-2l-1-1v-1l-1-1v-1 1h-1v-1h-1v1l-1-1h-2v-1l-1 1h-2l-1-1v1h-1v1h-1l-2-1h-3v-1h-4l-1-1h-1v-1h-1v1h-1l-1 1v-1h-3v1l-1 1-1 1v1h-1l-1-1-1-1h-1v-2h-3v1h-1 1l-1 1v1l1 1h-1l1 2v1h-1l1 1h1l1 1 1 2h1v2l1 1v2l1 1v1l1 1h1l1 1h1v1l1 1 1 1v1h1l2 2 2 1 1 1h1v3l1 1h1v1l1 1 2 1 1 1-1 1h-2l-1-1v-1h-1l-1-1-1-1h-1l-1-1-1-1v-1h-2l-2-1-2-1h-1v-1h-2v1h1-2 1-2 1-3v-1h-1v-2h1-1v-1h-2l-1-1-1-1h-1v-1l-2-1v-1h-1v-1h-1v-1h-1v-2h-1 1l1 1v-1l1 1v-1h1l1 1h1v1h1v-1h-1l-1-1h-1l-1-1-1-1-1-1-2-1v-1l-1-1v-7h-1l-1-1-2-1v1h1-1 1v1l1 1 1 1-1 1h1-2v-1l-1-1h-1l-1-1h1v-2h1v-1h-1l-1-1h-1l-1 1v2l-1 1v2H8l-1 1v-1 2H6v1h1-2 1-1v-1H4v-1l-1-1v-1H2v-1H1v-4l-1-1v-1l2 1 1-1h2v1l1-1h5l2-1v-1l1-1 1 1 1 1 1 1h1l1-1v1h2v1h2v-1h1v-1l-1-1 1-1h1-2v-1h1l1-1 1-1h2v-1h1V8l-1-1h-1V5h3V4h2l1-1V2h2v1l1-1 1-1V0zM8 25zm3-3v1l1 1v1h1v1h-1v1l1 1h-1l1 1v2h-1v-1 1l1 1 1 1h-1l-1-1h-1v-3 1l1-1-1-1v-1l-1-1h2l-1-1v-1l-1-1v-1zm5 5zm0 0l1 1 1 1h-2l-1-1h1l-1-1h1zm1 0zm-6 1v1-1zm5 2h1l1 1 1 1h1v1l-1-1h-1l1 1 1 1v-1l1 1 1 1h1-1v1h-1 1l-1-1h-1v-1l-1-1h-1v-1l-1-2h-1zm-6 0v1-1zm1 3h-1zm5 1h1v1h-1v-1zm0 0v1h-1v-1zm-2 1h1v1l-1-1zm2 1h-1zm0 0h1v1h1v1-1h-1v1-1h-1v-1zm3 2l1 1-1-1zm-1 0v1h2v1l1 1 1 1v1-1h-1l1 1-2-2-2-2-1-1 1 1v-1zm3 4zm-3-4h1-1zm2 0l1 1h1l1 2h1v1h1v1-1h-1l-1-1-1-1h-1v-1h-1v-1zm1 2v1l-1-1zm2 3h1-1zm-1 0h1v1h1l1 1-1-1h-2 1v-1zm5 0v1h1v1l-1-1v-1zm3 2zm-1 0v1-1zm0 1h-1zm0 0zm1 0h1-1zm-2 0zm-1 0h1l1 1-1-1h-1zm7 4h-1zm0 0h1-1zm2 0v1h1v1l-1-1h-1v-1zm3 1h4v1h1v1h-4l-1-1h-1v-1zm1 2h1v1h2l3 1h1-8l-1-1h-1 3l-1-1zm-3 1h1-1zm-2 2v1h-2v-1h1zm10 0h1v1h4l1 1 1 1v-1l1 1h1-1 3l1 1 3 2 1 1h2v1l1 1v1h1v1l-1-1h-1v-1l-2-1v-1h-2v-1l-2-1-1-1h-1v1l-2-1-2-1-1-1h-2l-1-1h-2v-1zm-3 1l2 1 2-1 1 1h1l-1 1-1-1h-1l-2 1-1-1h-1v-1zm-1 1zm12 3h1l1 1h-1l-1-1h-3v-1zm-9 0h-1z"/>
</svg>
