<svg xmlns="http://www.w3.org/2000/svg" viewBox="0 0 77 58">
  <path d="M45 0l2 1 2 1h1v1h-1l-1-1h-4l-2-1h-1l1-1h2zm0 4h3v1h3v1h1v1h1v1-1h1l1 1h2v1h1v1h-1l1 1V9h3v1h1l1-1v1h2-1v1h1v-1 1h2v-1h3v1h-1v1h2v-2l1 1h1v3h1v2l1 1v3h-1l-1 1h-1l1 1 1 1 1 1h2v1h-1v2h-1v1h-1v1h-1v1h-1v1h-2v1h3v2h1v4h-1l-1 1v2h-4v-1h-1v1h-2v2h1v1h1v-1 1h1v1h1v1l1 1h1v1h2l1 1h1-1v2l-1 1v4h1v1h-1v1l-1-1v-1l-1-1-1-1h-1l-1-1h-2l-1-1h-2l-2 1h-1l-1-1h-2l-3 1h-2v-1 2h-6v1h-3l-1-1h-3l-3-1h-4l-1-1-1 1v-2h-1v1h-1v-1h-1v1h-2v-1l-1 1 1 1-1-1v1h-1v-1l-1 1v-1h-1v1h-1l-1 1-2 1v1l1 1v1h-3v-2h-1v-1l-1-1-1-1h-1v-1l-2-1H8l-1-1H5l-1 1v-1H2v-1H1v-2H0l1-2v-2l1-1-1-1h2l1-1h6l1 1 2 1h2v1h3l1 1v-1h3l3-1-1 1h-4 1l1 1v1h1l2-1h5l1 1h4l1 1h6v1h1l1-1 1 1h3v-1l1-1 1-2h5l1 1h1v-3l1-1-1-1h-2l-1-1v-1h-2l-1-1-1-1v-1l-1-1-1-1h-1l-2-2-1-1 1-1h3l-1-1-1-1v-1h-1v-1h1v-1h1v-1 1-1l-1-1v-1h1v-1h1v-1h-2l-2-2h-1v-1h-2l-1-1v-1h-4l-1-1h-1v1h-4l-2-1V9l1-1 1-1h-1 2l1-1h1l2-1h6l2-1h1zm-3 1h1zm30 6v1-1h1zm-24 9zm1 0h-1l1 1v-1zm-1 1zm2 0zm-4 0zm2 0v1-1zm-1 0zm0 9zm20 3h-1v1-1h1zm0 0zm2 0v1-1zm0 0v1-1zm-2 0v1zm1 1h-1 1zm1 0l-1 1h1v-1zm-6 7v-1l-1 1h1zm-25 6v1h1v-1h-1zm2 0zm-23 3zm1 0zm13 2zm4-20l2 1h2l1 1 2 1h2v1l1 1v2h-1v-1h-3l-2-1h-1l-1-1h-1l-2-1h-1l-1-1v-2h1zm-15 9l1 1h-2l-1-1h1zm1 15h3v1h-3v-1z"/>
</svg>
