<svg xmlns="http://www.w3.org/2000/svg" viewBox="0 0 77 48">
  <path d="M60 0h1v1h1v1l1 1 1 1h1V3h3l1-1v1h1v1l1 1h1l1 1v1l1 1V7h2v2l1 1-1 1h-1l1 1h-1v1h-3l-1 1v-1l-1 1v1h-1v1l-1 1-1 1v2h-1v3h-1v2h-1v2h-1v2h-1v2l-1 1v1h-1l-1 1v1h1v1h-1v1h-1v1l-1 1h-3l-1 1v1h-2v-1l-1 1H39v1h-1v1h-2v1h-1v-1h-1v1l-1 1h-2v1l-1-1h-1v1l-1 1h-1v1h-3v-1h-5l-1-1h-1v-1h-1l-1-1-1 1v-1l-1-1v-1h-1v-1l-1-1h-1l-1-1-1-1v-1H7l-1-1-1-1-1-1v-1H3v-2H2v-2H0v-1h1v-1h1v-1h2v-2h1-1v-5 1h1v-1h1v-1h1v-1l-1-1H5l-1-1h1v-1h2v1h4v-3l1-1v-1h2l1 1 1 1 1 1 1 1h5l2 1 1-1h4l1-1v-1h-1v-1l1-1 1-1h6V8l1-1 1-1 1 1h2v1h1V7h1l1-1h1V5v1l1-1 1-1V3l1-1V1h1l1-1h1l1 1h5V0h1z"/>
</svg>
