<svg xmlns="http://www.w3.org/2000/svg" viewBox="0 0 77 28">
  <path d="M0 0zm0 0l1 1h3l1 1v1h1l1 1 1 1 1 1h1v1l1-1v1h1-1 1v1h1v1h1v2h2v3h1l1 1v5l-1-1h-1v1l-1-2h-1l-1-1-1-1h-1v-1l-1-1-1-2-2-2-1-2V7L5 6H4L3 4 1 3 0 1V0zm53 2v1-1zM36 2l1 1h1l-1 1h1l-1 1h1v2l2 1h-2l-1 2v1l-1 1v2l-1 1v1h1-1v1-1h-1l-1 1v-1h-1l-1-1h-2l-1 1v-1h-3v-3h-1v-1l-1-1V7h1V6l1 1v1h3l1-1h4V5h1V3h1zM22 3v1-1zm29 1zM38 4zM19 4zm-1 1zm5 0zM1 5h1v1L1 5zm55 0v1h-1 1zM4 6H3zm51 0zm0 0v2h-1 1l1-1v2h-1v2h1-1v-1h-1V7l1-1zm-5 1v1l-1 1h-7v2l1 1h1v-1h3v1-1l-1 1-1 1h-1l1 1v1h1l-1 1h1v1l-1 1h-1v-1l-1-1v-2h-1v5h-1v-3h-1v-4l1-1V9h1V8h7l1-1zM4 8l1 1H4V8L3 7h1zm12 0h-1zm-1 0zm-1 0zm0 0v1-1zm40 2zm-38 0zm41 0h1-1zm3 0v1h-1v-1zM6 10H5zm48 0v1h1-1l-1-1zm-38 1h-1v-1zm48 0l1 1v2h1v1h2v-1h1l1-1h1v-1l2 1h1l1 1h2v3l-1 4h1v4l-1-1-2-1-1 1h-2v-1l2-1v-1l-1-1v-1l-1-1h-2l-1-1h-2v-1h-2v1h-1v-2h-1v-1h3v-1h-1v1h-2v-1h-1v-1h-2v-1h1v1-1h2v-1zm-6-1v1-1zm-4 1zm14 0l1 1h-1v-1h-1zM6 11l1 1v1l-1-1v-1zm61 1l-1-1zm-20 0h-1 1zm7 0zm4 0zm-3 0v1h-1v-1zm-37 0v1l1 1v1l-1-1-1-1 1-1zm50 0l1 1h1-3zm-18 1h2-3zm9 0h-1zM9 14v1H8v-1zm13 0v1h-1v-1zm36 1h1l1 1h-1l-1-1-1 1v-1h-1v1l-1-1v1-1h2zm-3 0zm-2 0h1v1h-2v-1zm2 0h-1zm-1 0zm1 1zm-2 0h1zm-6 1h-1zm17 0zm-17 0v2h-2v-1h1v-1zm-2 2v-1zm3 0h-1zm-36 0zm51 0h1l-1 1v-1zm3 0v2h-1v-1l1-1zm-3 0v1zm-21 1zm-24 0h4l1 1h3v-1l1 1h4v1h-2 1l1 1h3v1h-1l-1-1v1h-5l-2-1h-4l-2-1v-1h-1v-1zm48 1zm-32 0zm9 1zm-11 0zm24 0zm5 0v1h-1v-1h1zm0 0h1-1zm-18 0zm17 0zm-6 0v1zm-1 1h-2 1zm5 0zm-20 0l1 1h1-1l-2 1h-1v-1h1l1-1zm17 0v1-1zm-15 0v1-1zm6 0h1v1-1l1 1h-2l-1 1h-3l-1-1h1l1-1v1h3v-1zm3 0l1 1h-1zm11 0v1zm-11 1h-1zm7-1h1v1h-1zm-21 1h1v1h-1v-1zm6 0h-1zm-7 0zm7 0zm9 1v1l-2 1h-1v-1h1l1-1h1zm-9 0l1 1 1 1h-1l-1-1h-1zm4 2zm2 0v1-1z"/>
</svg>
