<svg xmlns="http://www.w3.org/2000/svg" viewBox="0 0 52 77">
  <path d="M36 0h1l1 1 1 1h2v1l-1 1-2 1v1h-1v1h-1v1l-1 1v1l-1 1v2h-4v2h2v1h-1l-1 1h-2l-1 1v1l1 1 1 1 1 1v1l1 1h2v1h4v-1h1v-1h1l-1-1v-1h1l1-1h1l1 1v2l1 1h1v3h2l1-1h2l1 1 1 1h-2l-1-1v3h1v3l1 2v1l1 1h-1v1h1-1v1h1v1h-1v1l1 1v3l1 2h-1l1 1-1 2-1 2v1l-1 1 1 1-1 2-1 3h-1v-1l-1 1h1v1h1v2h-3l-2-1-1 1v1-1l-1-1v-1h-1v-1 1l1 1v1l-1 1h-1v-1l-1 1h-4v1h-1l1 1-1 1h-1l-1 1v-1h-1l1 1h-1v1h-1v1h-3v-1h-1l-1-1v1h1v2l-1 1h-1v1-1h-2 1v1h-1v1h-1v1-1h-2 1l-1 1h-2l-1-1v1h1-1v1h-3v-1h-1v1H8v1l-1-1h2v-1l2-1h-1l-2 1H7h1l3-2h1v-1l-1-1v1h-1v1H9v-1l-1 1H7l-1 1H4l1-1H4h1l1-1v-1h2-1l1-1h1l1-1h1-2l-1 1H6l-1 1H3v-2H2v1H1v-1h1v-1h1v-1H2h1v-1h2l1-1 1-1h1-8v-1h1v-1h1l1-1v1h1l1-1 2 1h1v-1H7v-2l-1-1h2l1-1 1-1h2v-1l1 1 1-1h3v-1h3v-1h-2v-1h-1l-1 1v1h-1v1h-2 1v-1l-1 1h-1l-1-1h-1l-1 1H8l-1 1H6l1-1h1v-1h1l1-1v-1h1v-1h1v-1l1-1h-1v-2h1v-1l1-1v-1l1 1h1v-1l1 1v-1h1v1-2h-1l1-1h-4l-2 1h-1v-1h-1v1-3 1-1l-1 1H7v-1h1v-1H7l-1 1H5v-1H4h1v-1H4v-1H3l1-1v1-1h1v1h1v-1H5h4v-1H7v-3h3v-2H6v-1h2v-1H7v-3 1H6v-3 1l1-1v-1h1-1v-1h2l1 1h3v-1l1 1v1h1v1h1v-2h2l1 1 1-1h1v1h1v1l1-1-1-1h1-1v-1h1-2v-1h2v-1l2-1h1v-2h1v-1h-2 1-6v-2h1v-1h2v-1h-1 2v-1h1-1V9h1-1V8h-1l1-1h1V5h2V4h2V3v1h1v1h1V4l-1-1h1v1h1v2l1-1V4h-2V3h1V2h1v3-1h1v1l-1 1v1h1-1v1h1V7h1V5l-1-2h1-1V2h1l1-1h1v1-1h-1l1-1h-1zM5 22h1v1H5v1H4h1v-2zm0 3v1H4v-1zm0 2v1-1h1v3l-1-1v-1H3h1zm1 4v1H5zm-2 6zm6 5v1H9v-1zm6 2zm-8 1h1-1zm3 1h-1zm0 0zM2 68H1v1-1z"/>
</svg>
