<svg xmlns="http://www.w3.org/2000/svg" viewBox="0 0 59 77">
  <path d="M52 0h1v2l-1 5-1 3-1 6 1 4v1h1l1 1h1l2 1 3 1v2l-1 1v1l-1 2-2 2-1 2-2 3-2 3v1l-1 1-1 1 1 2 1 1-1 2v1l-1 1h-1l-1 1-3 1-1 1h-2l-1 2 1 1 1 2-2 1-2 1-1 1-3 1v1l-1 1h-1v2l-2 1h-3l-2 2-2 2 2 1v1l-2 2-1 2-1-1 1-2v-1l-1-1h-2l-2 2v1h-1l-1-2v-1h-1l-1-1-2-1-2 1v1H7v2H6l-1 1-1 1H3v1H1v-1l-1-1v-1l1-1v-1l2-1v-1h1l-1-1H2v-1l1-2h1l1-1v-1l2-2v-7l-1-2 1-2 2-2v-5l2-2v-1h1l4-2 1-1 3-4 3-3v-2l2-3 2-6 1-1 1-4 2-3 1-2 3-2 6-4h1l6-2 2-1h1z"/>
</svg>
