<svg xmlns="http://www.w3.org/2000/svg" viewBox="0 0 72 77">
  <path d="M28 0h1v1h2v1l-1 1-1 1v1h-1v1h-1l1 1v1h1v1h-1v1l-1-1h-1v1l1 1v1l1 1h1v1h2v1l1 1v1h-1v1l-1 1 1 1h1l1 1 1 1h1l1 1h4l2 1v1h5v1h2v-1h1v-4h1l1 1v1l1-1v-1h1v-1h1l1 1h5l1-1v-1h1l1-1 1-1h3l1-1v1h1v2h2v2h-1 1v1h-2l-1 1-1 1-1 1v4l-1 1v1l-1 1-1-1v3h-1v3h-1v-2l-1-1v-1h-1v2l-1-1v1-1l-1-1 1-1 1-1v-1h1v-1h-5l-1-1-1-1v-1l-1 1v-1h-1l-1-1v1l-1 1 1 1h1v1h-1v1h-1l1 1h1v4h1v3l-1 1v-1h-1v1-4 1l-1 1v1l-1 1h-1v1l-1 1h1v1h-1v1l-1 1h-2l-1 1-1 1v1l-1 1-2 2-1 1h-1l-1 1-1 1v1h-2v1h-1v-1 1l-1 1-1 1v4h1v2l-1 2v5l-1 1v-1l-1 1-1 1v1h1v1l-1-1-1 1h-1v1l-1 1-1 1-1-1-1-2h-1v-2l-1-1v-2l-1-1v-1l-1-1-1-1v-4l-1-1-1-2v-1l-1-1-1-1v-6l-1-1 1-1h-1v-8h1-1v-2l-1 1v2l-1 1H8l-1 1H6l-3-3v-1l-1-1v-1 1h2l1-1 1-1H5l-1 1-2-1-1-1v-1h1-2l1-1h6v-4H6l-1-2v-1H4v-1l1-1 1-1 1-1v1h3l1-2 1-1 1-1 2-2v-1h1v-1l1-2v-1h1l1-1h-1l-1-1-1-1-1-1 1-1V5l-1-1 1-1h1l1 1h4l1-1V2h1l1-1h1l2-1z"/>
</svg>
