<svg xmlns="http://www.w3.org/2000/svg" viewBox="0 0 47 77">
  <path d="M24 0v1h-3 1V0h1zm-6 0v1h1-1l-1 1-1 1-1 1V2l3-2zm11 1v1h1l1 1 1 1 1 1 3 7v1h2l2 2h1v2l1 1h1l1 1v1l1 1v1l2 2v6l-1 1v2l-2 3-1 1-1 1-1 1v5l1 3 1 2 1 1 3 5v1l-2 1-2 1-3 2-3 2-1 1-1 1-2 2-1 3-1 1v2l-1 1v1l-1 1h-2v1l-1 1-3-1v-2l1-6v-3l-1-2 1-2v-7l1-4v-2l-1-2v-3l1-1v-4l-1-2-1-1-1-1-2-1-1-1-3-1h-1l-7-7-1-1H6l-3-2-1-2-1-1-1-1v-1l1-1 1-1 2-1 1-1h2l2-1v1l-1 2-1 2v2l1 1 1 1 1 1 1 1 1 1 3 3 6 4 2 1h1l1 1v2l1 4v1l1 1-1 2v11l-1 1v7l-1 2 1 1v10h-1v2h1v-1l1 1v-2h-1 1v-1h1v1l-1 1h1v-3h1v2l1-1v-4l1-3h1l1-1v-1l1-2v-1l1-1 2-1h1l1-1v1l-1 1h1v-1l2-2v-1l1-2h1v1l-1 1v1l-1 1 1-1 1-1 1-1v1l1-1 1 1v-2h-1l-1-1v1h1l-1 1-1-2v-2l-1-1v-2l-1-3h-2v-1h-1v-2l1-1 1-2 3-4 2-4 2-4v-3h-1l-1-2v-2l-2-1-1-1-1-1-3-1-1-1-1-2-1-2-1-1V7l-1-1-1-1h-2l-1-1V1z"/>
</svg>
