<svg xmlns="http://www.w3.org/2000/svg" viewBox="0 0 77 67">
  <path d="M2 0l2 3 1 1h4l1-1 3-2 1 1h1v2l-1 1 1 1h1l1 1v1l1 2v1h1l1 1h2l1 1 3 2h6l2-1h1-1 2l1-1-1-1v-1h2l3-2 2-1h2V7h3l1 1 1 1h5l1 1 1 1 1 1 2 1h1v1h3v8l-1 2v1h-1v2h1v4l1 2v3l1 1h2l1 2v2l-1 2-1 2h-1l1 1 2 2v1l3 2h1l2 1 1 3 1 1 1 1-1 1-1 1-2 1-1 2-1 1v4h-3l-1-1H55l-1-1h-1l-1-1-1-2-1-1v-1l-1-1h-2l-3 1-1 1-1 1h-6v-1h-1l-2-1h-1v-1l-1-1-1-1h-2l-1-1-1-1v-2l-1-1-1-1v-1h-1v-2l-2-1v-1h-3v-1l-1-1h-1v2h-1l-1-2-1-1v-1h-1v-5l-1-1-1-2H9l-1-1H7l-1-1v-1H5v-1l-1-2H3l1-1v-3h1l1-2h1l-1-1v-1l1-1H6l-2-1v-2l-1-1H2v-4L1 9H0V2h1V1h1z"/>
</svg>
