<svg xmlns="http://www.w3.org/2000/svg" viewBox="0 0 77 51">
  <path d="M59 0h1v2h1l1 1-1 1v1h1l1 1 1 1V5h1l1-2h4-2v1h-1l-1 1v2h-1l1 1v1h3v2l-1 1-1 1v1h1l2-1h1v2l-1 1h1v-1h1l1 1h1v1h2v3h-2 1v1h-2v1l1-1h2v1h-1l-2 1h3l-1 1h2v1h-1v1h-1l-1-1h-2v1h1l1 1h1-2l1 1h1v1h-2v2h-2l-1-2v1l1 1v1h-1v1h-1l1 1v2l-1-1-1 1h-1v2h-2v-1h-1v-1 2h-1l-1 1h-1l-1 1h-1v1h-1v1h-1l-1 1-1 1-1 1-1-1v-1h-1v1h-1v2h-3l-1 1v-1 1l-1 1v2l-2 1v-1l-1-1v1l1 1h-8v-1h-2v-1h-3l-2-1h-1v-2h-1v-2h-1l1 1h-3l-1-1v-1h1-1l-1 1h-3l-2 1h-1l-1-1v1h-2v-2h-1l1-1v-1l1 1v1l1-1h2l1-1v-1h1v-3h1v-1h1v1l1-1h-3l-1 1h-1l1-1h1-2l1-1 1-1v-1h-2v2h-1v-2h-1v-4h-1l-1 1v-1H7l-1 1H4v-1l-1-1h1v-1h1l1 1 1-1h2v-1l1 1H9h2l-1-1h2v-1h1v1h1v-1h2v1h3v-3l-2 1h-1l-1-1h-1v-1h1v-1h2v-1h1v-1h2v-1h-1v1l-1-1h-1v-1 1h-1v1-1h-1 1v-1l1-1-1 1h-2v-2 2l-1-1v1-2l-1 1v-1 1h-1v1h-1v-1H9v2H6l-1 1H4v-1H0l1-1v-2h1l1 1 1 1 1 1v-1l-1-1H3v-1h1l1 1-1-1-1-1v-1h2l1 1v1h1v1h1v-1h1-1l-1-1h2v-1h1-5v-2h2l1 1h1l-1-1H7L5 9V8l2 1h1L7 8 6 7h1l1 1V7H7V6h2v1h1v1H9h2l-1 1v1l1-1v2-1l1-1v2-3h1v4l1-2v1l-1 2 1-1 1-1v-1l-1-1V8h1-1l-2-1-1-2h3l1-1h-2V3h-1v1-1h-1v1l-1-1h1l-1-1h1-1 1V1l2 1V1l1 1V1l1 1v1h1v2h1-1 2v1h1v2h1v1-1h1v1h1l-2 1h2-1 1v2l-1 1h1v1h-2v-1h-1l1 1v1h2v1h-1v1l1-1v2l-1 1 1-1h1v3l1 2v1-5l1 1v-4l1-1h1v2l1 1 1-1h-1l1-1v1-2l1-1v-1l-1-1V8l1-1h1v1l1 1v2h1l1 1v2h1v-1 1h1v-3h-1l1-1V8h2V7l1-1v1l1-1v1h1v1h1v2h1v1l1 1v1l1 1v1-3l-1-1V8h-1V7l1-1h1v1h2l1 2v1h1l-1-1h2V7h1V6h1l1 1v1-1h2V6h1v1-1l1-1-1-1V0v1-1 1h1l1-1zm5 37z"/>
</svg>
