<svg xmlns="http://www.w3.org/2000/svg" viewBox="0 0 61 76">
  <path d="M29 0l1 1v1l2 1 3 1h2l-2 1-1 1v1h2v1h-1 1v2l1 1h-1v-1h-3v1h-2l-1 1v-1h1-1l-1 2h-1l1 1v1h1v1h-1v1h-1v2l1 2 3 3 2 1 1 1v2l1 2 1 3 1 1 1 1 1 1 1 1 1 1h6v2l-1 1 1 1h1l1 1h1l1 1 2 1 2 2h2v1l2 1 1 2v2l-1 1-2-2v-2h-2l-2-1-1-1-1 2h-1v2l-1 1v2h2v1h1v1h1v3h-2l-2 1v3l-2 2-1 1h-2v-2h1l1-2-1-1h2v-1h1l-1-1v-2l-1-2v-1l-1-2-1-1h-2l-1-1h-1v-3h-3v-1l-1-1h-1l-1-3h-2l-1-1v1h-1v-1h-1v-1h-1l-2-2-1-2-1-1-3-3-1 1v-1h1-1v-1l-1-1h-1v-1h1l-1-1h-1v-5l-1-2-1-1h-1v-1h-1l-1-1h-1v-1H9l-1 1-1 2-2 1-2-1h1v-1l-1-1H2l-1-2v-2l1-1-1-1-1-1 1-1h2v-1L2 9V7H1l1-1h4l1 1V6h1V4h1l1-1v2l1 1h1v1l1 1V7l1-2 1-1V3v1l1 1h2l1 1V3h2l-1-1 1-1h3l2-1h1v1l1-1zm0 23h1-1zm-11 7v1h-2l1-1h1zm-8 11l1 1h1v1l-1 1h1v2l1 1-1 1v3l-1 2v3l-1 1v-1H8l-1-1v3H5v-2H4v-3l1-1v-7H4v-2l2 1v-1h2l1-1 1-1zm35 24v1h-1l-1 1v1l-1 1v3h1l-1 1 1 1-1 2v1h-1v-1h-2l-1-1-1-1-1-1h-2l-1-1h-1l-1-2h-2v-1h-2v-1h-1l1-1v-1l1-1v1h2v-1h1l1 1h1l1 1h1l1-1h6v-1h2z"/>
</svg>
