<svg xmlns="http://www.w3.org/2000/svg" viewBox="0 0 66 77">
  <path d="M51 0h1l1 1v1l1 1 4 3h1l1 1h3V6l1-1v4l1 1h1V9v1l-1 1h-1l-1 1v-1 1h-3v1l-1 1-1 2v2l-1-1h-1l-2-1-1-1h-2l-1 1h-1l-1-1-1 2h1l1 1 1 1h-2v1h-1v1h-1v-3l-1-1v-2l1-1h1v-3h1v1h2V8h1V2h-1V1h1V0zm-3 0l1 1h-1zm2 2h-1zm-6 15v1-1zm5 3h1v1h1v3l1 1 1 1v1l1 1v4h-1v4h-2v1l-1 1h1v5l-1 1v3l1 2h-1l-1 1v2h-1l-1 1v-2l1-1h-2v2h-2v3h-2v-1l1-1h-1l-1 1h-1v1h-3 1-3 1v-1h-1v1-1h-1l1-1h-1v1l-1 1 1 1h1v1h-2l-1 1v1l-1 1v1h-1l-2-1-1-1v-2h1v-1h1v-1h-6v1h-3l-1 1h-3 1l-1-1v1h-1v2h-1v-1h-4v2h3v1h-1v1h2v2l-1 1v1l-1 1v3l-1 1h-1v1H9v1H8v-1h1v-1l-1-1h1v-1H8v3H7l-1-1 1-1-1-1v-1l1-1 1-1v-3l-1-1v3H6v-1H5v1-1l-1-1 1-1v1l1 1v-1l-1-1H4v-1h1v-1h3v-2h2v-2h2l2-1v-1l1-1 1-1 1-1h1l1-1 1 1h-1 5l2-1h2v1h2v-1h1v-2l3-3v-3l1-1h1v1h-1v2l1 1v-1h1v-1h2l1-1h1v-1l1-1 1-2h1v-1l1-1v-2l1-1v-1l1-2-1-1v-1 1l-1-1h1v-4h1v-2h1l1 1v1-1h2v-1h-2v-1zm-8 17v1l-1 1v-2zM20 47zm-1 1zm0 0zm0 0zM4 54v2H3v-1l1-1zm23 2v1h-1v-1h1zm-3 0zM3 56h1-1v1-1zm20 1h2v1l1 1-1 1-1 2h-1l-1-1h-2v1l-1 1-1 1v1h-1v-1h-1v-3h-1l1-1h1v-1l1-1h1l1 1v-1h1v-1h1zm-4 0zm-1 0zm-1 1h-1zm-1 1h-1zM5 59zm-1 2v1H3l1-1zm-2 2zm0 0zm-1 0v1-1zm0 1zm0 0l-1 1v-1h1zm1 0zm5 1h1-1zm-1 0h1v1H6v1-2zm2 0l-1 1v-1zm-3 3v1zm0 1l-1 1v-1zm5 5v1l-1 1v-1l1-1zm-3 2h1l-1 1v-1z"/>
</svg>
