<svg xmlns="http://www.w3.org/2000/svg" viewBox="0 0 66 77">
  <path d="M4 0h12l2 1 7 1h1l4 3 4 3h5l1 1h5v1h2l1-1 1-2V6l2-1h2l2-1 2-1 1 1h1v1l1 1h2l2-1h1l1 1-2 3-2 3-2 1-1 2v30l2 3 2 4-1 2h-2v1h-3l1 1v1h-1 1-1v1l-1 1h-1l-3 2v3l-1 1v1h-1v1l-1 2-2 3v2l-1 1v1h-1v1h-1l-3-2-9-7-1-1h-1l1-1v-3l-5-2L1 47v-1H0l1-1v-1l-1-2 1-1v-1h1l1 1v-1l1 1v-1l1-1h2l-1-1v-1l-2 1H3v2H2v-1l-1-1v-1H0l1-1 1-1v-2h1v-1h1v-1l1-1v-1h1l1-1h1l-1-1 1-1v-1h1v-4l-1-1v-2h1-1v-1l-1-1v-1l-1-1-1-2v-1H4V9h1L4 8V7H2V6h1-1L1 3l2-2z"/>
</svg>
