<svg xmlns="http://www.w3.org/2000/svg" viewBox="0 0 77 35">
  <path d="M69 0v1h1l1 1 1 1V2h3v1l1 1h1-1l-1 1h-1v1h-1l-1 1h-1l-1 1h-1l-2 2h-1v1h-1l-1 1v1l-2 1h-1l-1 1h-5v1h-2v1h-1v3l-1 1h-2l-1 1h-2v-1h-1v-1h-1l-1 1-2 1h-2l1 1h-1l-1 1h-1l-1 1-1 1h-3v1l-1 1-1 1v3h-3l-2 1h-5l-1 1v1l-1-1h-3l-1-1v-1h-3l-1 1H8l1-1H3l-3-1v-3l1 1v-1h1v-1h2l2 1h4v-1l1-1h1v2h1v-1l-1-1 1-1h1l1 1h4v-1l1-1h1l1-1h-1 3v-1h1v-1h2l-1-1h-3l-1-1h-1l-1 1h-1v-1l-2-1h1v-1h-1v-1h-1v2h-1v-1 1l-1 1-1-1h-3v1-2H6v-1l1-1h1v-1h1l2-2v-1l-1-1V9H9l1-1 1-1 2-1h7l1 1h4v1h1l1-1h-1V3l1-1 1-1h3l1-1 2 1h1l1 1h3l1 1h5V2h4l1-1h2l1-1 2 1h3l2-1h8z"/>
</svg>
