<svg xmlns="http://www.w3.org/2000/svg" viewBox="0 0 77 64">
  <path d="M75 0v4h-1v1l-1 1v4h1v3l1 1h1v3h1v3h-1l-1 3v4l1 2v5l-1 1-1 1-1-1-2 1h-1l-1 1v1h-1v1h-3l-1 1h-5l1 1v4l-1-1h-1v1l-1-1h-2l-1-1v1h-1v1h-2v1l1 1v5h2v1h1l1 1v1h-1v1h1v2h-2v-1l-1-1-1 1h-1v-2h-1v-1l-1 1h-4l-1 2h-1l-1-1h-2l-1 1h1v2h-1l-1 1v1l-1 1h-5v1h-1l-2-1h-1v-1h-5v-1h-1v4l-2-1-1-1h-1v-1h-1l-1-1h1v-1h1l1-1 1-1-1-2v-1l-1-1-1-1-1 1v3h-5v-3l-1-2 1-1v-1l-1-1v3H9v-3h1l-1-1-1-1v-3l-1-2v-1l-1-1v-1l-1-1v-1l1-1v-2l-1-1-1-1v-1H3l-1-1h1v-2H2v-2h1-1v-1l-1-2v-2l-1-2v-1h3v-1h1l-1-1 1-1h2v-2l2-2V9l1-1V7h1l1-1 1-1h5V4h3v1h13l1-1h4v1h1v2h2V5l1 1 1 2 4 1h1l2 1 1 1h4v-1h1V9l-1-1V7h-1l-1-1V5h2l2-2 1 1h1V2h2l1 1 2 1v1h1v1h1V5h1l1-1h2V3h1V2h3V1h1V0z"/>
</svg>
