<svg xmlns="http://www.w3.org/2000/svg" viewBox="0 0 77 64">
  <path d="M5 0h1l1 1 1 1 4 2 6 5 3 3 4 2 15 8 7 4 3 2 3 2 3 2 6 6 6 5 5 8 3 5v3l1 2v1l-1 1v1h-5l-5-4-5-3-2-2-3-2-7-3-3-2-3-1-5-1-1-1-2-1-1-1H21l-8-2v-1l-2-1-2-2-1-2-1-1-1-2-2-2-1-1-1-1v-2l1-1v-1h1l2-2h1l3-1h1l1 1-1 1-1 1-1 2v1l1 2 1 2 1 1 1 1v1l1 1v2l1 1 1 1h3v-1h1l1 1-1 1 1 1h1l1-1 1-1h9l1-1 1-1h1v1h1v1l1 1h4l1 1 2 1 1 1 3 2h2l1 1 1 1v1l1 1h2l1 1 1 1 2 1h1l1 1 2 2 1 1 1 1 3 2 2 2 2-2 1-1v-1l1-1h-1l-1-2-2-2v-1l-1-1-2-3h-1l-1-1-1-1-1-1v-1h-1 1l-1-1h-1l-1-2h-1l-2-1v-1l-1-1-2-2-1-1h-1v1-1l-1-1v-1h-2l-1-1v-1h-2l-3-2-1-1h-1l-2-1-1-1-3-1v1l-3-1v-1l-1-1h-3l-1-1h-1v-1l-1 1-1 1h-3v-5l-1-1-1-1-1-1h-2v-2h-1v-1h-2v-1h-1l-1 1v2l-1 1h1v3l-1 1v1h-1l-1 1H7l-1-1-1-2-2-1-2-3-1-1V4l1-1h1V1l1-1z"/>
</svg>
