<svg xmlns="http://www.w3.org/2000/svg" viewBox="0 0 73 77">
  <path d="M11 0h1l1 1 1 1h2l1 1h2l1 1 4 4h1l1 1h1l1 1v1h1l1 1 1 1v1h1v1l3 3 1 1v2l1 1 1 2h1v3h2v5h1v-1 1l1 1h1v1h1l1 1 1 1v1h2v1l1 1v1h1l1-1v-1 1l1 1h1l1 1v1l-1 1h-1v1h1v1h-3v1h-1l-1-1-1 1v2l-1 1-1-1v-3h-1v-1h1l1-1v-2h-1v-1l1-1-1-1v-1l-1-1-1-1-2-1h-1v-1l-1-1h-3l-1-1-1-1H24l-1-1h-3v-1h-2v-1h-1l-1-1v-2l-1-1h-1l-2-1-3-1-2-2-1-1-1-1-1-1v-1l-1-2-1-1H1l-1-1V7l1-1V5h1V4h1V3l1-1h1l1-1h3l1-1zm51 50h3l1 1 1 1v1h2l1 1 1 1 1 1v3l1 2v8h-1v3l-1 1h-1l-1 1h-2l-1 1h-4v1h-2v1h-1l-1-1h-1v-1h-1v-1h-1v-1h-1v-2l-1-1v-1l-1-1 1-1v-7l1-3 1-1v-1l1-1v-1l1-1v-1h1v-1l2 1 2-1z"/>
</svg>
