<svg xmlns="http://www.w3.org/2000/svg" viewBox="0 0 69 76">
  <path d="M62 0h1v1h2v4l1 1h1l1-1v3h1v2-1 1h-1V9v1h-1l-1 1h-1v2h-2v1l-1 2-1 1v1h-1v1l-1 1v2l1 1 1 1h-1v7l-2 1h-2v1l-1 1v-1 1l-1 1v1h-1v1h-1l-1 1-1 1h-1l-1 1h1l-1 1-1 1h-1l-1 1h-3l-1 1-1 1-1 1h-1l-1 1h-1v2h1v1l-1 1 1 1v2h-1v-2h-1v1h1v1h-1v-1 2l1 1h3v1h1v1l1 1 1 1h1v1h1v1h1v-1 1l1 1-1 1v2l-2 1v1H32l-1 1-1 1v1h-1v1l-1 1h-1v2h-3v-1h-2l-1 1v1l-1-1v-1h-1v1-1h-1v-1h-1v-1h-2v1h1v-1 2h-1v2-1h-1v1h-1l-1 1v-2h2v-1h-2v1h-1v-1H9l-1-1h2v-1H9l1-1 1 1v-1H7v-1l-2 1-1-1h2v-1h2-1v-3h1v-2h2v-1h2v-1h2v1l1-1v1l-1-1h-3v-1h-1v-2l1-1v-1h1v-2h1v-2l1-1h-2 1v-1l1-1v-1 1h-3v-1h-1v1-1H8v-1H7v-1H6v2H4l1-1H4v-2H2v-1l-1-1h1-1l-1 2v-1l1-1v-1h1v-1l1-1 2-2h1v-1h1v-1h2v-1l2-1 1-1h2v-1h2v-1l1-1h3v-1h1v-2h1v-1h1v-1h1v-1l1-1v-1l1-1v-2h1v-1h1-1 2v-1h1l1 1v1h1v2h2v1h8v1h1v-1l1-1 1-1-1-2-1-1h-1v-3h1l1-1h2l1 1h1v-1h3v-1h2v-1h1v-2l1-1V8h1l1 1h1V8h1V7l1-1V1h1V0zm7 9zM13 75v1-1zM8 49v1H7v1-2zm-3 1H4zm0 0v1-1zm2 14v1H6v-1z"/>
</svg>
