<svg xmlns="http://www.w3.org/2000/svg" viewBox="0 0 42 77">
  <path d="M28 0l1 2 2 4 1 2 1 2 2 2 1 2 1 1v1l1 1v1h1v1l1 1v5l1 1v4l-1 2v6h1l1-1v2l-1 1v5h-1v-1 3h-1l-1 1v1l-1 1-1 1h-1v-1 1-1h-1v1-1h-3v-1 2-1h-1l-1 1h-1v1l1-1h1l-1 1v2-1h-1v-1 1h-3v-2h-1v1h-1l-1 1v-1l-1 1h-2l1 1h2-1v1h-1v2h-1v-1l1-1h-1v-1l-1-1v1h-1v2h1v2l-1-1v2h-1l-1-1h-1l1-1 1-1v1-2l-1 1h-1l-1 1v1h-1v1h-2v-2 1l-1 1v1H8v1H7v-2l-1-1H5v-1l-1-1 1-1v1l1 1v-1l1 1v-1H6v-1h1v-1 1H5l1-1v-2H5l1-1H3v-1h2v1h1v1-1l1-1H6v-1H5v-1l1-1v-1l1-2h2l-1-1H7l1-1v-1h2v-1H9h1l1-1H8v-1h2v-1h1-1l-1 1v-1l-1-1-1-1 1-1-1-1h1l-1-1v-4H6v1H5v-1l1 2v2l-1-1v-3H3h1l-1-1v-1h1v-1l1-1v2l1-1v-1H5l1-1 1 1v-1h1v1h2l1 1v1l1-1 1-1h-2v-1h-1v-1l1-1H9v1-2l1-1H9v-1h1-1v-1H8v-2l-1-2 1-1h1v2h1-1v-3h1-1v-1h1l1-2 1-1 1-1 1-2h4v1l1-1h6l2-1 1-2V0zM7 12v3l-1-1v-1H5l1-1zm-2 0H4zm0 1v1-1zm3 3H7v1H5l1-1h1zm0 3l1 1H8v-1zm-1 1H6zm-5 0h1-1zm1 30v1H2v-1zm0 1zm29 0v3h1-1v1l-1 1v-2h-1v-1h1v-1h1zM3 52zm2 0v1-1zm-3 1v1-1H1h1zm21 0v1h2v1l-1 1v-1h-1v1-1l-1-1 1-1zM5 53v1H4l1-1zm19 0h1v1h-1v-1zm5 0v2-1zM2 54zm-1 1v1H0v-1h1zm2 0v1H2v-1zm-2 1v1-1H0h1zm21 0v1h-1v-1zM1 57h1v1l-1-1zm1 1v-1zm2 0h1v2l-1 1H3v-1H2l2-2zm17 0h1l-1 1v-1zm-3 1v-1zm-3 0v1h-1v-1h1zm4 0v1h-1v-1zm-8 1l-1 1v-1zm-2 0l1 2-1-1v-1zm3 1h-1v-1zm-1 0zm-9 0v1-1zm6 2v1H7l1-1zm4 0v1l-1-1zm-2 9h1l1 1v1h-1v1h-1l-1 1H5v1H4v-3h1v-1l3-1h2z"/>
</svg>
