<svg xmlns="http://www.w3.org/2000/svg" viewBox="0 0 77 74">
  <path d="M33 0h14l5 2 5 3h2v1l1 1v6l1 1v2h1l1 1 1 1v2l1 1v2l1 2 1 1-1 1-1-1h-2l-1-1h-4l-2 1-1 1h-1l-2 2-2 3-1 1h-1v1h-1l1 1 1-1h5-1l-1 1v1l1 1h2v-1l1-1h1l1-1h1l2 1 2 1v-1 6l1 1v5h1v2l1 2v1l1 2 1 1 1 1 1 1h1v3l1 2v1h1l1 1h1v3h-1 1v1h-1v1h1l1 1v2l1 1-30 1v-1l-1-1-1-1-2-1v-2l-1-1v-4l-1-2-1-3-1-2-1-1-1-2v-1L0 47v-1l2-1 2-2 2-2 1-2 2-3 1-1 1-2 1-1 2-3v-1l1-1v-1l1-1v-1l1-1v-1l1-1v-2l1-1v-1l1-1v-1l1-1 1-2 1-3V7l1-2 1-1 3-1 2-1 3-2zm30 4h2v1h-1l-3 1v1h-1V5l1-1h1zm3 2h1l2 2 2 2 1 2 2 2v1l1 1-1 1-1 2-4 5h-2l-1-2v-1l-1-1v-1h-1v-3h-1l-1-1v-2h3-3v-1h3l-1-1h1l1 1v1-2h-1v-1h1v1h1V8h-1v2l-1-1V8l-1-1-1-1h1zm-6 4h1l1 1h1v1h-1v2h-1v-2l-1-1v-1zm12 20h1l2 2 1 1h-2l-1-1h-1v-1l-2 1v-2h1z"/>
</svg>
