<svg xmlns="http://www.w3.org/2000/svg" viewBox="0 0 77 43">
  <path d="M42 0h1v1h2l1 1v2h1V3h1v1-1l1 1h2v1h-1v1h1V5l1 1V5h3l1-1h1v1l1 1 2 2 1 1 3 6h1v-1h1v1h1v1h2v-1h2v1l1 1 1 1 1 1h1v-1h1v1l1 1h-1v1h-1v4h-4l-1 1v4h-4v1h1v3l1 1h-1v2h-1l-1-1h-6l-1 1h-1l-3-1h-1l-1 1v1h-4l-1 1h-1v1h-1v1h-1l-1 1v1h-2v-1h-2l-1-1v-1l-1-1v-1h-1v-1l-1-1h-6l-1-1-1-1v-3h-2l1-1v-1h-1v1h-2v1h-2l-3 1v9h-1v-1l-1-1-1-1h-1l-2 1v-4h-2l-1-1v-2l-1-1v-1l1 1h1l-1-1v-1h3v-1l1-1v-2h-1l-1 1v-1h-1l-1-1-1 1H7h1l-1 1H5v-1h1-2 1l-1-2-1-1v-1H2l-1-1h1-1v-1H0v-1l1-1v-2l1-1v-1h1l1 1v1l1-1v-1h1v-1l1-1h1l1-1 1 1h2v1h2l1 1v1l1 1v-1h1v1h2v-1h2l1 1v-1h1v1h1l1 1h3l1-1v-1h-1l-1-1-1-1 1-1 1-1h-1V9h3l-1-1-1-1h1-1V5h2v1-1h3l1-1h1V3h3l1-1h1V1h1V0h1zM24 31h1v1h-1v-2z"/>
</svg>
