<svg xmlns="http://www.w3.org/2000/svg" viewBox="0 0 54 77">
  <path d="M16 0h1v1h2v1l1 1 1 1v1l1 1v2h1l1-1v1l1 1-1 1v1l-1 1h1v2h1v1l1 1h1l1 1h1v1l1-1v-1h4v1l1 1 1 1h1l-1 1h-2l1 1h1v2h2v2l-1 1v1h-1l-1 1h-1v-1h-4l1 1v1h-2v1h1v1h1l1 1h1v1l2 1v1h1v1h2v4h1v1h1v1h1v3l1 1 1 1 1 2 1 1v-1 1l1 1v1h1v5h1v-1h1v2h1l1 1v1l1 1h1v1h-2v1h-1 1v2h1l1 1v1l1 1h-1v1l-1 1v2l-1 1h-2v1h-1l-1 1h-1l-1-1v-1h-1v-1h-1l-1 1h-3v1l1 1v1h-1v1l-1-1h-1v-1h-1v-1h-2l-1-1v-1h2v-1h1v-3l1-1h-1v-2h1l-1-1h1v-1h1v-1l-1-1-1-1v-2l-2-1-1-2-1-1v-4l1-1v-3l-1-1v-1l-1-1-1-1v-1l-1-1v-1l-1-1h-1l-1-1-2-1h-1l-1 1h1-1l-1 1v1l-1 1h-3v1-2h-1l-1-1h-1v-1h-2l-1 1-1-1v1l-1 1H8v1H7l-1 1H5v1l-1-1v-3h1v-1l1-1v-2H5v-1h1v-1h1v-2l1-1v-5H7l-1-1-1 1H4l-1-1v1l-1-1v-2h1v-2h1v-1H3l-1-1v-1H1v1H0v-1l1-1 1-2h3v-1H4v-1h1l1-1 1-1h1V8l2-1v2h1v1h1l1 1h2v-1h-1l1-1V5l-1-1V2h1V1l1-1z"/>
</svg>
