<svg xmlns="http://www.w3.org/2000/svg" viewBox="0 0 60 77">
  <path d="M49 0v1l1 1 1 1h2v1h-2v2l-1 1-2 1h1l1 1h3v1l1 1h1l1 1h1v2l-1 1 1 1v1l1 1h1l-1 1v2l1 1 1 1h-1v1l-1 1-1 1-1 1-1 2v1h-3l-1 1h-1v1l-2 3-1 1v1l1 1h1l1 1h1v1h-1v1h-1l-1-1h-2l-1-1-1 1h-4v1h-2l-1 1-1 1v1l-1 1-1 1v1l-1 1v1l1 1h2v1h1v1h1l-1 1-1 1h-2l-1 1v1h1l-1 1v1h-1l-1 1-1 1-1 1-1 1-2 2h-2v1l-1 1-1 1h-2v1l-1-1v-1l-1 1v1l-1 1v4l-1 1v1h-2v1h-2l-1 1H9v-2H0l1-1 1-2 1-1 1-1v-3H3l1-1 1-1v-2l1-3 1-2 2-2 1-3 1-1v-1l1-3v-1l1-1v-1l1-2 1-3v-3h2l2-1v-1l2-2v-1l-1-1 1-1v-3h1-1v-5l1-2v-2h1l1-1 1-1v-1l2-2h1v-2h1l3-2h1V8h1l1-1V4l-1-1V2h1l2 1 2-1h3l1 1h3l1-1V0z"/>
</svg>
