<svg xmlns="http://www.w3.org/2000/svg" viewBox="0 0 38 77">
  <path d="M25 0h2v1h3v2l-1 1h-1 1v1l1 1h1v3h1V8h2v1h1v1l1 1v1l-1 1h-1l1 1v1h1v1l-1 1h1v3l1 1v2h1v10l-1 1-1 1-1 1v1h2l-1 1-1 1h1v1h1v3h-1v1h-1v1h-1v1h3-1v1h2v1h-2v1h1-1v4h-1l1 1h-2v1h2v1h-1l-1 2v5h-1v1h-1v1l1 1h-2v1-1h-1l-1-1v1h-1v3h-1l-1 2v2h-1v1l1 1v1h-1v1l-1-1h-1l1-1v-1l-1-1h-4v-1h-2v-1h-1v-1l-1-1h-2l-1-1H9l-1-1-1-1-1-1-1-1-1-1v-1H2v-1l-1-2 1-3 1-2-1-1v-1l1-1v-2l-1-1H1l-1-1v-4l1-1 1-2v-2l1-1v-1h1v-3h2v-1h1v-2l1-1h1v-1h1l1-1H9v-1h1v-2h3l-1-1v-4h1v-1h1l1 1h1v-1h-1l-1-1v-1l1 1h1l1-1h1v-1h1v-1l1-2-1-1V8h2l1-1 1-1v1h1V6h-1V5l-1-2h-1 2V2l1-1z"/>
</svg>
