<svg xmlns="http://www.w3.org/2000/svg" viewBox="0 0 44 77">
  <path d="M11 0h1l1 2 1 1 2 2 3 2 2 2 1 2v-1h-1l1 1h1l1 2h-1l1 1 1 1v1h1-2l1 1h1l1 1 1 1v1l1 1h1v1l1 1v2h-1 1l-1 1h-1 1l1 1h1v-1h1l1 3v-1h-1l1 1v2l1 1v2l-1-1v1h2v1l1 1h1l-1 1h1v2l1 1 1 1v1-1h-2 1v1h1v1h1v2h1l-1 1v1h1v-1l2 4v7l-1 1v2l-1 1v1l-1 3-3 2v1h-1l-1 1-1 1-1 1h-1l-1 1h-2l-1 1h-2l-2 1h-1l-1 1h-1l-1 1h-2v1h-1l-1-1h-4l-1-1h-1l-1-1-1-1-1-1v-2H7v-3l-1-1v-2l-1-1v-2l-1-3v-5l-1-1h1v1-1l-1-1v-4l-1-3h1v-1l-1-5-1-5v-2h1v-2 7h1v-6l1-1v-4h1v-1l1-1v-2l-1-1v-3h1l1-1h1v-1l1-2v-2l-1-1V8h2V6L8 5h1l2 1h1v1h2l1-1 1 1h1l1 1-2-2h-1l-2-1-3-1 1 1h-1L9 4H8L7 3H6V2H5V1l1-1h3l1 1h1v1l1 1h1l1 1 1 1-3-3-1-1-1-1zM5 1v2l1 1-2-1V1zM3 4l1 1H3zM0 5l1 1-1 1V6zm2 9l2 1 1 1H4h1l-1 1v-1l-2-1-1-1h1z"/>
</svg>
