<svg xmlns="http://www.w3.org/2000/svg" viewBox="0 0 75 77">
  <path d="M31 0v2h2v1h2v1h1v2h-1v1h1v1l1 1v4l1 1v5h-1v1l-1 1v1l1-1h3l1 1 1 1 1 1v1l1-1h1l1-1 1 1v-1h1v-1h-1l1-1h1v-1l1-1v-3h3v1l1 1 1 1v1l1 1v3h1v2l1 1v1l-1 1v4h-1v1h-1v1h-1v1h-1l-1 1h1l1 1h2v2h2l1 1h5l1 1h1v3h1v2l2 1v-1l2 1v1h2l1 1v3l1 1h-1v4h1v1h-1v1-1h-1v3l-1 1v3h-1v2l1 2v7h-2v-1h-3v-1h-1l-3-2h-4l-1-1-1-1-3-1-1-1h-1l-2-1-1-1-2-1h-1l-3-2-1-1h-1l-1-1-1-1-1-1-2-2-1-1h-1v-1l-1-1-2-1-1-2h-1l-2-2-1-1v-1h-1l-1-1-1-1-1-1h-2 1l-1-1-1-1 1 1h-1l-3-1-2-1h-1v-1h-1 1l-1-1-1-2-1-1H9l-4-2-1-1H2v-1l-1-2-1-1 1-1v-1h1v-2h1v-1l2-1v-1h1v-1l1-1 2-1 1-1 4-3 1-2 1-3V9h1V8h3l1-1V4l1-1V1h4v2-1h1l1-1h2l1-1z"/>
</svg>
