<svg xmlns="http://www.w3.org/2000/svg" viewBox="0 0 77 77">
  <path d="M52 1l1 1v2h2l1 1v2h2l1 1V7h1v1h1l-1 1h1v3h2v-1 1h1l1 1 1 1v1h1l1 1h1v1l1 1h2l1 1 1 2h-1v1h1v1h1v1h1v2l1 1v1l-1 1v1l-1 1v1h-2l-1 1v4h-1v2h-2l-1 1-1 1v2l-1 1v2l1 1v1h1l-1 1h-1v1l-1 1h-1l-1 1-1 1h-1l-1 1h-1l-1 1h-2v1h-3l-1 1h-9v1l-1 1v1h-1v1h-3v2l1 1v3h-1l-1 1h-1v5h-1v3l-1 1v-1h-4l-1-2h-6l-1-1v-1h-1v-1h-1l-1-1v-2h-1l-1-1v-1h-2v-2l-1-1-1 1h-1v-2h-1v-3h1v-2h-2v-1l-1-2-1-1-1-1-4-10-1-1H1v-1H0v-2h1v1l1-1 1-1 1-1h2l1-1h2v-1l1-1h1v-1l1-1v-1h1v-1h-1 1v-1l1-1 1-1h1v-1h1v-1h-1v-1h1l1-1 1-1v-1h1v-2h1l-1-1h1v-1h2l-1-1 1-1 1-1v-1h1l1 1v-1h1v1l1-1 1-1h3V9h1V8l1-1V6h1V5l1 1V5h1l1-1 1 1h2V4h1v1-1h1V3l1-1h1V1h5l1-1z"/>
</svg>
