<svg xmlns="http://www.w3.org/2000/svg" viewBox="0 0 77 60">
  <path d="M51 0l1 3v1l1 1 1 1h1l1 1h3V6v1h2l1 1 1 1 3 2v1l1 1 1 1h1l1 2 1 1h2l1 1v1l-1 1v4l-1 1 1 1h4v1h-1l-1 1v1l-1 1h-4l-1 2v1l-1 1-1 1h-3v1h-1v7l-1 2v2l-1 1-1 1 1 1h1l1-1v2h1v1l-1 1v1h-3v-2h1l-1-1-1-1-1 1h-2v1l-1 1-1 1h-3l-1 1v1l1 1v1h-4l-1 1-2 1h-1v-1h-1l-1-1v1h-6l-1 1v-1h-2v-5l-1-1-1-1h-1l-1-1-1-1h-1v-1h-1v-1h-2v1l-1-1-1-1v-3l1-1v-3h1v-1h1v-2l-1-1h-1v-1h-1v-1l-1-1v-1l-1 1h-7v-1h-2v-1H9l-1-1-1-1H5l-1-2H3v1l-1-1h1v-1H2v-6l-1-1v-2l-1-1V9l1-1h1l1-1V6l1-1h1l1-1h1V3h2l1-1h1l2-1h8v1h3l1-1 1 1v1h2V2h3l1 1h1l1-1h2v1h2l1 1h1l1 1V4h1l1-1 1 1h2l1-1 1-1 1-1h1V0z"/>
</svg>
