<svg xmlns="http://www.w3.org/2000/svg" viewBox="0 0 54 77">
  <path d="M20 0v1l1 1h2l1-1h2l1 2-1 1 1 1v5l-1 1v2h1v2l1 1v4h1v2l1 1 1 1h2v3l1 1 2 3 1 1h1l1 1 1 1v2h1l1-1 1 1h1l1 1v1h1l1 1h3v-1l1 1 1 1h1v-1h1l-1 2v4h-1v1l1 1v1h-1v1l-1 1v1l-2 2-1 1-1 1h1v1l-1 2v1l-1 1v1h-2v2l-1 1v1l1 1-1 1v9h-1l-1-1h-1v-1h-2l-1-1v-1h-1v-1h-7v2h-3v2h-1v2h-1v-1h-3v1l-1-1-1 1h-3v-4l-1-1h-5l-2-1-1-1-1-2-1-1 1-1 1-1 1-1 1-1-1-1H7l1-1 1-1v-1l1-1 1-1v-3l-2-1-1-1 1-1v-2l-1-1H6v-3H5v-2l-1-1-1-1-1-1H1v-7h1v-1l-1-2H0l1-1 1-1v-3l1-1v-1h2v-1h1l1-1v-1l-1-1v-1l1-1 1-1 1-1v-2l-1-1 1-1h1v-1l1-3 1-1 2-1h1l1-1V1l1-1h2z"/>
</svg>
