<svg xmlns="http://www.w3.org/2000/svg" viewBox="0 0 77 45">
  <path d="M46 0v1h1v1h1l1 1h1l2 1h1v1h-1v1h2v1l1 1v1h2v1h2l1-1 1-1h2v1h2l1 1h1l1-1v2l1 1 1 1h1l1 1v2l-1 1v4l1 1 1 1v2l1 1v1h1v2l1 1v2l1 1-1 1v1l-1 1-1 1h-1v2h-1l-1 1v3h-3v-1 1h-2l-1-1h-1l-1 1v1l-1 1h-5v-1l-1-1-1-1-1-2h-1l-1-1-1-1-1-1h-1l-1-1v1h-2v-1h-2l-1-1v-1l-1-1v-1l-1-1v1h-2v1h-1v1h-1v1h-1v-1h-2v1h-1l-1-1h-1v-1h-8l-1 1-1-2h-1v1h-2l-1-1h-4l-1-1-1 1h-1l-2 1H6v1H5l-1 1H3v1H2h1v1H2l-1 1-1-2v-5l1-2v-5l1-1 1-1 1-1 1-1v-5l1-1 1-1v-1l1-2V9h4l2-1 1-1 2-1h1v3l2 2 1 1 1 1 1 1v1l1 1v2l1 1 1 1 1 1h3l2-1v-1l3-2 1-2V8l-1-4h1l1-1 1-1v1h1V2h2l1-1h1V0l1 1h1v1-2z"/>
</svg>
