<svg xmlns="http://www.w3.org/2000/svg" viewBox="0 0 64 77">
  <path d="M59 0l2 1 1 1v6l1 1 1 6v1h-3l-1-1-1-1-1-1h-1v1h-1 1v2h-1v-1h-2l-1 1v1h-1l-2 2v2-1h1l-1 1v1l-1 1v1l-1 1-1 2-1 2-1 2v3l-1 1v3l-1 1-1 1h-1l-3 1-1 3 1 1-1 1v-4l-5 1h-5l-1 2v2h1l1 1v1-2 1h1v-1l1 2v1-1h-1v1h-1v-1 2h-1l1 1v1l1 1h1v-2 2l2-1v-1 1h1l1-1v1-1h1v1-1h4l-1-2v-2l1 2v2l1 1v3l-1 1-1 2-1 1v1h-2l-1 1h-1l-1 1-1 1h-2l-1 1v1-2h-1l-1-2h-2l-1 1v-1l-1-1v-1h-2v-1l-1 1-1 1h3v1h-1v2l1 1v1h5-1l1 2 1 1 2-1h1l-3 2-3 2-2 2-3 3-6-5-10-7-3-2 1-2 3-3v-1h4v-9l3-3 8-7 4-4h1l2-1 1-1v-1l1-1 1-1h1l1 1 2 1v-1l1-1 1-1 2-2 1-1v-1l1-1 1-1 1-1v-4l1-1v-1l1-3 1-1h1l1-3 1 1 1-1h2V7h2l2-1h3l1-1 2-2V2l-1-1V0z"/>
</svg>
