<svg xmlns="http://www.w3.org/2000/svg" viewBox="0 0 60 77">
  <path d="M15 0h1v1h3v1h1l1 1 1 1h1l1 2h1l1 1h2V6l1 1v1h-1v1h1l1-1v2h1V9l2-1 1 1h2l1 1v1l1 2 1 1h2v-1h1l1 1v4h1l-1 1v4h-1v2l1 1h1v1h1v1h1v1l1 1 1-1h2v2h-1l1 2-1 1-1 1 1 1v-1h1v4h1l1 1h1v1h2l1 1 1 1v4l-1 1v2h1l1 1 1 1h1v1h-4l-1 1-1-1h1l-1-1-1-1-1 1v1h-2v-1h-1v-2h-1v1l-1 1h-1v-1l-1 1v1h-1v-4h-1l-2 1-2 1v5l1 1 1 1-2 2 1 1v1l-4 2v3h-1v1h-1v1h-1l-1 1-1 1 1 1v2h-1 1v1h-5v1l-1 1-1-2v-1l-1-1 1-1v-4l-1-1v-7l1-1v-3l1-1v-2l1-1-1-1v-1l1-1v-2l-1-2v-1l-1-1v-3l-2-3h-1v-1l-2-1v-1h-1v-2l-1-1-2-2-1-1v-2h-1v-1l-1-1v-1l-1-1-1-1-1-1v-1h1l-1-1v-2H9v-2l-1-1v-1H7v-2L6 9H5l1-1H5V7H3V6H2L1 5v1H0V4h1V3v1l1 1h1V2h1l1 1h2V2h1l1 1h1l1-1 1-1h1v1-1h1l1-1z"/>
</svg>
