<svg xmlns="http://www.w3.org/2000/svg" viewBox="0 0 65 76">
  <path d="M19 0h1l1 1v1h1V1h5v3l2 1 3 2 1 1 2 2h1v1l1 1 1 2h1l1 2 1 1 5 1 2 2h2v-1l1 1 1 1v1l2 1 1 1-1 1 1 1h2l2 1h2l1 1h1v1l1 2h1v1h-1v1h-3l-1 1v2h-4v-1h-1l-2 1-1 2 1 1 2 1h1v1l-1 3v1h-1l-1 1-1 1h-2l-1 1h-1l-1 1h-1l-1-1-1-1v-3h1l-1-1v-2l-1-1v1h-1l-1 1-1 1-1 2v1l-1 1-1 1v2h-1v1l-2 2-1 1v2h-1v1h-1v1h-1v-1 2-1h1v1h-3v-1h-2l-1 1v-1h-1l-1-1-1-1v1l1 1v2h3v2l1 1v1h1l1 1h1l1 1 1 1v5h-1v3h1v1h-2l-1-1h-1l-1-1-2-1-1-1v-3l-1-1-1-2v-1h-1v-1h-2v-1h-1v-1h-1v-1l-1-1-1-1v-1h-2v-1l-1 1h-1v-1h-1v-1H9v-3H7l-1 1-1-1v-1H4v-1h3l1 1h1v-1l-1-1v-1l1-1v1l2 1v1-3H9v-1H8l-1 1h1v1l-1 1H3v-1l-1 1h1v1l-1-1-1-1-1-1 1-1v-2l1-1 1-1v1h1v-1l-1-1 2-1-1-1v-2h1l-1-1H3l-1-1-1-1v-3l1-1v-1h1l-1-1v-2l1-2v-1l1-1h4v-3l-1-2h1v-2l1-1 1-1H9v-1h1l1-1 3-2V9h3l1 1v1h-1l1 1 1 1h1v-2h1V9l-1-1V6l-1-1h-1V3l-1-1v1-1l1-1 1-1z"/>
</svg>
