<svg xmlns="http://www.w3.org/2000/svg" viewBox="0 0 77 68">
  <path d="M68 0h1l2 2v3l1 1v1l1 1v1l-1 1h-1l-1-1h-1l-1 1v2h1v2l1 2v2l1 3 1 1h1l3 2v1l-1 2h-2l-1 1v3l1 1v1h-1l-1-1v-6l-1 1-1 1-1 1h-1l-1 1-1 1v1h4l1 1h2v1h1l1-1h1l1 1v6l-1 1-1-1-1-1h-1v1l1 1h1l-1 1v4h1-1v1h-1l-1 1-1 1v2l-1 1 1 1v2h-1v1h-1v1h-1v1l1 1v1h-1l-1 1v1l-1 1h-1l-1 1h-1v1l-1 2-1 1h-1l-1-1 1-3v-1l-1-2v-2h-1l-2-2-4 1-1 1v4h-1v-2l-1-1-2-1-1 1-1 1h-1v-1l-3-1h-1l-1-1v-1l-3-1-1 1h-1l-1-1-1-1-1-1 1-1v-2l-2-2-4-2h-2l-3 1v2l-1-1h-1l-1-1h-1l-1-1-1-2v-1l-3-2H9v-1H8v-1l-1-1v-2l-6-2-1-1 1-2 2-2v-2h4l3 1 3 2h2l2-1 1-2 2-1 1-1h1l-1 2v2h-1v2l2 1 1 1 2 1 2 1h2l1-1 1-1h2l2-1v-1l1-1v-2l1-1 1-1v-2l-1-2v-2l1-1 1-1v-1h1l1-1h1v-1l1-2v-1h2l2 1h3l2-3h1V6l1-1-1-1 2-1 1 1 2 1h1l1 1h1V2l2-1h3l2-1zm8 10l1 1-2 1h-1v-1l1-1zm1 10v1h-1v-1z"/>
</svg>
