<svg xmlns="http://www.w3.org/2000/svg" viewBox="0 0 39 77">
  <path d="M32 0h1v1h-1l1 1h-1 2v2l1 1h1v3h1v4l1 1v4h1v4l-1 1-1 1v-1l-1-1v-1h-1v4h1v2l-1 1v1l-1 1v1l-1 1h1v2l-1 2v2l-1 1v2l-1 2v1l-1 1v1l-1 2v1l-1 3v2l-1 1v1l-1 2v1l-1 1v4l-1 1v2l-1 2-1 1v3h-1v1l-1 1h-3l-1 1-3 1-1 1h-2v-1H9l-1-1H6v-1H5l-1-1v-1l-1-1-1-1v-3l1-2-1-1v-2l-2-2v-4h1v-3h1v-1h1v-1l1-1 1-1v-1l1-1v-1h1v-1l-1-1 1-1-1-1v-2H5l1-1-1-1v-1l-1-1v-5l1-1v-1l1-1v-1l1-1v-1H6v-1h3l1-1h2-1 2v-1h2v-1h1v1h1v-1l1-1 2-2v1h1l-1 1h1v-2l1-1v-1h1v2-1l1-1 1-1h1v1-1h-2v-1l1-1v-1h1v1-2h-1V9h1l1 1v1-1l1-1V8h2V6l1-1V4h-1V3h1V2h1V1zm0 1zM6 74v1zM27 7l1 1h-1V7zm1 1v1h-1zm9 19l-2 2h1v-2z"/>
</svg>
