<svg xmlns="http://www.w3.org/2000/svg" viewBox="0 0 77 60">
  <path d="M54 0v1l3 2 1 1 1 1v1l1 1h1v2h1l1 1 1 1h1l1 1h1l1 1h2v1h2v5h1v1l1 1v1l1 1h1l1 3h-1v1l-1 1-1 2v1h1v9h-2l-2 1h-2v3l-1 1h-1l1 1v1h1v1h-2l-1-1-1 1-1 1v1l-1-1h-3l-1 1v-1h-3l-2-1h-2l-1 1h-2l-1-1v1h-2l-1 1-1 1v1l-1 1-1 1-1 1-1 1v1h-3l-1 1v1h-1l-1 1h-1v-1l-1-1h-3l-1 1h-1l-1 1h-2l-2-1v1h-2v-1l-1-2v-1l-1-1h-1l-1-1v1h-1l-1 1v1h1l1 1v1l-1-1h-2v-1h-1l-1 1-1 1-1-1 1-1v-1l1-1v-4l-1-1-1-2H7l-1 1v2H4v-3l-1-1H2v-5H1v-1h1v-1l1-1v-1l-1-1v-1l-1-1-1-1v-1l1-1h1l1-1v-1l-1-1v-4l1-1v-1h1v-1l-1-1 1-1h1l1 1v-1h2l1-1 1-1v-1H9l1-1H9v-3h1v-1h1l1-1h2v-1h1V9h1l2-1 1-1h2l1 2 1 1 1 1h1V9l1-1V7l1-1 1-1h1v1-2h2l1 1h4l1 1V5h1l1-1 1-1h1V2h1v1h2V1l1 1 1 1h3l1-1h1l1-1h1l1-1z"/>
</svg>
