<svg xmlns="http://www.w3.org/2000/svg" viewBox="0 0 35 77">
  <path d="M21 0l1 1h1v3h2v7l-1 1h-1l-1 2v1l-1 1v3h1l1-1h3v4h2v3l-1 1h2v1h1v1h1v1h2v-1h2v1h-1l-1 1v1h-1 1v1h-1l-1 1v1-1h-1v1h-2 1l-2 1v1h-2v1h-1l-1-1-1 1v2l-1 1h1v1h-2v1h1v1h1v1h-1l1 1 1 1 1 1 1 2v1h1v1h-1v3l-1 1v2l1 1 1 1 1 1v1h1v1l-1 1v1l1 1 1 1v2l1 1-1 1v1h-1v1l-1 1v1h-1v3l-1-1v-3h1v-3l-1-1h1-1v-1h1l-1-1v-4l-1-1v-1 1h-1v-4l-1-1v-3l-1-2v-2 1-1l-1-1-1-1v-1l-1-1v3l-1 1-1-1h-1 1v1l-1 1h-1l-1 1-1 1v-1 1h-1v-2 1l-1 1v-1H8l1-1v-1 1H8v1H7l1-2v-3h1v-3l-1-2v-2H7v-2 2H6v-1H5v-1h1v-1h1-1v-1H5l-1-1H3v1-2H2v-1H1v-1l-1-1v-2h1v1h1v-4h1v1-1l1-1v-2l1-1v-4 1h3l1-2v-1h1v-3l1-1v-1l1-1-1-1V8h1l1-1h1l1-1 1-1h2v1h1V5l-1-1 1-1h1V0h1zM5 40l1 1H5v-1zm19 26h1l-1 1v-1zm-1 1zm0 0v1zm0 2v1-1zm1 1v-1zm1-1v1z"/>
</svg>
