<svg xmlns="http://www.w3.org/2000/svg" viewBox="0 0 77 38">
  <path d="M27 0l1 1h1l1 1h2v1h2v3h1v1h6V6l2 1h1l1 1h1l1 1 1 1h3v1h3l1-1h1l1-1h2V8l1-1h1V6h3v1h1V6h2v2l-1 2v4h2v-1l2 1 1-1v-1h2v1h1l1 1h1l1 1v1l-1 1h-4v1h-1l-1 1-1 1-1 1v1h-1l-1 1h-2v2h-1l-1 1h-1l-1-1h-1l-2 1v1l1 2v1l-1 1-1 1-1 1-1 1-1 1h-6l-5 3h-4l-3-1-1-1h-1l-1-1h-2l-2-1h-4l-3-1h-4v-1l-1-2v-1l-1-1v-1h-1l-1-1-2-2h-1l-1-1H7l-1-1H5l-1-1v-1l1-1v-1l1-1v-2H5v-2l-1-1-1-1H2v-1H1V9L0 8V7l1-1 1-1 1 1h1V5h2V4h2l2-1h3v1h3v2h1l1 1h3l1 1h1l1-1 1-1V5l-1-1V3l1-1 1-1 1-1z"/>
</svg>
