<svg xmlns="http://www.w3.org/2000/svg" viewBox="0 0 64 77">
  <path d="M30 0h5l13 6 6 2 4 1 3 4 1 4-1 3 1 4v1l-1 1 3 8v1l-1 1h-1l-1 1-1 1-1 1h-1l1 1 1-1 1-1-3 5-4-2v-1l-2 2 1 1-1 1-1-1v1h1l1 2 1 2v1h-1l1 1v2h1v1h1-1l1 1v1h1v1h-3v-2h-1v-1h-1v-3h-1v-1l1 8h1v1h1v-1l1 1 2-1 3-1h4l-4 1h-2l-5 2-6 2-3 1 1 1v1h-1v-2l-2 1-2 1-2 1-1 2h-1l1-1 1-1-4 1-2-4-2-4v-1 1h-1v1h-1l-1 1-1-1-6-4v1l-1 1-1 1v6l3 3v1h1l1 1 3 1 8-2 1-1h2l-3 2h-2l-2 1h-3l-1 1-1 1-4 3-5 1h-6l-4-1v2l-1-1v-1l-2-1-1-1v-1l-1-2-1-3v-2h3v1h1l1-1H3v-1H2v-1 1h1v-2h1v-2H3v-1l1-1 1-2 1-1 1-1 3-5 1-1 1-2h1v-1h-1l1-1v-2h1v-3h1l-1-1v-1h1v-4l1-1v-2h-1l1-1v-3l1-1h3l3-1h-1v-1h-3l-2 1-1-1v-1l9-3-2-6h-2l-1 1h2-1v1h1-1v1h1-2l-2 1h1l-1 1h-3 1v1l-1-1h-1v-2l-1-1v-3h-1l1-1h-1l-1-1V9l4-2 3 1h4l2 1 1-2 2-3 1-2 1-1zM16 64h-2l-1 1h-1v2l-1 1-2 1v3l-2 1H6l-1-1H3l1 1 5 2 2 1h2l1-1v-1h1l-1-1 2-1v-3l-1-1v-2l1-1v-1z"/>
</svg>
