<svg xmlns="http://www.w3.org/2000/svg" viewBox="0 0 65 77">
  <path d="M12 0h3l1 1h2l1 1 2 1 1 1h1v1h1l1 1h1v1h4l1 1v1h1l1 1v1h2v2l1 1h1v2h2v2l1 1 1 1v2h2v-2l2-1h1v-1l1 1h1l2-1 1-1 1-1h2l1 1h-1v1h1v1h-1l-1-1h-1v1h-1 2v1h-1v1h-1v1h1v1h-2l-1-1-1-1h-1l-1-1-1 1v1h-1v1h1-1v2h1v1l1-1h1v1h-1v1h1l1-1h1v1l1 1h1v1h-1l-1 1h-2l-1 1h1v1l-1-1h-1v1l-1 1h1v1l1 1h2l1-1h2l1 1 1-1h1l-1 1h-1v1h-2v1h1l1 1v1l-1 1 1 1h4-1v1h-1l1 1 1 1h-1l1 1h1v1l1-1h1v2l1 1h-2v1h2-1l1 1v1l1-1 1-1h1-1v1l-1 1v2l1 1-1 1h2v1h-1l-1 1v1h2v3h1v1l1 1-1 1h-1v1h1v2l-1 1v1l-1 1-1 1v1h-1l-1-1v1l1 1h1v1h-2v1l-1 1h-1l-1 1-1-1-1-1-1-1v-1h-1v-1h1l1-1v-2l-1-1h2v-1h1l1-1v-1h-3l-1 1-1 1v1h-1l-1-1-1-1v-1h-2l-1 1h-1l-2-1h-1l-1-1-1 1h-1v-2h-1v1h-1v1h-1v-1l-1-1v1h-1l-1-1-2 1h-1l-1 1v1l-1 1h-2l-1-1v-1h-2v-1h1l-1-1v-2h-1v-1l1-1h-3l1-1v-2h1v-1l1-1 2-1v1l1-1v-1h1v-1l1-1v2l1-1h1v1h-1l1 1 1 1h3v-1 1h1l1-1v-1h1v-1h-1v-1h-2v-2l-1-1v-1l-1 1v-2h1v-1l-1-1h1l-1-1v1h-2v2h-2v-1h-1v1h1-1v-2l-1 1h-5v-1h-1l-1-2-1-1h-1l-2-1h-1v-2h-1l-1-1v-1l-1-1-2-3-1-1-1-2v-2l1-3v-2l-1-1-1-1-1-1-1-1v-1H3l-1-1-1-2v-2H0V9l1-2V6l1-1 1-1V3h1V2h2l2-1 1-1h1zm40 29h2v1h-2v-1h-1zm1 10zm5 3l1 1h-2l1-1zm5 28v1h-1v-1z"/>
</svg>
