<svg xmlns="http://www.w3.org/2000/svg" viewBox="0 0 48 77">
  <path d="M20 0h1v1h3l1 1h1l1 1h1l1 1h1v1l1 2v2h-1v1h1l1 1h-2 1v1h-2l1 1 1 1v2l1 1v1l1 2 1 1 1 1v3l1 1v1l2 3h1v1l2 1 1 1 1 1h1v3h1v2l1 2v1l-1 1v4l1 1v4l1 2v2h-1v1l-1 1v1l1 2 1 2 1 2v1l-1 1-1 1v1h-1v1l-1 1-1 2-1 1-2 2H30l-3 1-2-1h-1l-1-2-1-1h-1l-2-1-1-1-1-1h-1l-1-1v-1l-2-2v-1l-1-1v-1h-2v-1H9v-1l-1-1v-2l-1-1-1-2-2-1H3l-1-1H1l-1-1 1-1 1-1 1-2v-1h1v-6l-1-1v-1l1-1 1-2h1v-2h1v-1l1-1 1-2v-1l1-1v-2l1-4v-1h1v-2h1v-1l1-1v-1l1-1v-1h1v-1h1V9l1-1V2l1-1 1-1z"/>
</svg>
