<svg xmlns="http://www.w3.org/2000/svg" viewBox="0 0 77 67">
  <path d="M8 0h3l1 1h2v1h3v1l1 1h1v1h1V4h1l1 1 1 1h1V5l1 1v1l1 1h1v1h1l1 1 1 2h-1l-1 1h-1v1h-1v-1h-3l-1 1h1-1v1h-2v1h-2l-1-1v1h-1v1h-2v-1l-1-1H7v-1H6v-1l-1-1H1v-1H0h1V9l1-1H1V4H0V3l1-1h2V1h2l2-1h1zm22 15l1 1 1 1h1v1h-2l-2 1h-1v-2l-1-1v-1h1l1 1v-1l1 1v-1zm-3 1v1h-1v-1zm1 1h-1zm8 3v1l1 1h1l-1 1-1 1h-1l-1 1-1 1-1 1 1 1h3l1-1h3l1 1h1v1h-1v1h-1v2l-1 1h1l1-1h3v-1h2l2-2v1h-1v3h-1 1v-1h1l1-1h2v1h1v1h1v-1 2h1v1h4l1 1h1v2l1-1v1h-1 1v1h-1l1 1v-1l1 1h1v1l1 1h1l-1 1-1-1h-2v1h2v1l-1-1h-1v1h1l-1 1h-1 1v1-1h1l1-1h1v-1h2v1h-1v1h-1v1l-1 1-1 1v1h-1 1l1-1v-1h1l1 1v-1l-1-1h1v1l1 1v-1l-1-1h1l1 1-1-1v-1h1v1-1l-1-1h1l1 1h2l1 1v1h1v1h1l1 1 1 1 1 1v1h-2v1h2v1h-1v1l-1 1h2l-1 1 1 1v1l-1-1h-1v1h1-1v5l-1-1v-2l-1-1-1-1v-1 3h-1v-1h-2v3l1 1h1v-1l1 1-1 1h1l1-1-1 1h-1v1h-1l-1 1h-1l-3-1h-1l-1-1h-6l-1-1v-1h-2v1h-1l-1-1h-1l-1-1h-3v-1h-1v-1h-1l-1-1h-1l-1-1v-1h-1l-1-1h-1l-1-1h-1v-1l-1-1-1-1h-1l1-1h-2l-1-1-1-1v-2l-1-2-1-1h1v-1l-1-1h3l-1-1-1-1 1-1v-1l1 1v-1l-1-1h1v-1l-1-1h-2v-1l1-1h1v-1l1-1-1-1h1l-1-1v-2h-2l-1 1-1-1 1-1v-1h1l1-1-1-1v-1l1 1h4v-1h2v-2h1zm26 29v1z"/>
</svg>
