<svg xmlns="http://www.w3.org/2000/svg" viewBox="0 0 65 77">
  <path d="M38 0h2l1 1v1h1v1l1-1h1v1l1-1v1h1l2 1h-1v1h1v1l-1 1h1v4h1v2h1v1h2l-1 1 1 1h1v1h4v2l1 1-1 1v1h-1v1h-1 2v1h-1l1 1h1v-1h1v1h1v3h1v1l1 1 1 1 1 1v1l1 1-1 1h-1v2h1l-1 1h1v2h-1v2h1v1h-2v2l-1 1v3h1-2v2h-2v1h-1v1l-1 1-1 1h-1l-1-1h-1v3l-1 1h2v1l1 1v1l1 1h1l-1 1-1 2v-1h-2 1-1v1h1l-1 1h-1v1l-1 1h-1v1l-1 1-1 1-2 1h-3l-1 1h-1l-2 1-1 1h-1l-2 1h-2l-1 1h-2v-1l-1-1v1h-3l-3-1h-2v-1h-1l-2 1v1h-2l-1-1h-1l-1-1h-2v-1H9v-2 1H8l-1 1-1-1v-1H5l-1-1v-1H2l-1 1H0l1-3 1-2v1h3l1-2 1-1v-1h1v-3h1v-1H7v-2h1v-1l-1-1v-3l2-1 1-1H8l-1-2v-5h1v-1l1-2v-3l1-1v-1h1v-2l1-1 1-1h1v-1l1-1 4-2 1 1v1l1-1v-2h3v-1h-1v-1h2-1v-1l-1-1 2-3h2v1-1h-1l-1-1v-1l1-1h-1v-1l1-2v-1l1-1V9h1l1-2 1-1 1-1-1-1V3h2v2h2V4h-1l1-1V2h1V1h2V0z"/>
</svg>
