<svg xmlns="http://www.w3.org/2000/svg" viewBox="0 0 12 77">
  <path d="M3 0h1v2L3 1V0zm3 1l1 1v1L6 4 5 6l1 1 1 1v3h1l1 1v2l-2 1v-1l-1-1v-1l-1-1v-1L4 9V8L3 6V4l1-1V2h2zM2 7H1v2H0V8h1V7zm2 5l1 1v4H3v-1H2l1-1v-2l1-1zm5 3l1 1 1 1v1H9v-1H8v-1l1-1zm-4 2v1H3l1-1zm1 1v2l-2 1H3v-3h2zm3 3zm-5 0h1l-1 1H3zm5 2v1l-1-1zm1 1l1 1 1 1-1 1h-1v1l-1 1-1-2v-2l1-1zm-5 2v1H4v-1zm-2 1l1 1v5l-1 2H2v-8zm7 2v1l-1 1v1H8v-3zm-1 5v1h1v1h2v1h-2l-1 1v-1l-1-1H7l1-2zm-5 3l1 1v1H3v-2zm5 1H8zm1 1h1v2h-1v1l-1 1H8v-4zm-5 1v3H3v-3h1zm1 5h2v2H7v1H4v-3h1zm4 4v3H7v-2h1l1-1h1zM8 61l1 1v2h1v2l-1 1H8l-2 1-1-1v-3l1-1h1v-1l-1-1h1zm1 12zm-2 3l-1 1v-1H5h1z"/>
</svg>
