<svg xmlns="http://www.w3.org/2000/svg" viewBox="0 0 29 77">
  <path d="M4 0l1 1h2l1 1h2l1 1h1l1 1v2l1 2v1h1v1l1 1-1 1v8l1 1h-1l1 1v1l-1 1v1h-1v1h-1v4h1v3l1 1v7h1v1h1v1h1v1h-1v4h1v1h1v-1l1-1-1-1h1-1 1v1l1 1 1 1 1 1 1-1h-1v-3h-1v-2l-2-1v-2l6 7 1 3 2 2v1l-1 1h1v1l-1 1v1l1 1v1l-1 1v5l-1 1h-2l-2 1v2l-1 1v1l1 1v4h-2v-1h-1l1-1 1-1h-2v-1h-1v-1l-1-1-1-1v-1l-1-1h-1v-3h-1v-2l1-1v-1l1-2h1v-7l-1-1-1-1h-4l-1 1H9v1l-1-1v-1l-1-1-1-1v-1l-1-1v-1H2v-2H1v-1l-1-1h1v-1h1v-1l1-1v-6h2l1-1h1l1-1v-1H6v-5h1-1v-4l1-1 1-1-1-1v-2H6h1v-1h2l1-1v-2l-1-1V9L8 7H7l1-1V5L7 4 6 3V2L5 3 4 2V0z"/>
</svg>
