<svg xmlns="http://www.w3.org/2000/svg" viewBox="0 0 77 53">
  <path d="M6 0L5 1l6 2 3 2h7V4h4l1 1 1 1h1l1 2v1h1v2h1v1h2v1l1-1v-1h1v-1h2l1 1h1v1l1 1v1l1 1 1 1v1h1v1l1 2 1 1h3l1 1-1 1v1-1h-1v9l1 1v2h1v2h1v1h1v1l1 1v1l1 1h-1 3l1 1h3v-1h6v-1l1-1 1-1v-3l1-2 2-1h5l1-1v1h1v1l-1 1v1l-1 1v1h1-1v1h1-1v3h-1v-2 1h-1l-1 1v1h-1l-1 1h-4v2h-1 1l1 1 1 1v1h-4v1l-1 1v2l-1-1h-1v-1l-2-1h-1v-1h-1l1 1-1-1h-2 1-1l-1 1h-2l-1 1h-1l-1-1h-2l-1-1h-1v-1h-3l-1-1h-2v-1h-2v-1h-1v-1h-3l-1-1-1-1h-1v-1h-2v-1l-1-1v-1h-1v-1h1v-4h-1v-3h-1l-1-1v-1h-1v-1l-1-1-1-1h1-2v-2l-2-1-1-1v-1h1v-1h-1v-1h-1v-1h-1l-1-1v-1h-1v-1l-1-1-1-1v-1l-1-1V9L9 8V5L8 4V3H6L5 2v6h1v1h1v2h1v1l1 1v1l1 1v1l1 1v1-1 1h1v2l1 2v1l1 1h-1l1 1v1-1l1 1h1v1l1 1-1 1h-1l-1-2h-1v-1l-1-1h-1v-1h-1v-3l-1-2H8v-1H7v-1 1l-1-1-1-1H4v-1l-1-1h2v1h1l-1-1h1-1v-1l1 1v-1l-1-1v-1l-1-1V9H3L2 7V5L1 4V2L0 0z"/>
</svg>
