<svg xmlns="http://www.w3.org/2000/svg" viewBox="0 0 63 77">
  <path d="M8 0h1l1 2 1 1h1l2 1 1-1 1 1v2l1 1h1V6v1h2v1h-1l1 1v2h-1v2l1 1v1h2v-2h1l1-1 2-1h1v1h1v2l1-1v1h1l1-1 1-1v-2h1V9h1V8h-1l1-1 2 1 2 1v1l1 1v1l1 1 1 1 4 3 1 1h1l1 2v1l3 5 1 2v6h1l-1 1v1h-1v3h1-1l-1 2v1l1 2v1l1 1v1l-1 1 1 1v7h1l2 2h1l1 1v2l1 1v1l1 1v1l1 3 1 1v1l1 2 1 2v1h-1v1h-2v-1h-3v-1h-2l-1 1-1 1v1h-1l-1-1-1-2v-1h-1v-1h-1l-1-1-2-1h-1l-1-1v-1h-3l-1-1v-2h-1l-1-1h-2l-1-1-2-1v-1h-1l-1-1h-1v-1l-1-1-1-1h-1l-1-1-2-1v-1h-1l-1-1v-2h2l-1-1v-2h-1l-1-1v-1l-1-2-1-1-1-1-1-1-1-1-1-1v-1l1-1-1-1-1-1v-1l-1 1v-3l1-1v-1l-1-1h1v-1 1l-1-1v-1h1-1v-2h-1l-1-1v-5H9l-1 1-1-1v-2l2 1h1v-2l-1-1v-1h1v-2L9 8 8 7V6H7V2l1-2zM3 3v1h1v1H2v1H1v1-2L0 4h2V3zm0 3L2 7V6z"/>
</svg>
