<svg xmlns="http://www.w3.org/2000/svg" viewBox="0 0 49 77">
  <path d="M48 0v1h1-1v3h-1l1 1h-1v2h1l-1 2v1l1 1h-1 1l-1 1v1-1 7-1 2h1-1 1v1l-1 1v1h-1 1l-1 1v1h-1l-1 2v1h-2v1l-1 1h-1v1h-1l-1 1h-3l-1 1h-1l-1 1h-1l-1 1-1 1-2 3h-1v1h-2l-2 2h-1v1l-2 1v1h-1v2l1 1v3-1h1v4h1v2l-1 1 1 1-1 1v2l-1 1v1-1h1v1l-1 1-1 1-1 1-4 2-5 2-1 1H6v2h1v3l-1 1H5l-2-1v-4l1-5v-4H3v-1l-1-1v-4l2-3 2-2 2-2v-3h1l1-1v-1l1-1v-1l-1-1v-3h1v-6l1-1-1-1v-1l1-1h-1v-1h-1l-2-1H7v-1H6l-1-1H1v-3H0v-1l1-1 3-1 2-1 4-1 4-1 1 1v1l1 1v-1h3l1 1v3h-1v2l-1 1h1v2h1v1h1v1h1v2l1-1-1-1v-1l1-1v-1h2v-5l1-1v-1l-1-1-2-3-2-2V7h1V4h1l2 1 1-1h2v1h7V4l2-1 1 1h1l1-1h3V2h2l1-1h1l1-1z"/>
</svg>
