<svg xmlns="http://www.w3.org/2000/svg" viewBox="0 0 77 47">
  <path d="M4 0v1h1v1H4V0zM0 0l1 1h1v1l2 1v1h1v1h2V4H6h2l3 1 1 1v1h1l1 1h1l1 1v1l1 1h1l1 1 1 1h2l1 1h2v2l1 1h1l1 1v1l1 1 1 1h1l1 1h-1l1 1 1 1h2v1h1v1l1 1v-2l1 1v1h1l-1 1h1v-2 1h2v2l1-1v1l2 1 1 1h1l1 1h1v1h1v1l1 1 1 1h1v1h1v1h2l1 1h2v2l1 1v3h-1l-1 1v-1h-1v-1 2h-2v-1h-1v-1h-2v-1h-2v1h-2l1-1h1v-1h-2v1-1h-1v-1 1l-1-1h-1l-1-1h-1v-1l1 1v-1h-1 1v-1l-1-1h-1v-1 1h-1v1l-1-1-1-1h-2l1-1h-1v-1 1l-1-1v-1l-1 1v-1h-2l-2-1v-1h-2l-2-1v-1h-1l-1-1-1-1v-1h-1v1h-1v-1h1-1v-1l-1 1v-1 1h-1v-2h-1l-1-1v-2h-1v-1 1-1h-2v-1h1-1v-1h-2v-1h-1l-1-1-1-1H8v-1h1l-1-1-1-1v-1H6v-1H5L4 9V8L3 7h1V6L3 5v1H2V4v1H1V4h1V2H1V1H0V0zm51 4v1h1v1h-1v3-1 1l-1 1v1h-1v-1l1-2 1-2V5h-1V4h1zm14 2l1 1 1 1h-1v4l1 1h1l1 2 1 1h1l-1 1v3h-3l-1-1v-1h-3l-1-1v-1h-1v-1h-1v-1l-1-1v-1l1 1 1-1h1l1-1V9h-1l-1-1h-2l1-1 1-1 1 1h1V6zm-17 5h-1 1zm26 13l-1 1h1v1h3v3l-1 1h-1v1l-1-1h-1v-1h-2 1v-1l-1-1v-1l-1-1h3l1-1zM40 38zm0 0h-1zm1 0v1-1zm0 1v1-1zm15 7v1h-1 1-1v-1z"/>
</svg>
