<svg xmlns="http://www.w3.org/2000/svg" viewBox="0 0 77 71">
  <path d="M10 0v2h1v3h3l1 1h5l1 1h5V6h2l1 2 2 1h1l1 1h3v1l1-1 1 1h1v2h1v1h1v1h1v-2h1l-1 1h1l1 1h-1l1 1h1v3l1 1 1 1 1 2 1 1h2l1 1 1 1 1 1h2l1-1 2 1h3l2 1h3l2 1 1 1h1v1h3v1-1h1v1h2v2h-1l-1 1v4h1v2l1 1h-1v6h-1v1l1 1v1h-1l1 1h-1l-1 1h-1v1h-3l-2-1-3 1v3l1 1 1 1h1v1l1 1h-1v1l-1 1v-1l-1 1h-1v1h-7l-3-1-1 1h-2v1l-1 1v2l-1 1h-1l-1 2v-1h-3v-1h1v-1l-1-1h-1v1l-3-2h-3v-1h-3v-1h-1v1l-1-1h-1l-1 1-1 1h-3v1h1v1h-1l-1 1h-4v2l-1-1v-1h-1v-1h1-1v-3l-1-1v-1h-1v-1h-1l-1-1h-1v-1h-1l-3-1H9l-1 1H6l-1-1h1v-1l1-1v-1h1v-1l1-1H8v-2H7v-1H6v-2l-1-1h1v-1H5v-1l1-1-1-1v-2l-1-1v-1l1-1 1-1v-1l1-1v-1l-1-1v-2H5v-1l-1-1h2v-3H5v-1h1v-5l1-2v-4H2l-1-1H0l1-1h2v-2l1-1V6l1-1V1L4 0h1l1 1h1V0h2z"/>
</svg>
