<svg xmlns="http://www.w3.org/2000/svg" viewBox="0 0 77 62">
  <path d="M19 0l2 1h3l1 2h1v1l1 1v1h2V5h1l2-1h3l2 1h1l1 1 1 1h5l1-1V5h1l1-1h3l2-1h2l2 1 3 1h3V4h1l1-1 1-1h2V1v2h1v1h1l1 1v2h1v2h2v1h1l2 1v1l-1 2h1v1l-1 1h-1l-1 1h-1l-1 1-1 1-1 1v1l-1 2v1l-1 1v3h-1l-1 1v2l-1 1v2h-2v1l-1 1v-1 2l-1 1v1l-1 2v1l-1 1v1l-1 1-1 1v2h-3v-2h-1v-1h-1l-1-1v2h-1l-1-1h-1l-1 1h-1v1l-1 1-1 1-1 1h-1l-1 2-1 1v4h-1v1l-1 1v1h-1v-1h-1l1 1-1 1h-6l-1 1v-1l-1 1h-7l-2-1-1-3-1-2v-1h1l-2-1v-1h-1l-4-4H0l1-2v-1H0v-1l1-1v-4l-1-1v-1l1-6v-1h2v-2l1-1v-1h1v-1h1v-1l1-1-1-1 1-1h1v-2H7v-2l-1-1v-3h1V9l1-1V7l2-2V3l1-1 1-1h6V0z"/>
</svg>
