<svg xmlns="http://www.w3.org/2000/svg" viewBox="0 0 77 75">
  <path d="M73 0h1l1 1h1l-1 2-1 1V2l-1 1v2l1-1v1l1 3 1 1v5l-1 1-2 3-1 2v1l-1 2v4l-1 2 1 8v8h1v1h-3v-3l1-1v-2l1-1h-2v2h1l-1 1v1h-1l-1 1v2l1 1v1l1-1v1l-1 1v4-3h-1v1h1l-1 1h-1 1v2l-1 1v1h1l1 1v1l1 1-1 1-1 1v1l-1 1-1 1v1l1 2v2l2 2v1h1v2h-2v1h-2v1h-1v-1l-1-1h-1v1l-3-1v-1h-1l-1-1v-1h-2l-1-1h-1l-2-1-3 2-1 1-8-4h-2l-2-1v1l-1 1h-2v-1l-1-1-1-2h-1l-1-1-1-1-1-1-1-1-2-1-1-1-1-1-1-1-1-2h-1l-1-2v-1l-1-1-1-1-1-2-5-3-1-1-2-2-2-2v-1H2l-2-1v-2l1-1h1v-1 1h1l1 1 1 1h1-1l2-1h4l1-1h1v-3l1-1 1-1 1 1 1-1v-2h-1v-6h7l1-1 1-2 1-1h1v-1h2v2h1l1 1 1 1h1v-2h1l1-1 1-1h1l1-1 1-1v-1h1v-1h2l1-1v-1h-1l1-1V8h2V6l1-1 1-1h2l1 1 1 1h1l1 1h1l2-1h2V5h1l1 1 1-1V4l1 1h1l1-1h2l1-1h1-1l1-1h1v1-1h1l1-1V0l1 1 1-1z"/>
</svg>
