<svg xmlns="http://www.w3.org/2000/svg" viewBox="0 0 66 77">
  <path d="M50 0h1l-1 1h-1l-1 1h-1V1l2-1h1zm9 2l1 1 1 2h1l1 1v1h2l1 1v1l-1 1v1l1 2v1h-1v2l-1 2v1h-1v5h-5v3h-1v1l1 1h2l1 1 1-1 1 1v1h1v2l-1 2 1 1-1-1-1 1-1 1v1h-1l-1 1h-1v2h1v1h1v1h-1v1h-2l-1 1h-1l-1 1h-1v1l-1-1h-2l-1-1h-1l1 1h-3l-1 1v2l1 1v1h1v1h1v2l1 1v4h1l-1 2-2 2v2h2-1 1l-1 1h-1v1l-1 1-1 1v-1h-2l1 1v2l1-1h2l-1 1v1h1v2h-1v3h-2v-1h-1v1l-1-1-1 1-1-1v-3l1-1 1-1v-3l1-1v-2h-2l-1-1h-1l-1-1v-1h-2l-1 1v-1h-1l-2 1v-2h-1l-1-2v-2h-1v-1 1l-1 1-1 1h-1l-1-1h-1 1l1-1v-1h-1l-1 1h-1v1h-3v-1h1-1v-1l-1 1h-1v3h-1l-1-1h-3l-2-1-1-1-1 1v1H7v-1H6l-1-1-1 1-1-1-1-1-1-1h1v-1l3-1h4v1H7l-1 1-1-1v1h6l1 2h1v1h3v-1l-1-1v-2l-1-1h-1v-1h4l1-1h2l2-1h4v-1h-2l-1 1v-1h-1l-1 1h-4l-1-1-1-1-2-1h-1v-5 1l1 1v-1 1h1l1 1v-1 1h1l-1-1-1-1-1-1h1l1-1 1-1 2-3 2-5 1-3v-1l1-1v-5l1-1v-1l1-3v-2l1 1 1 1h2l1-1 1 1v1l1 1v3l1-1h1v2l-1 1v1h-3v2l1 1v1l-1 1h1v-1h1v1l-1 1h-1v1h-1l1 1h1l1 1h2l1 1h4v-1l1-1v-1h1l1-1 2-2v-2l-1-1 1-1h2l1-1h-1l-1 1h-5v-1h-1l1-2v-3h2-5l-1-1h-1l1-1v-3l-1-2h1v-1l1-1V8h1l1-1 1-1h1l4-2 3-1h1v2h1-1 1V4v1h1l1 1V5h-1l-1-1-1-1h3l3-1h2l1-1h2zM39 1l1 1h3l1-1 1 1h-5l-1 1V1zm-1 1h-1v1h-2l-1 1h-1l-1 1h-1V4h1l5-2zm-8 4l-1 1h-1v1l-1 1-1-1h1l1-1 2-1zm-4 3l1 1v2l-1 1v1h-2l1 1h-1v-3l1-1 1-1zm14 16l1 1 2 1-1 2v1l-1 1h-1l-1 1h-1v1l-1 2h-2l-1-1h-1l-1-1h-1l-1-1h1v-1h1l1-1 2-1 1-2h1l1-1h1zM11 46v1h2v1h1l1 1 1 1h1l1 1h-1l-1 1-1-1h-1l-1-1h-1l-1-2H9v-1h1zm-2 3l1 1v-1l1 1 1 1h1v1l-2 1h-1v-1H9v-1H6v-1l2-1h1zm3 4h2v1h1v1l-1 1v-1h-2l-1-1 1-1zM2 59l1-1 1 1h1l1 1h4v-1h2v1h3v-1 1l-1 2-2 1h-1l-1 1H7v-2H5l-1-1-1 1-1 1H1l-1-1v-3h2z"/>
</svg>
