<svg xmlns="http://www.w3.org/2000/svg" viewBox="0 0 60 76">
  <path d="M53 0h1v1l-1 1h1v1-2h2v1l1-1v1-1 1h2v1h1-1l-1 1v1h-3 2v1h1v1l1-1h1v2l-1-1v1l-1 1v2h-1V9h1l-1-1-1-1h-1l-1-1h-1v1h-1l-1 1v5l-1 1v1h-3l-1 1h-1l-1-2-1-1-1-1-1 1v1h-1v1l-1 2h1l-1 1-2-1h-1l-1 1 1 1-1 1h-1l-1 1-1 1v5l-1 1-1 1v1l-1 1h-1v5l-1 1v2l-1 1v1h1v1l-1 2-1-1h-1l-1 2-1 1v1l-1 1h1v2h-1v3h1v2l-1 2h1l1 1v2l-1 1h-1l1 1v3l-1 2h-1v4l-1 1v1l-1-1v-1 1h-1v-2h-1v-2 3h-1l-1 1v-1h-1v1l-1 1-1 1v1H9v1H7v1H6l-1-1v1-1H3l1-1-3-2v-3l1-1v2-1h1l-1-1h1-3v-1l1-1v-1H0v-1h1v-1h1v-1 1l-1-1v-1 1H0v-1h1v-1H0h1l-1-1h2l-1-1v-1h1l1 1v-1h1l1 1h1v-1H0h1v-1h1-1 1-1v-1h1v-2h1-1v-1h1l-1-1h1v1-1h2v1-1H4v-1h2-1l1-1h3-2v-1h1v-1h3v-1h1v-1h2v1-1l1-1h1-1v-1h1v-1l1-1v-1h1v-1h1l1-1h1-2v-1h2v-1h-1 2v-2l1-1v-2 1-1l1-1v-1h1-1v-1h1v-1l1-1v-1h1v-1l1-1 1-1h1v1-1h-1v-1h1-1l-1 1v-1l1-1v-1 1h1v-1h1v-1 1h1v-1h-1 1v-1h2v-1 1h-3l-1 1v-1l-1 1-1 1h-3v1l-1 1v-2h1l1-1h1l1-1h1v-1h1-1l-1 1v-2h1l-1-1h1l1 1v-2l1-1v1l-1 1h1v1-1h1v2l1-1v-1h1v-1h-1v1-3h1v-1l1 1h1v1-2h1v1-1h-2v-1h4V9v2l1-1V9h1-1 1V8l1 1V8h-1V7h1V6l1 1h1v1h1V6h-1v1l-1-1h1V5h1v1-1h1-1V4h1v1-1h1l-1-1 1-1h1v1-1h1v1l-1 1v3h1V4l1-1V2l1-1v2h-1 1v2-1h1V0h1zm-9 6zm1 0zm-7 5zm-1 1zm-3 2zm-6 11zM45 3v1h-1v1h-2V4v1h1V4h1-1 1V3zm-7 4l1 1h-1V7zm2 1h-1V7zm-3-1v1-1zm1 1h-1zm-2 0v1-1zm1 0h1v2h-1l-1-1h1V8zm1 1zm2-1v1-1z"/>
</svg>
