<svg xmlns="http://www.w3.org/2000/svg" viewBox="0 0 77 36">
  <path d="M16 0h2l1 2v1h2l1 1h1l1 1v1h2l1 1h2v1h1l1 1v1h1l1 1v-1h1V9h3l1 1v1l1 2 1 1h1l2 1 1 1 1-1h1l1 2v1h6v1h1l1 2 1 1v-2l1-1v1l1 1h1l1-1 1-1h1l1 1h1l2 1 1 1 1-1h3l1-1h1v1-1h2v-1 1h1v3l-1 1v5l1 1v1l1 1v1l-1 2v1h-1l-1-1h-1v1-1l-1 1h-4l-1-1h-1v1l-2 1-2-1h-1v-1h-5v1h-1v-1h-1v-2h-2l-1 1h-3l-1-1h-1v-1h-2v-1l-1-2h-3l-1-1h-1l-1 1-1 1-1-1h-3v1h-1l-1-1h-3l-1-1v-1h-4l-1-1h-1v-1h-2v1h-1v-1h-1l-1-1h-1l-1-1h-1l-1-1v-1h-1l-1-1H7v-1H5v1l-1-1H3l-1-1-1-1H0v-1h1v-1l1-1v-1H1h1V9h1V7l2-1V5l1-1V3l2-1 2 1v1l1-1V2h1V1l1-1z"/>
</svg>
