<svg xmlns="http://www.w3.org/2000/svg" viewBox="0 0 63 77">
  <path d="M36 0h3l3 1h1l1 1h3l2 1h1l1 1h1v1l1 2h1v9l1 1v1l1 1v2l1 1v7h1v3h1v1h1l1 3 1 1v1h1v6l-1 1v1l-1 2h-1v1l-1 1-1 1v1h-1v1l-1 1-1 1v1h-1l-2 2-1 1v1h-1v1l-1 1-1 1-1 1h-1l-4 4v1l-1 1-1 1-1 2h-1l-2 1h-4l-1 1h-1l-1 1h-2v1h-2v-1h-2v-1l-1-1h-1v-1h-1l-1-2h-1l-1-1h-6l-1-2v-1h1v-1l1-1h1v-4l-1-2h-1v-1l-3-3-4-3-1-1-1-1v-1l-2-2v-2l2-1v-1h1v-1h2l1-1 1-1h1l2-2 1-1v-8l-1-1v-3l-1-1v-2h1l1-3 2-2 4-5 1-2 1-1 1-2 1-1h1l1-1V4h1V3h1l1-1h1l3-1h2l2-1h2z"/>
</svg>
