<svg xmlns="http://www.w3.org/2000/svg" viewBox="0 0 60 77">
  <path d="M32 0h1l-1 1h1v2h1v1-1h1v1-1h1l1 1h1v1h1v1h1v3-1h-1 1v2h1v1h1l-1 1h1-1v1h1-1v1h1-1v1h3v2h1v-3l-1-1v-1l1 1 1 1h1l-1 1v-1l1 1v4h1v1h1l-1-1h1v1h1l2 1h1v1l1-1h1l1-1v-1h3l1 1-1 1v4h-1l-1 1v3-1h-3l-1 1h-1v2h1l-1 1v2l-1 1-1 1v1h-1v1l-1 1v1l-1 1-1 1h-1l-1 1v-1h-2v-1h-1v-1h1v-1l1-1v-5h-2v-1h-1l-1-1h-1l-1-1-1-1 1-1h1l1-1h1l1-1v-3l1-1h-1l1-1h-1l1-1-1-3-1-1h1v1l1-1-1-1v1h-1v-1l-1-2-1-1h1v1h1v-1h-1v-1h1-1v-1 1h-1v-1 2-1l-2-3-1-1-1-1-1-1V3l-2-2V0h2zm10 21v1zM36 4zm-1 2zm10 4v2l-1-1v-1zm-2 1zm-1 3zm1 0l1 1h-1l-1-1h1zm5 5l-1-1zM32 36v1h-1v1h2v3h1l1-1h1v-1h1v-1 1h1-1v2-1h1-1v-1h2v1h-1v1h-1 1l1-1v1h-1v2l1 1-1 1-1 1v1l-1 1h-1l-1 2v1l-1 1-2 1v2h2v1h-1v1l-1-1h-1l-3 1-2 1v1l-1 1v2l-1 1v1h-1v2l-1 1v2l-2 1-2 1v1h-2v1h-5l-1-1-1-1H6v-1H1v-1 1-1H0v-1h2v-1H1v1H0l1-1H0v1-1h2v-1H1l1-1v-1h1v1-2h2v-1l1-1h1v-1l1-1v-1h1l1-1h2l1-1h1l1-1h1v-1l1-1h2v-1h1v-1h1l1-1 2-2v-2l1-1v-1h1l1-1 1-1v-4h1l1-1h1zM7 61zm-4 4zm18 3zM9 72h1zm0 0l1 1zm-2 1l1 1h1-1v1h1v1H6v1H5v-1h1v-1l1-1H6l1-1z"/>
</svg>
