<svg xmlns="http://www.w3.org/2000/svg" viewBox="0 0 77 32">
  <path d="M45 0h2l2 1h1l1-1h1l-1 1v1h8v1h2l1 1h2l1 1h1v1-1l1 1 1 1 1 1 1 1 1 1v1h2v3h1v1l1 1 1 2 1 2h-1v1h-1l-1 1v1h1l-1 1v1h-1l-1 1h-1l-1-1v-1 1l-1 2-1 1v2h-1l-1-2-1-1-2-1v-1l-1-1-1-3-1-1v-1h2v-3l1 1v-2h1l1 1v1h1v1-1l1 1h1l-2-1-1-1v-1l-1-1v-1 2-1h-1l-1 1 1-1-1-1v2-1h-1v1l-1-1v-1 3l-1-1v-1l-1-1h1v-1h-2v-1h-1l-1-1h-1V9h-1l-1-1h-5l-2 1h-1v1h-2v1h1v1h-1v1h1v-1l-1 2h-1l-1 1-1 1-2 1h-2l-1 1h-1v3h1l1 1 1 1 2 1 1 2 1 1-2 1v1h-3v1l-1 1h-3l-1 1h-1l-1-1v-2l-1-1v-1l-1-1v-3h-1v1l-1-1v2h-1 1v2l-1-1h-3v-1h-1v-3h-1v-1h-1 1l-1-1v-1 1h-2l-1-1h-2v1l-1-1v-2l-1 1H7v-1 1H3l-1 1v2-2l-1-1H0l1-1h1v-5l1-1v-1h1-1V9H2L1 8V3h1V2l1-1 1 1 1 1V2h2l1 1v3l1 1 1-1h1v1h-1v2h1l1 1 1-1 1 1 1-1v1h1V9h-1V8h-1V7h2-1v1h1l1 1 2 2h7l1-1h1l2-2h1l1-1h1l1-1h3l1-1 1-1h1V3h1l1-1 1-1 1-1zM10 3v2-1H9V3zm1 2h1l-1 1V5zm-1 1H9V5zm2 0v1l-1-1zm1 1h-1zm40 7v1h-1v-1zm1 1v3l-1-1v-2zm-3 0v1-1zm0 2v1-1zm-34 9v1l1 1v1l1 1h-3v-1h-1v-1l1-1zm9 1h-1v1h-1l1-1zm-10 4h1l-1 1v-1z"/>
</svg>
