<svg xmlns="http://www.w3.org/2000/svg" viewBox="0 0 64 77">
  <path d="M30 0h2l2 1 1 1h-1l-2-1h-3V0zm-2 1zm0 1l-1 1V2zm9 1h2-2zm5 2v1l-1-1h-1V4zm0 2l1 1h-1V7zm1 1v1l-1-1zm0 2zm1 1h-1zm0 0l-1 1v-1zm0 1l-1 1v-1zm0 2zm0 0v1h-1 1v-1h-1 1zm0 2v-1 2-1zm1 1v2l5 6h1l1 1 3 4 1 1h-1l-1-1-2-2v-1h-1v-1h-1v-1l-1-1h-1l-1-1v-1l-1-1v-1h-1l-1-3zm-9 6v-1 2l1 1h1l-1 2v1h-3l-2 2-1 1-1 1h-1v1h-1v1h-1v4l1 1 1 1-2 1h-2l-1 1h-2l-1-1h-1l-1-1-1-1-1-1v-1h-2v-1h-1v-2h3v-1 1l1 1v1h3l1 1h2v-4l-1-1v-1l-1-1v-1 1h1l1 1h2v-4h1v1h1v1h2v-1h1l1-1v-1l1-1v-1h2l1-2zm20 8l3 2 2 1 1 1h-1l-2-2h-1v-1h-2zm7 4h1v1l-1-1h-1 1zm-15 2l1 1v2h-2l-1 1-1 1-1 1h-2l-1-1 2-1 1-1h1l2-1 1-2zM8 40h1l1 1h1v1h-1v1l1 1h-1v3l-1 1H5l-1 1v-1H3l-1 1H0l1-1 1-1v-2h1l1 1h1v-1l1-1H5v-1h1v-1l1 1h1v-1l1-1H8v-1zm52 5h1-1v1-1zM8 49l1 1-1 2v1H7v-1H6v-1h1v-1l1-1zm52 2v1-2zm-19 3l-1 1v-1zm1 2h4-1v2h-1v1l-1 1v1h-1l-1 1v-1h1v-2l-1-1-1-1 1-1zm-2 6h-1zm19 2l-1 1-1 1v-1h1l1-1zm-34 1v1-1zm0 2h1v1h1v2-1l-1-1h-1v-1zm9 4v1h-1v-1zm-3 3v2h-1v1h-1v-2l1-1z"/>
</svg>
