<svg xmlns="http://www.w3.org/2000/svg" viewBox="0 0 77 45">
  <path d="M31 0h2v1h-4V0zm5 1l-1 1V1zm11 1h1l1 1-1 1-1-1V2zm4 1l2 1 2 2h1l1 1 1 1 2 2 1 1 1 1v2h-1l-1-2-1-3-1-1h-1l-1-1h-1V6h-1l-1-1h-1l-1-1h-1V3zM1 3l2 1h1l1 1h1l3 1 2 1 3 1h1v1l1 1 1-1 2 1 1 1 1 1h1l1 1 1 1 1 1v3h2l1 1h1l1 1h2l2 1h1v2l1 1h-5v2h1v2h1l2 2v1h2v2l1 1h1v2h4v1l-1 1 2 1h2l1 1h-2l1 1v1h4v1h-2 1v1l-1 1-1-1h-1 1l-1-1h-3l-1-1-1 1-1-1h-4l-1-1h-1v-1l-2-1v-1h-1v-1l-1-1-1-1-1-1-1-1v-1l-1-1h-2l-1-1h-3v-1h-2v1-1h-3l-1-1 1 1 1 2h-3v-1 1l1 1h-2l-1 1h-1v-1l-2 1h3l1 1 1 1-1 1-2 1-1 1-1-1H1V25H0v-2l1-10zm50 2zm6 6l1 1h1v2l-1 1v1l-1-1v3h-3v1l-1 1-2 1h-1l-1 1h-5l-1-1h-2l-1-1h-1l-1-1v-1h8v-1l1-1v2h4l1-1v-1l1-1h2v-2l-1-1 1-1h1v1h1v-1zm-31 2v1zm44 3v2-1l-1-1h1zm-38 1v1l-1-1zm4 1l1 1-1 1v-1l-1-1zm35 0h1l1 1v1l1 1h1l1 1 1 2-1 1-2-1h-1v-2l-2-1v-3zM52 34v1-2zm9 2l1 1h-2v-1h-1zm-13 1v2l-1-1 1-1zm1 1h1l1 1h-2v-1zm2 2l1 1h1v1h-1l-1-1v-1h-1z"/>
</svg>
