<svg xmlns="http://www.w3.org/2000/svg" viewBox="0 0 51 77">
  <path d="M24 0v1h-1V0zm-2 1v1-1zm4 1v1h-1V2zm-3 0v1h-1zm-3 2h2l2 1h1l1 1 1-1v4l1 1v2h1l-1 2-1 2v1h-2l-1 1v2l-1 1v1h1v2h1v1h-1l1 1v1l1 1h2v-1l1-1h2l1 1v2h1v-1h3l1 1h-1l-1 1 1 1v1l1 1 1-1v2l-1 1h-1v-1l1-1-1 1h-1l-1-1h-1v-1l-1-2h-1l-1-1-1-1v2l1 2-1-1-1-1h-1l-2-1h-1v1h-3v-1h-2v-2l1-1 1-1h-1l-1-1v2l-1-1-1-1h-1v-2l-1-2v-4l1 1h2V7l1-2 1-1zm6 19v1l-1-1h1zm12 4v1h1v2h-2v-3zm-12 3v1h1v1h-1l-1-1h1v-1zm-5 1h1l1 1h1v5h-2l-1-1-1-1v-2l-1-1h-1v-1h2zm10 2l1-1v1l1 1-1-1h-1zm4 1v1h1v1h-1v-1zm7 1h1l1 1v1h1v5h1v1h1-2l-2-1-1-1v-2l-1-1h-1l-1-2-1-1h3zm-15 1v2l-1-1v-1l1-1zm6-1v1h2v1h2v2l1 1-1-1-2-1-1-1v1l-1 1v-4zm-3 1v1h-1v-1zm-14 1l1 1h1l-1 1h-1v-1h-1v-1zm0 2v1l-1-1zm11 0l2 1 1 1v-1l1 1h1l1-1v1l-1 2-1 1-2 1-2 1v1h-1v-2l1-1v-4h-1v-1zm13 1v1l-1-1zm-1 1h1l1 1 1-1v2l1 2v1h1v1h-2v1l-1-1v-4h-1v1h-1v-3zm-24 0v1-1zm-2 1h1v5h-1l-1 1v1h-2v1H9v2l-1 1-1 1H6l-2 2-1 1H2v1H1v-1h1v-1l2-2 1-1h1l2-2 1-2h1v-1l1-1h1v-3l1 1v-1l-1-1h1v-1zm24 0h1-1v5l-2 2v1l-1 1v1-4l1-2 1-1 1-2v-1zm-3 2v3l-1 1v5l-1 1v-1l-2-1-1-1v-2h2v-3l1-1v-1h1zm-4 1v2l-1-1 1-1zm16 1v3h-1v-2l1-1zm-7 2h1v2h-1v1h-3v-1l1-1 1-1zm4 0h1v1l-1-1zm6 1l-1 1-1-1 1-1zm-4 0l1 1 1 1h1v1h1v2l1 1h-1v1h1v4h1v4h-1v1l-1-1v3-1l-1-1v-2h-1v-1 1h-1v1l-1 2 1 1 1 1v1l-1 1v1h-2v-2 1l-3-1-2-1-1-1v-1l-1-1h1v-2l1-1h-1l-1-1-1-1h-1v1h-1v1l1 1-1-1h-1v-1l-1 1h-1v-1h-2l1 1h-1v1l-1 1v1h-1l-1-1 1-1v-3h1v-1h1l2-1h1v-1h1l1-1h2v1h1l-1 1v1l1-1h2v-2h2v-2h2v-1h1l1 1v-5zm-4 4h1-1v-1zm-6-1l1 1h-1zM2 58zm-1 2H0v-1zm26 6h1v1l-1 1h-1v-2h1zm-5 3l1 1h1-3zm-5 5l-2 1 1-1zm-3 2v1l-1-1z"/>
</svg>
