<svg xmlns="http://www.w3.org/2000/svg" viewBox="0 0 77 73">
  <path d="M65 0h1v1h2l1 1h2v4h1l1 1h2v1l1 1v1l1 1h-1v1h-1l-1 1v-1l-1 1h-2l-1 1-2-1h-3l-1-1-1 1h-1v1h-1v1h1v1l-1 1h2v1l-1 1v2l1 1h1l-1 1h1l1 1v-1 2h3v2h-2v1h-1l-1 1 1 1v3h-1l-1 1v1h-1v1h-1v1h1l-1 1h-1l-1 1v1l-1 2-1 1v1h-1l-1 1h-1v1l-1 1v1l-1 1v1h-2l-2 1h-1l-1-1-1-1-1 1v1l-1 1-2 2v2l1 1h2v5h2v2h1v1l1 1v3h-1v1h-1v-1h-1l-2 1h-6v1h-2v1l-1 1v-1h-3v-1l-1-2v-2h-2l-1-1v-3h-1l-1-1v1h1-1l-2 1h-5v1-1h-6v1-1H7v1H3v-1l1-1v-4h2v-1h1v-1h4v-3H9v-6H8l-1-1H6l-2-1-1-2v-1H2v-2l-2-2 4 2 3 1 6-1h1l1 1 1-1h3l3-1 4-1v-1l-1-1 1-1h-1l1-1v-2l1-1h1l1-1 1 1 2-1h1-1v-1h1l1-1v-1l1 1h2l1 1v-1h1v-1h1v-5h1v-1h1l1-1h1v-3l-1-1h3l2-1v-3h1l1-1v-1l1-1V9l-1-1V7l-1-1V5h1V4l1-1 1 1V3h1l1-1 1-1h9l1-1z"/>
</svg>
