<svg xmlns="http://www.w3.org/2000/svg" viewBox="0 0 77 59">
  <path d="M29 0h4l1 1h1v1l1 1V2l-3-1v1h1v1l1 1 1 1h3l2-1h1l-1 1h-2v1h1l1-1h1l1-1h4l9 1h7l3-1h1l1 1h1v1h1l1 1h1v3l1 1v3l1 2 1 1v5l-1 1-3 1-1 1-1 1h1v1h2v1h1v3l-1 1v2h1v2l1 1v1h1v1l2 1v1h-2 1v4h-2l-1 1-1 1-3 2-1 2-2 2v5h1v1h-3l-1-1h-2v-1l-1-1h-2v-1h-5v1h-2v-1h-1v1h-1l-1-1v1h-1l-1 1-1 1v-1h-1v1l-1-1h1v-1l-1-1h-1l-1-1h-1l-1 1h-2v-1h-1v-1l-1-1h-1v-2h-3v-1h-2v1-1h-1l-1-1 1-1v-1h-1l-1 1h-1v-1h-2v-1h-2l1 1v1h-1v1h-2v-1h-1v-1h-1l-1-1 1-1h1v-1h-5v-1h-3v-1H9v-1H8l-1-1v1l-1 1H5l1-1 1-2v-2l-1-1-1-1v-2H4v-2l1-1v-1H4v-1l-1-1 1-1v-2l-1-1H2l-1-1H0v-2h2v-5l-1-1v-2h1l1 1v1h1v-1H3v-1h1l-1-1H1l1-1v1l1-1 3-1 2-1h3l1-1h2l2-1 1-1 2-1h2l2-1 3-1 2-1h2z"/>
</svg>
