<svg xmlns="http://www.w3.org/2000/svg" viewBox="0 0 37 77">
  <path d="M8 0v2L7 3H6v1L5 5H3v2l1 1 1 1v1H3v4h1v-2l1-1v-1l1-1h3l1 1v1l2 2 5 2 2 1h1v3l1 1v1h-1v1l-1 2v3l-1 1-1 1v1l-2 1-1 1v-2h1l-1-1v-1H9l-2-1H6l2 3v1l1 2v1h1l1-1 1-1h2l-1 1v1l-1 1-1 3v6l1 3h1v1h1l1 1h4v1h1v1-1h1v2l1 1v5l-1 1-2 2-1 1h-1v1h-2v1l-1 1-1 1h-1v1l-2 1v1H9l-1 1v-1H7l1-1H6v-1H5v1H4v-2l1-1v-1l-1-2H1l-1 1v-3l1-1v-1h1l1-1v-1h1l1-1h1l1-1h1v-3l1-1v-1l1-1h1v-1l-1 1v-8L6 26H4v-1H3v-6l-1-1 1-2v-2l-1-3v-1L1 8V5h1V3h1V2h3l1-1 1-1zm24 62h1v1h-2zm0 2l1 1v1l1 1-2 2v2h-1v1l1-1v1-1l1 1v1l1 1h-1v1h-3l-1 1v-1h-1v-1h1-1l-1 1h-2v2h-1v-2h1v-1h-1v1h-1v-1h-1 1v-1l2-4h1v-2h1l1-1v-1h3l1-1zm0 7zm5-3h-1 1zm0 1h-1 1zm-2 0l-1 1v1h-1v-1h1v-1h1z"/>
</svg>
