<svg xmlns="http://www.w3.org/2000/svg" viewBox="0 0 77 43">
  <path d="M24 0l1 1 1-1h1v1l1-1h1l1 1h2v1h1l2 2 2 1h1l1 1 1 1h2l1 1h1l3 1h1l1 1h3v1h1l2 3 3 4v1h2l1 1 2 1h5v1l1 1 1 1h1l1 2 2 2h1v1h1v2l1 1-1 2h-4l-1-1h-4l-2-1h-3l-1 1v2l-1 1v1l-1 1-1 1v1h-1v1h-3l-1 1h-3l-1-1v2h-1l-2-1v-1h-3l-3 1h-2l-1 1-1-1v-2l-1-1h-1v-1l-1-1h-3l-2-1h-1v-2l-1-1h-1v1h-1v1-1l-4-1v-1l1-1h-1l-1-1v-2h1v-1l-1-1-1-1h-2l-2-1-2-1-1-1v-1H7l-1-1H4v2H2v-2H1v1l-1-1 1-1v-2H0l1-1v-3h1l1-1h1l1-1v-1h5l1-1h2V8h1V7l1-1 1-1V3h1l1-1 1-1h3l1-1z"/>
</svg>
