<svg xmlns="http://www.w3.org/2000/svg" viewBox="0 0 77 27">
  <path d="M11 0h1l1 1h10l1 1h2l1-1h7v1h4l1-1h3l1 1h7l1 1h2v1h1V3h-1V2h-1 1l2 1h8l1 1h2v1h1V4l1 1h-1 2v1h2l1 1h2l1-1h1v1h-1v5h1l1 1h-1v1-1h-1v1h-2l-1 1h-1l-1 1h-1v1l-1 1v1l-1 1v1h-1v2h-2v1h-2l-1 1h-7l-1 1-2 1h-3v-1h2-1l-1-1v1h-3l-1-1h-3v1h-2v-1h-1l-1-1h-3l-1 1h-3v-1l-2 1h-1l-2-1h-1l-1 1v-2l-1 1h-1v1l1-1v1h-1l-2 1h-2l-1-1v2h-2v-1l-1-1H9l-1 1H6l-1-1H4v2l-1-1v-2l1-1v-1H3v-1h1l-1-1v-1l1-1v-2l1-1v-2H4v-2l-2-1-1-1-1-2 1-1h1l2-1 1-1V1l1-1h1z"/>
</svg>
