<svg xmlns="http://www.w3.org/2000/svg" viewBox="0 0 37 77">
  <path d="M15 0l1 1 1 1h-1v1h-1v1h1v1h1l1-1V3l1 1h3v1l1-1 1 1h1l1-1V3l1-1v1h6l1 1v1l-1 1h1l1 1 2 1h1v1l-1 1v1h-1l-1 1-1 1h-1l-1 1-1 1-1 2h-1 1v2l1 1v8h-1l-1 1v1l1 1v4l-1 2h-6l1 1v1h1v1l1 1v2h1v1l1 1h1l1 2-1 1v1h-1l-1 1v1h-1v3l-1 1 1 1 1 1 1 1v1h2l-1 1v1h-1l-1 1h-1v2l-1 1h-1v2l-1 1 1 1v5h-2l-1 1h-1v1h-1l-1 1h1v-1h1-1v1l-1-1-2-1h-5l-1-1H9v1H7l-1 1v-3l1-1v-1l1-1v-7l-1-1 1-1v-4l-1-2v-1l1 1h2-1v-2 1H6v1H3l1-1-1-1v-1l-1-1h2v1h1v-1h1l-1-1h1v-2l1-1v-1h1-1l-1 1-1 1v2l-2 1H0v-2l1-1v-3l1-1v-3l1-1v1h1v-1H3l1-1 1-1v-2l1-1 1-4 1-1v-1H7l1-1v-1l1-5v2l1-1v-1h1l-1-1v1-1h1l-1-1h1-1v2H9v-1l1-5v-3l-1-2V7L8 6V4h1l1-1V2h1V1h3l1-1zm-5 19v1-1z"/>
</svg>
