<svg xmlns="http://www.w3.org/2000/svg" viewBox="0 0 66 77">
  <path d="M40 0h2l1 1h1l1 1v1l-1 1v1h1v1l1 1v2l2 2 3 3 1-1h1l1 1h1v1h1v1h1v2l1 1 2 3 1 1h1l1 1v-1l1-1v1h1l1 2v2l1 1v3h-1v1l-1 1v1h-1v1h-1l-1 1-1 1v1l-1 1h-1l-1 2v2l-1 2h-1v1l-1 1h1v1l-1 1-1 1h-1v1h-1v1l-1 1h-1v-1l-1 1-1 1h-2l-4 4-3 2-2 3-3 2-6 6-1 1h-1l-2 1-1 1-2 2h-1l-1 1h-1l-1-1H7l-2-1-1-1H0v-1l1-1 2-3 3-4 1-2 2-1 1-1 1-1 2-2-1-1-1-1-1-1v-3l1-1 3-2v-2h1l1-1v-3 1-1h-2v-1h2v-4l-1 1-1 2v1-2l1-2v-5l-1-2-1-2v-3h-1v-2l-1-3-1-3-1-6-1-1v-1L7 9 6 8V5h1l5-1h1l1 1h14l1 1 2-1h3l2-1 1-1 1-1V1h1V0z"/>
</svg>
