<svg xmlns="http://www.w3.org/2000/svg" viewBox="0 0 36 77">
  <path d="M21 0h1l1 1h1v1h1v3l1 1 1 1v2h5v1l2 1v2l1 1h-1v1l1 1v2h-1 1v-1h-1l-1 1h1l-1 1v-1h-1v1h1l1 1v-1l1 1-1 1v1h-1v-1h-2 1v1h1l-1 1h1v2h-1v-1 1h-1v4l-1-1v2l1 1 1 1v6h1-1v1h2v1h2v1h-1v1l1 1v2-1 9l-1 1v2l-1 1-1 1v1h-1v1l-1 1v1l-1 1v2l-1 1v2l-1 1-1 1h-1v2h-1l-1 1v-2h1v-2 1-1h-3v1-2 1h-3v1h3v1h1v4l-5 1-4 1-2-1-2-1-1-1-2-1-1-3-3-4v-2h1l1-2v-1l-1-1v-4l-1-1v-1l-1-1v-4l-1-1v-3l-1-3v-1l1-2v-1l-1-1v-5l1-2H0l1-1 1 1h1v1l1 1v-1H3l1-1H3v-4H2v-1h1v-1l1 1v-1 1-2l1 1v5h1v1H5v1h2v-2H6h1v-1H6l1-1v-2h1l1 1v-2H7l-1-2v-2l1-1v-1H6l1-1v-1h1l1 1v1H8l1-1h1v-2H9v-3h1V8v1h1V8h1V5h1l1-1h1l1-1h1V2l1-1h2V0z"/>
</svg>
