<svg xmlns="http://www.w3.org/2000/svg" viewBox="0 0 77 68">
  <path d="M26 0h4l1 1h3l2 1h2l1 1h7l2 1 1 1h3l3 2 1 1 1 1h1l1 2v1l1 1v5l1 1v1l1 1h1v2h1v2l1 2 2 1 1 1v1l2 2v1h2l1 2h1l1 1h1v2l1 1v1l-1 1-1 1v1l-1 2v2l-1 5v8h1l-1 1v1l-2 2-3 1h-2l-4 1h-4l-1 1h-2l-2 1-1-1h-5l-1-1h-4l-2-1h-1l-2-1v-1h-4l-1-1-2-1-1-1h-2l-1-1-1-1h-1l-1-2-1-1v-1h-1l1 1-5-1h-2v-2l-1-1v-1h-1l-1-1v-1h-1l-1-1-1-1v-2H8v-3h1v-1l-1-1 1-1-1-1-1-1v-2l-1-1-1-2-1-1H3l-1-1v-1l-1-1H0v-1l1-2v-1H0v-2l1-1 1-1h1l1-1h2l1-2 1-2v-3H7v-1l1-1 1-1H8V7h6l1-1h1l1-1 1-1 1-1 2-1 1-1h1l1-1h1z"/>
</svg>
