<svg xmlns="http://www.w3.org/2000/svg" viewBox="0 0 77 50">
  <path d="M54 0v1h1v1l1 1v1h1v2l1 1v1h1v2h2v2h1v1h1v1h1v2l1 1v4l-1 1v8l1 1 1 1 1 1h2v-1h3l1-1h2l2 2h-1v1h1l-1 2v1h-2l-2 1-1 1-2 3-1 1v6h-3l-1-1h-1v-1h-2l-1-1h-3v-1h-3l-2 1h-3l-1 1h-1v1l-1 1-2 1h-5l-2-1h-3l-2 1-1-1h-3l-1-1h-3l-1 1-1-1h-1v-1l1-1v-1l-2-1h-1v-1l-1-1v-1h1v-1 1h1v-1h-1l-1-1h-1l-1 1-1 1h-1v-1l-2-1h-1l-1-1-1-1h1v-1H9v-1l1-1v-1H7v-1H6l-1-1-1-1v-3H3v-1H2v-1H1l-1-1v-1h3l1-1h3v-1l1-1v-2h1v-1h1v-2h1v-2h1v-1h1v-2h1V8l1-1h1V6h1l1-1h2V4h1V3h2V2h2l1 1h4l1 1h2l1-1h1l1 1v1h1v1h2l1-1 2-1h3V3h3l1-2h1l1-1h1z"/>
</svg>
