<svg xmlns="http://www.w3.org/2000/svg" viewBox="0 0 55 77">
  <path d="M11 0h1l1 1 1-1 2 1h3v1l1 1 1 1h1l1 1 1 1 1 2h1v5h1v1h1l1 1h1v1h1v-1 1l1 1h2l1 1h1v1h-1v1l-1 1 1 1h1v1l-1 1h-1l1 1h1l1 1 2 1h2l1 1 1 1 1 1 1-1 1-2h1v-1h1l1 1 1 1 2 1h-3v1h-1v1l1 1v1l1 1h1l-1 1v3h-2l-1 1v5h1v2l1 1v1h1v1h1l1 1 1 1 2 2v2l-1 1-2 1v2h-2v-1 1h-2v5l1 1v2l-1 1h-1v1l-1-1h-2v1h-2l-1-1v1h-2v1h-2v-1l-1 1h-1l-1-1v1l-1 1v1h-2v-1h-2l-1 1h-1l-1 1-1 1v1h1l-1 1-1 1h-1v-2h1l-1-2v-1l-1-1-2-2v-1l-1 1v-1l-1-1v-1l-2-1v-2l-1-1-1-1h2v-1h1l1 1v-1l1-1h1v-1h-1l-1-1h-2v-1l-1-1-1-1v1h-1v-1h-2l-1-1v-1H9v-1l-1-1-1-1H6l-1-1v-2h4v-2H8l-3-5h5v-1H9v-1H8v-1H7v-1H6v-1H4v-1l-1-1 1-1v-2l1-1v-1l1-1v-1l1-1-1-1H5l-1-1v1H2h1v-1h1v-1H3v-2h1v-1l1-1v1h2l1-1H6l-1-1H3v-1H2v-3h1v-1H1V8h1-1L0 7h1L0 6V5h1l1-1h1l1-1h2v1-1h1l1-1 1-1V0h1z"/>
</svg>
