<svg xmlns="http://www.w3.org/2000/svg" viewBox="0 0 77 46">
  <path d="M69 0v1h1l1 1h-1v1h-1v1h-1 1v2h3l-1 1v1l1 2v3h-1v2h1v1h1l1 1v1h1v1l1 1v1l1 1v1h-2v-1h-1l-3-2v-3l-1-1v-2h-1v-2l-1 1 1 1v2-1h-1v4h1v1h-1v1-1h-1v2h-1v1l-2 1v6h1l1 1v-1h-1l1 1v-2h2v1h1l-1-1v-1h1v1h1v1h1l2 1-1 1 1 1 1 1v1l-1-1-1-1-1-1v-1h-1v-1h-1v1l1 1 1 1v8l-1 1-1 1-1-2v-1h1v-2l-1-1h-1v1h-4l-2-1v-1h-3l-1 1v4h-3v1h-1v1h-7l-1-1h-2v2h-4l-2 1h-1v1-1h-1l-1-1-1-1h-2l-1-1-1-2v-1h-1l-1 1v-1h-1v-1l-1-1h-5v1h-1v1h-2v-1h-3v-1l-1-1h-3v-1 1H9l-1 1v1l1 1H8v1H6v1l-1 1v2H4v-2l-1-1H2l1-1H2v-1H1v-3l-1-1h2v-1l1 1v-1h1l1-1v-1H4v-4l-1-1 1-1v1l1-1H4l1-1v-3l1-1 1-1h2v-1h2l1-1v-1h1v-1h1l1-1v-1h3-1v1h1v4h-1l-1-1v-1l-1-1v2l-1 1 1 1v-1 1h1v1-1h3v-1l1-1 1 1h-1v2-1h4-1v1h2v1l1-1v-2 1h1v1h1v1l1 1v-3l1-1 1-1v6l-1 1h-1v1h1v-1h1v-1l1-1v1h1l-1-1h-1v-1l1-1v-3l1 1v1l-1 1h1v-1h2l-1-1 1-1h2-1v-1h1v-1h2v-1h2v-2h1l-1 1h3l1 1-1 2-1 1v1-1h1v-1h3l1-1h1v-1l1 1h1v1h1v-1h1l1-1v-1h-1 1v-1h1l1-1h2l1-1 1-1h1V9h1V7h1v1l1-1h-1l-1-1h1V5l1-1 3-2h1-1l1-1V0h1zm-6 2v1h-1V2zM38 9h1v2h1v1h-1v-1h-1V9zm16 1h-1l1-1zm-2 0v2h-1l-1-1h1v-1h1zm-11 2v1h-1v-2zm12 0h1v1h-1v-1zm-22 2h1l-1 1h-3l-1 1-1 1v2h-1v-1h-1l1-1v-1h1v-1l2-1h3zm0 4h1-1z"/>
</svg>
