<svg xmlns="http://www.w3.org/2000/svg" viewBox="0 0 77 59">
  <path d="M11 0v1h1l1 1h1l1 1h1v1h1v2l2 1 1 1h1l1 1h1-4V8h-3V7l-2-1V5h-1V4l-2-1V2h-1V0zM6 2L5 3V2zm0 0v2-2zM2 4l1 1h1v1H2V4zM0 8l1 1-1-1zm30 1h-1zm0 1h1v1h1l1 1h-2v-1h-1 1l-1-1zm2 1h3l1 1 1 1 1 1h1v1h1l1 1h3v1h1v1h1v1h1v1h1-1v1h1v1h-1v-1h-1l-1-1-1-1h-2v-1h-1l-1-1h-2v-1h-1l-1-1-1-1h-1v-1h-1v-2h-1zm-20 0v1h1l1 1-1 1v1h-1v-1h-1 1v-1h-1v-2zm-1 3zm7 0v3h-2v-3h1zm-7 1l1 1v2l-1-1v-2zm11 1h1v2h1l1 1v1l1 1v1h-2l1-1h-1l-1 1v-1l-1-1h1l-1-1h-3v-1l1-1v-1l1-1zm-4 2v1-1h-1zm-1 0v1h1v1l-1-1-1-1zm39 1v1h2-1 2l1 1v1l1 1v1h-1v1l1 1h1l1 1v2h1v3h1v3-1h-1v-2h-1l-1-1h-1v-1h-1v-1h-1v-1l-1-1v-2l-1-1v-1l1-1-1-1-1-1zm-36 2l1 1h-1v2h1-1l-1-1-1-1h1v-1h1zm26 0v1h-1l-1-1 1-1zm-17 1h-1v1l-1 2-1-1v-2h2zm-6 2l1 1h-1l-1-1h-1 1zm7 0v1h-1v-1h1zm1 0v1-1zm9 4v-1l1 1v1h-1v-1h-1 1zm12 0h1l-1 1-1-1zm1 0h1v1h-1v-1zm-1 1v1-1zm-5 1v1l2 1h5l1 1 1 1h1v1h1l1 1v1l-1 1h-3v-1h-5l-1-1h-2v-1h-1v-1l-1-1h1l-1-1v-1h1v-1zm18 1v1l1 1h1v3l-1-1v1l-1-1v-4zm7 4v2l-1-1 1-1zm-6 6l1 1h1l1 1h1v1h4v1l1 1v1h1l-1 1h2l-1 1-1-1h-3l-2-1h-1v-1h-1l-1-1v-2h-3v-2h1zm4 1h-1v-1zM50 58v-1l1 1h4v1h2l-1 1h-1v-1h-1l-1-1v1h-3v-1h-1 1z"/>
</svg>
