<svg xmlns="http://www.w3.org/2000/svg" viewBox="0 0 77 62">
  <path d="M47 0h1v1h-1V0zm7 7h1l-1 1v1h-1V8h-1V7h1zm12 1h1v1l-1-1zm2 0l1 1h-1zm0 0zM51 8l2 2 1 1v-1l1 1h1v1h1v-1h1l1 1 1 1h-2v-1 1l-1 1h1v2h-2l-1-1h-2v-2h-4v-2l-1-2h2l1-1zm17 3l1 1 1 1v1h-1l-1-1v-2zm-21 2v-1zm27 0v1l-1 1v-2zm-10 0h1l1 2v1l1 1h-1v1h-1v1-1h-1l-1-1v-1l1-1v-2zm-4 1zm-15 1h1-1v-1zM3 27h1v1l1 1v1l-1 1v1H2l-1-2H0v-2l1-1h1zm21 10h1l1 1 1 1-1 1v3l1 1v1h1l1 1 1 1 1 1v-1h1l1 1h1l-1 1-1 2 1 1v3l-1 1v2h1v2h1v2h-3v-1h-1v-1h-1v-1h-1v-2h-1v1l-1-1v-1l1-1h2l-1-2h-1l1-1h-2l-1-1v-2h-3l-1-1v-1h-2v-1h-3l1-1v-1l1-1h2l2-1 1-1v-4zm34 1v1h-1v-1zm18 0v1h1l-1 1h-1v-2zm-4 2v1l-1-1zm-41 0v2h-1v-1zm-1 4h1v1h-1v-1h-1zm3 2v1h-1v-1zm-17 1h1v1h-1v-1zm4 1l1 1h-1v-1zm4 2h-1z"/>
</svg>
