<svg xmlns="http://www.w3.org/2000/svg" viewBox="0 0 63 77">
  <path d="M49 0l1 1h1v1h2v1h1l1 1v2h1l1 1v1-1h-1v1l1 1v4h1v4h2v1h1v1h1l1 1-1 1h-1v1h-1l-1 1v1h-1v1l-1 1 1 1-1 1v2l-1 1 1 2v3l-1 2v2l-1 1h-1l-1 1v1l-1 1v1l-1 1v2h-2v3l-1 1v5h-3v2h-1v1h2l1 1h1v1h1v1l1 1h1v1l1 1v2h1v1h1l1 1v2h-1v-1h-3l-1 1-2 2-2 2h-1l-1-1-2 1-1 1h-1v-1h-4v1h-1v-1l-1-1h-1l-1-2h-1l-1 1-2-1-1 1-1-1h-1l-1-1-1-1h-1v-2l-1-1h-1l-1-1h-1 1v-1h-1v-1l-1-1-1-1h-1l-1-1v-1l-1-1-1-1h-2v-2H7v-2h1v-2l-1-2-2-1v-1l-1-1 1-1H4l-1-1v-2l-1-1v-1H0v-1l1-1v-3h1l1-1H2v-1l1-1 1-1v-2h1v-1h3V14h3V6l30-1h1l1 1 1-1V4h1l1-1 1-1V1h2z"/>
</svg>
