<svg xmlns="http://www.w3.org/2000/svg" viewBox="0 0 34 77">
  <path d="M25 0h1v2h1l1 1 1 1h1l1 1v1h1v5l1 1v4l1 1v1h-2v1h-1v-1 1h-1v-1 2h-1v1h-1v5h1-1v1l-1 1v1l-1 1v1-1l-1 1-1 1v-1 1h-1v1h-1v1h-1v1l-1 1v1h-1v1-1 3l-1 1h1v1h-1v5h1v1h1l1 1v-1l1 1v2h1v2h-1v1h-1l1 1h-1v1l-1 2v-1h-1v-1 2h-2v1h-1 1v1h-1v1h1v1h-1v4l-1 1h1v1h-1v2l-1 1v2h-1l-1-1v1l-1-1h-1v1H9l-1 1v2H6v1H5l-1-1v-2l-1-1v-2h1-1v-1h1v-1H3v-2H2v-4H1v-2 1-3H0v-3l1-1v1h1v-4h1v-1l1-1h1v-4l-1-1h1l1-1v-2H5V32l1-1v-2l2-1h2l1-1-1-1v-2l1-2h1v-5h1l1-1v-1l1-1v-1l1-1V9h1l1-2V6h1l1 1V4l2-1 2 1V3l1-1V1h-1 1V0zm-1 62v1h-1v3h-1v1h-1v1-4l1-1h1l1-1zm-7 4v2l-1 1v2l-1 1v-2l1-1 1-2v-1z"/>
</svg>
