<svg xmlns="http://www.w3.org/2000/svg" viewBox="0 0 77 45">
  <path d="M41 0l1 1h3l1 1 1 1-1 1h-2 3l1-1v2l-1 1h-1v1l-1 1 1-1V6h1v1-1l1-1 1 1v1l-1 3-1 1h-1v1l-1-1h-2 1v2-1h2l1-1h1l1-1V9l2-1 1 1 1 1h2l1 1v1l-2 1-1 1v1l1-1v-1h1v-1h2l1-2V9h1v1h1v2l1 1v1l-1 1v1h-1l-2 1-1 1h2-1l1-1h1l1-1 1-1h1l1 1 1 1h1l2 1h2l1-1h2v-2h2v1h2l1 1-1 1 1 1v2l-1 1v2l-1 2-1 1-1 2h-1l-1 1h-1l-1 1-2 1h-3l-1 1-4 1h-1l-2 1h-4v1h-2v1l-2 1-1 1-1-1v2h-1v1-1h-1l-1-1h-1 2-1l-1-1v1h-1l-1 1-1-1h-2l-1-1v2-1h-1v-1h-1l-2-1-1-1-1-1-1-1h-1v-2h-2v1h-1l-1-1h-1l-2-1v-2h-1v2h1l-1 1-1-1-1-1h-1v1h-1l-1-1h-1v1h-2v-1 2h-1l-1-1v-1H9l1 1v1l-2 2v-1H7l-1-1v-1H5l1-1 1-1H6l-1 1-1-1 1-1-1 1-1-1-1-1v1h1l-1 1 1 1 1 2-3-1-1-1v-2l3-6v-1l1-1v-1l1-1v1h1l1 1v-1H6v-2l1-1v-1 2h1v-1h1v1h1v1-2h2v-2l-1 2v-1H9v-1 1H8v-3l1-2 1-1 1-1V6h1l1-1h2l3-2 2-1h2l1 1 1 2v1h-1 1v2h-1l-1 1-1 1h-1V9h-2v1h1V9l1 1h1v3l-1 1 1-1v-2h1l1 1-1-1v-1l1-1h2-1V8h1l1-1V6h1-1l-1-1h-1l1-1 1 1h3l1-1 1-1V2h2l2-1 5-1zm25 9l1 1h5v1h-1 1v-1h1l1 1h1v1l-1 1h-3l-2 1h-1v-2l-1 1v-1h-1l-1-1h-2v-1l-1-1h1V8zm-5 2v1-1zm5 2h1l1 1h-1l-1-1zM15 31v1h-1v-2zm3-1l1 1v1l-1-1h-1l1-1zm-1 3v1h3v1h-2l-1 1v-2h-1v-1h1zm-3 0v1h-1v1h-1v-1h1zm7 1h-1zm0 1h-1v-1zm-6 0h1v1h1v1h-4l1-1h-1 1l1-1zm5 0l1 1h-1v1l-1-1h1v-1zm-1 0v1h-1v-1zm3 1h1v1h-1v-1zm0 1h-1v-1zm-4-1v1l1 1h1v1h-1l-1-1h-1v-1zm-3 2h1v2h-1l-1-1h1v-1zm2 1v1h-1v-1zm21 0v1h-1l1-1zm4 1l1 1v1l-1-1h-2l1-1zm-4 1h1l1 1h3l1 1-1 1h-1v-1 1h1l-1 1-1-1-1-1-1-1-2-1z"/>
</svg>
