<svg xmlns="http://www.w3.org/2000/svg" viewBox="0 0 76 63">
  <path d="M44 0l1 1 1 1h1v1h1v1h2l1 1h1l1-1 1 1h1V4l1 1h3l1-1 1-1h4l1 1 1 1h1v2l1 1h-1l-1 1v2h1l1 1v2l-1 2 1 1 2 1h2v1h1v2l1 1h1v2h-1v3h-1v2h1v1l-1 1 1 1 1 1v3h-5v1h-2v3l-1 1-1 1h-1v1l-1 1h-1l-1-1-1 1-1 1h-3v1h1v2h-1v2l-1 1h-1v-1l-1-1v1h-1l-2 1-1-1v3h-3v-1h-3l-1-1h-4l-1 1h-2v1l1 1h-1v1h-3v1h-1l-1 1h-2v1h-1l-1 1h-1v1l-1 1-1 1h-5l-2-1-1-1v-1l-1-1v-2l-1-1-1-1-1-1h-3v-1H7l-1-1H5v-1H3l-1-1v-1l-1 1H0v-1h1l-1-1h2l1-2 1-1v-1l1-1h1v-2h1v-2l1-1h1v-2h2v-2h1v-4l1-1 1-3v-1h1v-1h2l1-1v-1h2v-1h2v-1h2l1-1 1-1v-1h1l1-1v-1l1-1 1-1h2l1-1h1l1-1V8l1-1h1v1l1-1V6l2-2V3l1-1V1h2l1-1zM7 35h2v1l-1-1H7zm-2 5H4zm12 22v1z"/>
</svg>
