<svg xmlns="http://www.w3.org/2000/svg" viewBox="0 0 76 50">
  <path d="M68 0h1v1h1v1l-1 1v1l1 1v1h2v1h-1v1l1 1 1 1v1h1v2h1l1 1h1-3v-1l-2-1h-3v1l-1 1 1 1v2h-3l-1-1v1h-2v2h-1l-1 1h-1l-2 1h-1v2h-1v-1l-1 1h-1l-1 1v3h1l1 1h1l-1 1v6h-2v1l-1-1h-1l-1 1h-1v1h-3v1h-1v1h-1v1l1 1v-2h1v2h1v2h-2v2l1 2h1v1l-1 1h-2l-1 1-1-1h-1l-1-1h-1l-1-1h-1v-1h-1v1l-1 1h-1l-1-1h-1v-1h-1v-1l-1-1h-1v-1h-1v-2 1h-1v1h-1v3h-1l-1 1h-2l-1 1h-1v-2l-1 1 1 1h-2v-1h-3v-1 1h-1v1l-1 1h-2l-1-1H8l-1 1H6l-2-1v-2h2l1-1h1v-1H7h4l1-1-1-1-1-1-1-2v-1l-2-1H5v-1l-1-1v-1l1-1 1-1v-2H4v1H3l-1-1v-1l1-1v-1h1v-1h1l1-1 1-1-1-1H4v-1H1v-1H0v-2h1v-1l1-1h1l1-1h1v-1h2l1-1v-2h4l2 1h3l1 1v1h7l1 1h1l1 1v-1l1-1h1l1-1 1-1h2v-3l1-1h3l1-1h10v1h2V7h2l1-1h3l1-1 2 1h1v1l1 1 1-1V6l-2-1V2l1-1h1l1-1h1v1l1-1h1z"/>
</svg>
