<svg xmlns="http://www.w3.org/2000/svg" viewBox="0 0 77 18">
  <path d="M59 0v1l-1 1h3l1-1h1l1-1v1l8 1h5v1l-1 1h-4l-1 1h-3l-3 1h-9V5h-4l-3 1h-2l-2-1h-3V4h10-15l-1-1h-1V2h-1l1-1h4l1 1V1h-1 4-1V0h3l1 1h6l2 1h1V1h-1 1l2-1h1zM25 2h2l1 1h5l1 1h1-1v1l2-1h1l1 1h1l2 1h1l2 1h3l2 1h2l-1 1h4v1l2 1h3-1v1h4l4 1h-3l-1 1-2 1h-5l1-1h-9 2l1-1 1-1h-3v-1l-3-1-1-1h4-2l-6 1h-1v1l-1 1h-1l-1 2h-1l-3 1-1 1v1h-1 1v1h-6l-2-1-2-1h-2l-2-1-1-1h4v-1h-5v-1l-1-1h9l3-1h-2l-2-1h-2V8h-2v1h1l1 1h-2l-2 1h-6l-1-1-1-1H7L6 8H5L4 7h3V6H6L5 7H4L3 6H2L1 5V3l1 1h1l8-1h4l1 1h-3l1 1h1l1 1V4h3l3 1 4 2h1l-1-1-2-3h1zM0 8h2l1 1h2l1 1 1 1-1-1-4-1H1zm73 0h2l1 1h-1l-1-1z"/>
</svg>
