<svg xmlns="http://www.w3.org/2000/svg" viewBox="0 0 77 37">
  <path d="M36 0v1h1v2h1v1h2v4h3v1h1V7h1V6l1-1 1 1V4h1v1-1h1l1 1h1V4h2v1l1 1h2V5h1V4h2l1-1 1 1h5v1h2l1 1v1h1v1h1v1h1l1 1h3l1 1v1h-1v1l-1 1v1h-1v1h1l-1 1v1l-1 1v1h-1v5h-5v1h-1v-1h-1v-1l-1-1-1-1-1-1h-1l-1 1h-2v1h-1v-1h-3v-1h-2v1h-3v2h-1v2h-1v2l-1-1-1 1h-1l-1 1-1 1h-1v-1h-1l-1-1h-3v2l-1 1h-8v1l-1 1v3h1-2l-1 1H12l-1-1h-1v-1H9v-1H8l-1-1v-1H6l-1-1H3v-2H2v-1l-1-1v-2l-1-1v-2h1v-1l1-1-1-1h1v-2h1v-1l1-1 1-1h1l1 1h4l1-1 2-1h1v-2h2l1-1V7h1V6l2-1 1-1 1-1 1-1h5v2h3V3h1V2l1-1h1l1-1z"/>
</svg>
