<svg xmlns="http://www.w3.org/2000/svg" viewBox="0 0 75 77">
  <path d="M51 0h1v1l1 1v1h1l1 1 1 1 1 1 1 2v1h1v1h1v1l1 1v1h-1l1 1v1h1v1l1-1v1h1v1h1v3h-1v2l-1 1h4v4l1 2v1h1v1l1 1v1l-1 1-1 1h-1l-1 2v3h-1l-1 1v2l1-1v-1h2v1l2-1 1-1 1-2 1-1h2l1 1v1l-1 1v5l-1 1h-4l-1 1v1h-1v4l-1 4h-1l-1 1-1 1-1 2h-1l-1 1-1 1h-1v1l-1 1h-1l-1 1-1 1-1 1v1h-1l-1 1h-1v1h-1v1h-1v3l-1 1v1h-1l-1 1-1-1h-2 1v-1h-1l-1-1-3-2-2-1h-2l-1-1h-1l-1-1-12-4h4l-1-1h-2v-1l1-1h1l1-1h-2l-1-1v-1l1-1h-1l-1 1-1-1 1-1 1-1v-1l-1 1-1 1-1 1-2-1h-1l-1-1v-1h1v-1h-1l-1 1h-1v-1l-2-1-1-1h1v-1h2v1h1l-1-1h-1v-3l-1-1-1-2v-1H5v1H4l-1 1v-3l-1-1v-1l-2-1v-3l1 1h2l1 1v-1l1-1h1v-1H5l-1 1H3l-1-2v-1l-1-1v-1h1l-1-2 1-1h6-4v-1l1-1h2l1-1H7v1H5v-1 1H3l-1-1H1v-1 1H0v-2l1-1h3l1 1v-1h1l1-1h1v-3l1-1h1l1-1v1l1-1h1v-1h1-1v-1h1l1-1 1-2v-1h1V9l1-1V7l1-1 1-2h1V3h1l5-1 1 1 4-1 2-1h1V0zM19 57v1-1zM6 59l1-1-1 1zm13 0h-1v-1zm-4 0h2v1h2l1 1h-1l1 1-1 1v2h-1v-1l-1-1h-1l-1-1h-3l-1-1H9l-1-1h2-1 1v-1h5zm5 0v1l-1-1zM8 60v1l-1-1h1zm12 1v1-1zm0 0h1v1l-1-1z"/>
</svg>
