<svg xmlns="http://www.w3.org/2000/svg" viewBox="0 0 63 77">
  <path d="M59 0l1 1h2V0l1 1v5h-1l-1 1-1 1v1l1 3v2l-1 2h-2v3l1 2v4l-1 2 1 1 2 3 1 2v1l1 2v5l-1 1-2 2-1 1v1l-2 2v3l-1 1-1 2h-3v2h-1v1l-1 1v5h1v2l-1 1v1l-1 1v2l-1 1-1 3h-9l-2 1v-1l-1 1h-1l-1 1v1l-1-1-2 1h-1l-1-1h-1v-1l-1-1v-1h-1v-3l-1-1-2-1v-1l-1 1h-1l-1 1v1h-1v-1l-1 1h-2l-1-1h-1l-1 1-1 1-3 1-2-1H4l-1-1H2l1-1v-1l1-1 1-1v-3l-2-4v-6l2-2 1-1v-2l1-1-1-1v-1l-1-1v-1l-2-2H2l-1-1-1-4 1-1-1-1v-2l1-2v-1l1 1h1l1 1h1l1-1h1l1-1 1-1 1-1h2l5 1h2v-1l5-6v-1h2l1-1 1-1 4-3 4-3 1-1 2-1h1l2-1h1V8h4l1-1h2l1-1 2-2h2l1-1V2l1-1h2V0z"/>
</svg>
