<svg xmlns="http://www.w3.org/2000/svg" viewBox="0 0 77 63">
  <path d="M36 0h1v1h1V0v1h6v1l1 1V2l1 1v1h1v1h1v2h1v1h5l-1 1h2v1l1 1v1l1 1h-1l1 1v1h-1l1 1h1v1l1 1 1 1v1h1v2l1 1h2l1 1v2l1 1h1l1 1 1 1v1l-1 1v1l1 1v1l1 1v7l-1 1v1l1 1 1 1v3-1h1v-1h1v1h1l1 1v2l1 1v1h1v1h-1v3h-1v1h1v1h-1l1 1v1H66l-3 2v-1l-1-1h-3l-1-1h-1v-1h-1v1h-2v-2h-3l-1-1-16-1h-7l-4 2-3 1h-4v-1l-1 1-1-1h-1l-1 1-1 1H7l-1-1v-2h1v1l1-1v-1h1v1l1-1 1 1h1v-1h-1v1l-1-1v-1H8l-1 1v1H6v-2h1v-1l1 1 1-1-1-1v1H7l-1 1v-1l1-1H6v1-1l1-1v-2l1-1v-1h12v-2h8v-2l1-1h1l1 2h2l1 1h1l1 1h1l1 1h2l1 1 1-1h2l1-1h1l1-1-1-1-1-1h-2l-2 1h-3v-1l-1-1h-3v-1l-2-1-1-1h-2l-1 1h-1v-1l-1 1h-1v2l-13-1h-1v-1h1v-1l-1-1h1v-1h1-1v-2h1-2l1-1h3v-1h-3v1l-1 1h-1v-1l-1 1v2l-1 1v-6H7v-2l-2-1v-2l-1-1H3v-1H2l-1 1-1-1 3-1 2-1v-1l2-1 5-6 1-1v-2h1l1-3V8h1V6h1V5h1V3l1-1h1V1h1v1h8V1h5V0h1zM12 36v2h-1l-1 1-1 1v-3h2v-1zm-1 3h1l-1 1v1h-1v-1l1-1z"/>
</svg>
