<svg xmlns="http://www.w3.org/2000/svg" viewBox="0 0 75 77">
  <path d="M55 0h4l2 1h2l3 1h5l1 1h2v1h1l-1 2v3l-1 1-1 1-2 2-1 1v1l-1 1-1 1-1 2v5h1v9l1 1h1v1h-1v1h1v2h1v1h1v1l1 1 1 1v1h1l1 1v2l-1 2-1 1v1l-1 1v1h-1v1l1 1h-1v1l1 1v1l-1 1v1l-1 1-1 2v1l-1 1-1 1v1h-1l-1 1h-1l-2 1v-3h-2v1h-1l-1-1-1-1v-2 1h-1l-1 1h-1v-1l-1 1h-3v1l-1 1h-7l-1-1h-1l-1-1h-1v3h-2v2h1v1l1 1 2 2v2l-1 1-1 1-3-1h-2l-1-1h-3v-1h-1v-1h-3l-1-2-1-1v-1l-1-1v-1h-1v-2h-1v-1l-1-1v-1h-1v-2h-1v-1h-1v-3l-1-2v-1l-1-1v-3l-1-1v1l-1-1v1H8l-1-1h1v-2l-1-1H6l-1-1-1-1v-1l-1-1v-1l-1-1-1-2-1-1v-3l1-1h1v-3l1-1 1-3v-1l-1-1v-2l1-1h2v-1l1-1 1 1h1l1-1h4v-2l1-1v1h1l-1-2v1l-1-1v-1h-1l1-1 1-1v-1l1-1 1-4 1-2V1h1V0h4l1 1h6l1 1h3l1 1h2l1 1h2V3h-1l1-2h9l3 1h2v1h4V2h-3l-1-1V0h1z"/>
</svg>
