<svg xmlns="http://www.w3.org/2000/svg" viewBox="0 0 77 57">
  <path d="M58 0h1-1v9l1 1h1l1 2 1 1h1v3l-1 1 1 1h1v6l-1 1h-4l-1 1v1l-1 1v1h2v1l1-1h1l1 1h1l1 1v1l1 1v1h1l1 1v1h1l1 1 1 3v1l1 1v1h1l1 1v1-1h2l1 1v2l1 2h-2l-5 1h-3l-6 5h-3v-1l-1 1h-3l-1 1-1 1-1-1-1-1h-1v1h-2l-1-1-1 1h-1v1l-1-1h-2v-1l-1-1h-1l-1-1-1-1v-1l-1-1h-2l-1 1h-2l-1-1-1 1-1 1h-1l-1-1h-1v-1h-2v-2h-1l-1-1v-1h-1v-3l-2-1-1-1h-1l-1-1v-1l-1-1v-1l-2-2-1-1-1-1-2-1-1-1v-2l-1-1-1-1v-1H1l-1-1v-1h1l-1-1h2l2-1v-4h1v-2l1-1 1-2 3-1h2v1h1l1 1v2l1 1 2 1 2-1h6-1v-3l4-1h4v3h3v-2l3-2 4 3 1 1h3l2-2 2-3 1-1 1-1 2-2h-1V3h-1l-1-1h4V0z"/>
</svg>
