<svg xmlns="http://www.w3.org/2000/svg" viewBox="0 0 53 77">
  <path d="M44 0h2l1 1h2v1l1-1V0l1 1 1 1h1v1h-2v1h-1l-1 1v1h-1v1l1-1h1v1h2v1h1v1l-1 1h-2l-1 2h-1v1h1v3h-1v2h-2v1h-1v1h1v1h-1v1-2h-2l-1-1h-1l-1-1v-1h-2v1h-1v-5h-1v-2h1v1h3v-1h1V8l-1-1 1-1V1l1 1h2V0zM27 22l1 1h2l1 1v1l1 1h2v1h-1v1l1 1v2h2v-1 1l1 1v2l1 1v1l1 1v1h-1v1h-1v1h1v1h-1v4h-1v1l-1 1-1 1v1h-2v1h-1v1l-1 1h-1l1 1h-2l1 1v1h-2v1h1-1v1h-1l-1 1-1 1h1v2h-1l-1 1h-1v1h-2v1h-1 1v1l-1-1h-1v1h-2v-1h-2v1l-1 1v1l1 1h-1v2h-1v1-1h-1v1-1l-1-1v2H9v1H7v1-3H6v-2h1v-7H4v-3H3v-2H2v-4l-1-1v-2H0h1v-2l-1-1v-1h1l-1-1v-1h1v-2l1-1h1v-3h1v-3h1l1-1 2-1 1-1 1-1 1-1h3v-1l1-1 1-1h1l1-1 1-1v-1h2l1-1 1 1 1-1h2zM9 74v1H8h1v1H8v1H7v-1H6h1v-1h1z"/>
</svg>
