<svg xmlns="http://www.w3.org/2000/svg" viewBox="0 0 77 44">
  <path d="M22 0h1l2 1 1 1h3l1 1h1l2 1h2v1l1 2 1 1 1 1h1l2 2 1 1h2v2h1l1 1h2l1 1h2v2l1 2 1 1h1v-1h3l2-1 1-1h1v-2h3l1 1h1l1 3h2l1-1v1h2l1-1h1v1h1l1 1 1 1-1 1v2l-1 2v3l-1 1v1h1l1 1v1l-1 1h-1v1h-1v-2l-1 2v1l1 1h1v2l-1 1-2 1-1 1h1l-1 1-1-1H56v-1h1-2v1h-2v-1h1l-1-1v-1 1h-3 1-1v-1l-2-1h-1v1h-3 5l1 1h-1 1l1 1 1 1h-1l-7-2-4-2h-1v-1l-1-1v1h1-2l-1-1v-1h-1v1h1l-4-2-4-2-2-1-2-1h-7l-2-1H9v-2l-3-2-3-2-3-1v-1l1-1-1-1h1v-1l1-1h1v-1l1-1h1v-1l1-1h1l1-1 2-1 2-1v-1l2-2h2l2-1 1-1h1V4h-2V2l1-1h1V0h1z"/>
</svg>
