<svg xmlns="http://www.w3.org/2000/svg" viewBox="0 0 77 68">
  <path d="M67 0h1l1 1 2 1v4l1 1v3h-4v2l1 2v4l1 1v1l1 1 4 3h1v1l-1 1v1h-3v4l1 2h-1l-1-2v-4h-2v1l-1 1h-1v1h-1l-1 1v2l1-1h2l1 1h1l2 1h2v-1h2v4h-1l1 1v3h-1v-1h-2v-1l-1 1h-1 1l1 1h1l-1 1v5l-1 1h-1l-1 1v1l-1 1v2h1v2l-1 1-1 1h-1v4l-1 1-1 1-1 1h-1l-1 1-1 2-1 1h-2v-3l1-1-1-1v-4l-3-1h-3l-2 1v4h-1l-1-3h-3l-1 1-1-1-1-1h-4v-1l-4-1h-2l-1-1v-1h-1v-1l1-1-1-2-1-1-1-1-4-1h-2l-2 1-1 1-2-1v-1h-1l-1-1-1-1v-2l-2-1-2-1H9l-1-1-1-1v-2l-1-1-1-1-3-1H1l-1-1v-1l1-1 1-1h1v-3h6l1 1 3 2h3l1-1 2-2 1-1 1-1h1l-1 2v2l-1 1v1l2 1 1 1v1h2l1 1h4v-1l2-1 3-1 1-1v-3l2-2 1-1-1-1h-1v-2l-1-1h1v-1l1-1h1l1-2h1l1-1v-2h1v-2h1v-1l1 1 1 1h5l2-3V4h2l2 1h2v1h2V4l-1-1 1-1V1h5l1-1zm8 10h1v1h1v1h-4v-1l1-1zm2 11l-1 1v-1l1-1z"/>
</svg>
