<svg xmlns="http://www.w3.org/2000/svg" viewBox="0 0 77 43">
  <path d="M7 0l1 1h1v1l1 1h1v1l1 1v1h1l1 1 2 1h1v1l1 1 1 1 1 1 1 1 1 1 1 1v1l1 1 1 2 1 1 1 1 1 1v1h1v1l2 1 1 1h1v1-1h2l1 1h2l1 1h1v-1h1l2 1h5l1-1 2-1 1-1h1l1-1 3-1 2-1h1v-1l1-1v-1l1-1v-2l1-1 1-1 1-1v1l1 1h-1v-1 3h1-1v-2h1v1h1v1l1 1h2v1h2-1v-1l1 1v2h-2l-1 2-1 1h-1v-1l-1 2-4 7-2 3-1 1h-3v-1h2l-1-1v-2l1-1 1-3v-1h1-1v1h-1l-1 1h-2v1h-6v1l-1 1h-1l-1 1h-1v1h-2v1h-1v1h1v-1h1v-1h6v-1h1v1h1v1h1l1 1h3l-1 1h-1v1l-1-1h-1v-1h-1v-1h-7l-1 1h-1v1h-2 1v-1h1-1l-1-1 1-1v-1h-1v1h-2v1-1h1v1h1l1 1h-1l-1 1h-1v1h-2v-3h-1l-1-1v-2l1 1v2l1-1v-2h-1v-1 1h-1v-1h-2l1 1h1v2h-1 1-3l-2 3-1 1h1v1h-1v-1 2-2l-1 1v3l-1 1h-4v-1h-1v-1h-1l-1-1-1-1h-3v-1l-1-1h1l1 1v1h1v-1h-1v-1h-1v-1l-1-1h-1l-1-1-1-1h-1v-2l1-1v1h1v2h1v1h1v1h1l1 1v1h1l1 1 1 1v-1l1 1 1 1h1v1l1 1v-2h1v-3h1l-1-1-1-1v-1l1 1v-1l-1-1h-2l-1-1h1l-1-2h-6v-1h1-1v-1h-2v-1h-2v1l-1-1v-1 3H8l1 1v1l1 1H9v-2H8v3H7v1l2-1h1l1 1h1v1h1v1h1l-1 1H8v1H5v1H4l-2 1v-1l-1-1H0v-1h2l1-1 1-1H3v2-1h2l-1 1h1v-1l1-1v-2 1-1h1v-2l1-4v-3 1h1l-1-1v-3H7v2l1 1H7v2l-1-1v-1 2l-1 1v1-4H4v1-1l-1 1v1-2 1l-1 1 1-1v-2H2v-1 5-3l-1-1 1-1 1-2 1-1v-4h1v-3l1-1v-1l1-1V6L6 5V1h1V0zm58 16h1zM77 4v1l-1 1-1 1-2 1h-3V7l2-1 1-1 3-1zm-9 5h3-1l-1 1V9h-1v1h-1v1h-1v1h-1v-2h1l1-1h1zm5 1v1-1zm-1 1zm-1 0l1 1h-1v1h-1v-1l1-1zm-2 2h1v1-1 2l-1 2-1-1-1-1v-2h1zM2 27v2-2zm10 0l1 1v2-1h-1v-1zm-9 2v1l-1 1v-2zm8 0zm-6 0zm6 0h-1zm0 1h1v1l-1-1zm2 0v1-1zm-9 1zm10 0l1 2h1-1v-1h-1v-1zM3 32l-1 1v1-2zm2 0v1l-1 1v1-2l1-1zm45 0v2h-2 1v-1h-1 1v-1zm-32 1v1-1zM2 33v1-1zm19 1v-1zm-5 0zm40 0h-1zM2 34v1-1zm12 1l1 1v1h-1v-1l-1-1zm1 1h1-1zm6 1h1v1l-1-1z"/>
</svg>
