<svg xmlns="http://www.w3.org/2000/svg" viewBox="0 0 77 69">
  <path d="M8 0v2H6h1V0zM2 3l1 1H2v1H1L0 4l1-1v1l1-1zm14 2h1l1 1h-1l1 1h1l-1 1h-1l-1 1h-1v1l2-1h1V8h1v1h-1l-1 1-1 1-1 1 2-1 1-1h1l1-1h1v1h-2v1l-1 1-2 1v1h-2v1h-1v1l-1 1v3-3h2v2h1v-1h-1v-1l-1-1h1l1-1h1v1h1v-2l1-1h1l1-1 1-1h1l1 1-1 1h-1l-1 1v2h1v-1h1v2h-1v1l-1 1h-1v2h-1v1l1-1h1v-1 3l-1 1-1 1h-2 1v1h-1v2l1 1v1h-1v1h1l1 1h1l-1-1v-4h1v-1h1v-1h1v1l1 1 1 1v4h-1 1v1-1l1 1h1v-1h3v-1h2v-2h1v-1h1v-1h1v1-2l1 1v4-1l1-1v-2h1v-2h1v-2l1-1h1v2h-1 2v1l-2 1h1v-1l1 1h-2 2v1h-2v1h3v1h-1 1v-1h1v2h-2l-1 1h3v1h-3l-1 1 2-1h1l1 1h-3l-1 1-2-1h-2l-3-1h-1v1l-1 1v1l-1 1h2v-2h1l1-1h1v2-1h1v1h-1v1h-2v1-1h1v1h1v2h1v-1h1-1 1l1 1h-2v1h3-1l-1 1h-3v1h4l1-1h1l1 1 1-1h5-1v2h-5 3v1h2v-1h1l1-2h1v2l1-1v-1h1v-3h2l-1-1h1v-1h1v1h1l-1-1 1-1 1-1v1h1-1v-1h2l1-1v-1h2l1 1v1h1v2-1h1v-1 1h2v-4h1v-1l1-1h1l1-1 1 1h3v1h2v1h1v1h1l-1 1v2l1 1v1l1 1v2l-1 2v1l-1 1v1h-1v2h-1v1h-2v-1h-1l-1-1h-1v2h-1v1l1 1h3l1 1v1h-4l-1-1h-1v-1l-1-1v-1l-1-1h-1v-1h-5v1h-5l-1-1h-3 1v1h-1v-1h-1l1 1h1v1h1l-1 1h2-1v1h-1 1v1h1v1h-1v-1h-1l1 1h-1v-1l-1-1h-1v-1h-1 1l-1 1-1-1h-1 1v1l1 1h-1 1v1l1 1h-1v-1h-1v1-1l-1-1v-1 1h-1l-1-1v-1h-2l-1-1 1 1 1 1h1l1 1h1v2h1v1h1-1l1 1v1h-1 1v2h2v1h2l2 1v1h4l1 1 1 1h1l-1-1-1-1h-1l-1-1v-1l-1-1 1-1h2v-1h2l2 1h3v1l2 1v2l-1 1v1h-1l-1-1h-2l-1 1h-1 3l1 1v1h1l-1 1-1 1v-1 1h-3v1h-1v1h-2v-1h-2l-1-1h-3v1h-1v-1l-1-1h-1v-2l-1-1-1-1v-5l-1-1h-1v-1 1l-1-1-1-1v1h1v3l-1-1v-1h-1v-1 2h1v1l1 1v5l-1 1h-2v-1h-7v-1h-1v-2h-1v-1l-1-1h-2v-4l1-1-1-1v7-1l-1 1-1-1v-1l-1-2v-1h-3v-1h-1l1 1h2v1l-1 1v-1h-1 1v1h1v1h1v2h-1v-1l-1-1v-1h-1v-1h-1v1h1l1 1v2h-1l-1-1v1h2l1 1h-1l-1 1v2h-1v-2h-1v-4h-1v4h1v5h-2l-1 1h-3l-1 1h-1l-1-1v1H8v-1H7v-1h1-1v-1H6l1-1h1v-2l-1-1 1-1v-1l1-1v-1h1v-3H9v-1h1l1-1h1v-4l-1 1-1-1v-1h1v-1l-1 1v1l-1-1v-2l1-1h3l-1-1h1v-1h-1v1l-1 1-1-1H9v-1l1-1H9l1-1H8v-1H7v-3 1h1v-1l-1-1h2l1 1h1v-2h1l1-1h-2v1H9v-1H8v-1h2v-1l-1 1v-1H7v-1H6v-3h2l1 1v-1H8v-2H7h1v-3l1 1 1-1v1h1v1h1v-1l-1-1v-1h-1v-1l-1-1-1-1v-1H7v-2h3v-1h1v-1h1v-2h1l1-1h-1v-1h-1V9h2-1V8h1V7l-1-1h3V5zm22 21zM20 54zM35 6v1h1l-1 1V6zm0 2v1h-1zm-1 7v1h-1 2v1h1-1v1l-1 1h-1v-1l-1-1v-1l1-1zm-10 2v2h1v-1 2h-1l1 1-1 1v1l-1 1-1 1v-4l1-2v-2h1zm9 2v1h-1v-2zm-3 0l1 1h-1l1 1h-1l-2 2 1-1h1l1-1h1v2l-1 1-1 1v1h-1v3h-1l-1 1h1v-1l1 1v1h-2l-2 1h-1v-7l1-1v-1h1v-1l2-1v-1h1v-1zm5 6v1h-1v-1zm7 1h-1zm0 1l-1 1h-2l1-1h1zm0 5h1v1h-1v-1zm0 2v1h-1v1h1-1v1h1-1v1h-3l-1-1h-1l1-1h2l1-1h1-1v-1zm-4 6h1-1zM3 45h2v1h2v-1h1v2H3v-1h1-1zm0 0zm48 2h2v1l-1 1v-1h-2v-1zm-3 3h1v1l1 1h-1l1 1h1v1h-1v-1h-1l-1-1-1-1 1-1zm1 5l1 1h2v1l1 1h1l1 1v1h-1l-1-1v-1h-2l-1-1h-1v-1h-1v-1zm-5 2l1 1v1h-1v-2zm-17 4v-1zm-2 0h1v1h-1v-1zm20 1l1 1h-1v1-2l-1-1zm1 2h1v2-1h-2v-1h1z"/>
</svg>
