<svg xmlns="http://www.w3.org/2000/svg" viewBox="0 0 77 52">
  <path d="M32 0v1h1v2h1v1l-2 1-1 1h-1l1 1v1h1v1h1l1 1V9h2l1-1v1h-2v1h-1l-1 1v1h-1v-1h-4l-3-1h-1l-1 1h-1v2h-1l-1-1v1l-1 1 1 1v2h12v2l1 1 1-1 2-1 1-1 2 1 2 1h1v1h2l2 1h2l2-1 3-1h5v-1l2-1 1 1v3l1 1 1 1-1 1v2h1v2h3v-1l2-1v1h3l2 1 1 2v4l1 2h-1 1v1l-1 1 1 1 1 1 1 1v1h-1l-1 1h-1v-1h-6l-1 1h-1l-1 1h-2v-1h1v-1h-6v2h-3v1l-1 1v1h-1l-1 1h-1v-1l-1 1h-1v1h-1v1h-2v1h-1v1h-2v-1l-1-1h-1V37h-3l1-1v-3l-1-1h-1v-1l-1-1h-2l-2 2v1h-1v1l-1 1-1 1v1h-1l1 1v2l-1 1v1h-1l-1-1h-4l-1 1-1 1v3h-1l-2-1h-2l-1 1h-2l-1 1h-1l-1 1-1 1H7l-1-1-1-1-1-1v-2l1-3 2-2v-1l2-1h1v-2l1-1v-1h-1l-2-2v-1l-1-3v-2H4l-1-2-1-1H1l-1-1v-1l1-1v-1l1-1h9l1-3h1v-1l1 1 1-1v-1l1-1v-1l-2 1h-1v-1h6V9l1-1V7l-1-1h1V4l1-1 2 1 1 1V4h2l1-1 2-1 1-1 1-1z"/>
</svg>
