<svg xmlns="http://www.w3.org/2000/svg" viewBox="0 0 77 53">
  <path d="M32 0l1 1 1 1h1l1 1h2l2 1v1h-1v1h1l1 1h-1v3l3 1h3l1-1h1l2 2v1l1 2 1 1v1l1 1v1l1 1 4 3 1 1 2 1 1 1h2l2 2 2 1 3 2 1-1 2 1h1l1 1h1l-1 1v3l-1 1-1-1h-1l-1-1-1 1v2h-4v2l-1 1v2l-1 2h-1v1h-1l-1 1h-2l-1 1h-1v1h1-1v2l-1 1h-3v1h-1l-1-1-2-1-2-1h-1v-5l-1-1v-1h-4l-1-1v-1l-1-1h-2v-1h-1v-1l-1-1-1-1h-3v-1 1h-2v-1h-1l-2-1-2-1v-1l-1-1v1h-1l-1-1h-1l-1 1-3 1-1-1h-1l-1 1h-2v1h-1v1l-1 1-1 1H6v-9l1-1v-1l-1-1H5v-2H3v1l-1-2 1-1h1-1 1v-2h1l-3-1v1l-1-1v-4l1-1V9L1 8H0V7h1L0 6l2-1 1-2h3l1-1h1l4 3h1v1l1 1v1l2 2h9-1V6l1-1 1-1h2l1-1V2h2l-1-1h2V0z"/>
</svg>
