<svg xmlns="http://www.w3.org/2000/svg" viewBox="0 0 40 77">
  <path d="M23 0h2v1h2l2 1h-2 1v3h1l-1 1h1v1h2V6l1-1 2-1 1-1h1v2h1v1h-1l-2 3-1 1-2 1-1 1v3l1 1v1h2v1h1l1 1v4h1v1l-1 1v1l-1 1v1h-1l-1 1-1 1v1h-2v1h-1l-1 1h-1l-1 1v3l2 2 2 2 1-1h1l1 1h-1v1h1l1-1h2v3h2v1l-1-1v1l1 1h1v-1l1 1h1-3v1h2v2l-1 1h1-1v1l1 1 1 1h-1v1h-1l-1 1-2 1-2 1-1 1-1 1h-1v1l-1 1-2 1h-1v2l-1 1 1 2 1 2-1 1v2l-3 3-1 1h-2l-2 1-4-20-3-3-4-2v-4l-1-1-1-1-1-1H3l-1-1v-1l-1-2-1-2v-4l1-1h1l1-1 1-2 1-1h1l1-1 1-2 1-2v-1l1-1v-1H9v-7l1-4v-1L9 9H8l2-1V7h1V6h1l1-1V4h2l1-2h1l1-1h3l1-1zm11 38h1v1h-1v1l-1 1v-1h-1v-2h1z"/>
</svg>
