<svg xmlns="http://www.w3.org/2000/svg" viewBox="0 0 77 71">
  <path d="M6 0v1L4 2v1L3 5l1 1 1 2 1 1h1l1 1h3v1h3v-1h1l2-1h2l3 1 2 1h1l2 1 2 1 1 1h2l2-1h2l1-1h1l1-1 4-1h3l5 2h1l1 1v1l1 1 1 1-1 1-1 1h-2l-1 1h-2v1h-1l-1 2-3 5-1 1 1 1v4l-3 4-1 1-6-2-2-1-1-1h-1v-1h1-1v-2h-1v-1l-1-1v-1l-2-1-2-1-8-2h-2l-2-2-4-3-1-1-2-1-1-1v-1l-1-1v-1l-1-3V8L0 7V6l1-1 3-4 1-1zm68 40l1 1-1 1v2l1 3 1 2-1 1v1l1 1v11l1 3v3l-1 1-1 1-1-1-2-1-1-2-1-1h-2v-1l-1-2h-1l-1-2-1-3v-2l1-1v-1l1-2v-1l1-1 2-2v-1l1-1 1-1v-2l2-3h1z"/>
</svg>
