<svg xmlns="http://www.w3.org/2000/svg" viewBox="0 0 77 34">
  <path d="M5 0l1 1h2v1h1v1l2 1 1 1h5l1 1h3l1-1 2-1V3h2V2h2l2-1h1l2 1h1l2-1 1 1 1 1h3v2h2l2 1h3v1h2l3-1h2l2 1 1-1h1l1-1h1l1-1h4V3h1l1 1h1v1h1v1l1 1v4h3l1 1-1 2h-1v2h1v4h1v1h-1v1l1 1 1 1v1h1v1h-2v1h-1v-1h-4v-1h-2v1l-1 1-1-1h-1l-1 1h-5v1h-1l-2 1h-5l-1-1-2 1h-1l-1 1h-1l-1-1h-1v3h-1v1h-1v1l-1-1v-1l-1-1h1v-1h1v-1l-1-1v1h-1v1h-3v-1h-2l-1 1-1 1v1h-4l-1 1-1-1-1-1-2-1-1-1h-1v-1h-3v1l-1 1v1h-2l-1 1-1-1h-1v-1l-1-1v-1 1h-1v-1H8l-1 1v-1H4h3v-1h1-4v-1h1v-1H4v-1l-1-1h1v-1l-1-1H2l-1-1H0l1-1v-1h1v2-1h2-1l-1-1v-1h1v-2H2v-1h1v-1l-3 1v-3h1v-1h1V9h5V8h1v1h4-1l1-1h3-1V7h-1l-1-1H6L5 7 4 8 2 9l-1 1V9l1-1h1-2L0 7h1V4h2V3L2 2V1h1l1-1z"/>
</svg>
