<svg xmlns="http://www.w3.org/2000/svg" viewBox="0 0 77 71">
  <path d="M76 0l1 1-1 1v3h-2v1h-2v1l-1 1h-1l-2 1h-2v1h-3v1h-1v1l-1-1h-1l-1-1h1l1-1V8h1l1-1V6l2-1 2-1V3h2l1-1 1-1h4V0zM54 28h1v1l-1 1v1l-1 1-1 1v1h-1v1h-1v1h-1v5l1 2v2l-1 1h-1v2l2 5v2h1v1l1-1v2-1l-1 1-1 3v3l1 3v1-1h-2l-1 1-2 1h-1v1h-1l-1 1h-6l-2-1-2 1H17l-1 1h-1l-1-1-1-1H9l-1 1-1-1H6l-2 1H3l-2 1H0v-1l2-1 2-1 1-1 1-1h2l1-1h3l1-1h1l2-2v-2h1l1 1h4l1-1h1l1-1v-5l-1-1v-2l-1-1h1l1-4v-2l-1-4-1-1v-1h-1l-1-1h-2l-1-1h-1v1h-1v-1h-1l-1-1v-1h1l2-1h4l1-1h3v-1 1h3v-1h2l1-1h10l2-1h2l3-1h6zm-44 8v1H9v-1l1-1zm4-1v1h-2 1v-1z"/>
</svg>
