<svg xmlns="http://www.w3.org/2000/svg" viewBox="0 0 52 77">
  <path d="M44 0l1 1v1h1l1 1h1l1 1h1l1 1v1h2l-1 1h-1l-1 2h-1v6h1v2h-1v2l-1 1v2l-1 2h-1v1l-1 1v5l-1 2v1l-1 2v4l-1 1v2l-1 2v3l-1 2-1 1-1 2-1 2-1 1v1l-2 1v1l-1 1-1 1v1l-1 2-1 1v9l-1 1v2-1h-3v-5l-2-4-1-1h-1l-1-1-1-1-1-1-1-1-1-1v-1h-1l1-1-1-1v-2l-1-1v-4h-1v1-1h-2v-1h1v-3l1-1v-8l1-2 1-2 1-1v-1l1-1v-1l1-1v-1l1-1v-1l1-1v-1h1v-1l1-2 1-2 2-3 1-1 1-1h1v-2h1l1-3V8l1-1V6l2-1h1l3-1 1-1h2-1V2h1V1l2-1zM2 37h1v1l-1-1zm-1 0v2H0v-1h1zm2 1l1 1h1-1l-1 1H2h1l-1-1 1-1zm39 21h1v1h-1v-1zm2 14v1h-1v-1h1z"/>
</svg>
