<svg xmlns="http://www.w3.org/2000/svg" viewBox="0 0 77 52">
  <path d="M48 0l2 1v1l1 1 1 1h-1v2l1 1h1l2 1 1 1v3h3l1 1h1l1-1h2v-1l1 1v1l1 1h1l1-1v1h2v1h4v1h2v1l1 1-1 1-1 1h-1 2v1h-1v1l1 1v1h1v1l-1 2v1h-4v1h-1l-1 1v2l-1 1h-3v1l-1 1h-1v1h-2l-1 1-1-1-1 1-1 1h-1v-2 2h-1v1h-1v1h-1v2h-1 1v1h1l1 1v1l1 1h1v-1h1v-1h1v1l1-1h2v1h-1v1h1l-1 1h-4v1h-2l-1 1h-1l-1 1v1h-1l-1 1h-1v-1h-1v-2h1v-1l-1-1v-1l-1 1-1-1-1-1-1 1-1-1h1v-1h1l1-1 1-1h2l-1-1v-1 1h-1v-1h-1l-1 1h-2l-1-1h-1v-1l-1 1v-1h1v-1h-2 4-1v-1h-1v-1l-1 1h-3l-1 1-1 3h-1v-2h-1v1h1v2l-2 1-1 2v1l-1-1h-2v1h-2l-1-1h-1v-1h2v-2h1v-1h1v-3h1v1-1h1l1 1v-1l1 1h1v-1h-1v-2h-1v-1h-1v-2h1v-1l-1 1-1-1v-3h-1v-1h-1v-1l-1 1v-1h-2v-1l-1-1h-2v1l-1-1h-1v1h-2v1h-1v1h-3l-1 1h-2l-1-1H9l-1-1H5v-1H4l-1 1v-1H2v-1H1v-1l-1-1v-1l1-1v-1h2v-4l1-1 3-2 1-1v-1h1V9h1L9 8V6H8V4l1-1v1h1l1-1V2h7v1h3v1h2v1h5v1h1l1-1 1 1h4v1h1V4h1V3l1-1h5V0l1 1h2V0h2z"/>
</svg>
