<svg xmlns="http://www.w3.org/2000/svg" viewBox="0 0 75 77">
  <path d="M61 0l1 1v4h1V4l1 1h-1l1 1h-1 2v1h2v3h-1v1l1 1v2h1v1h1v2l1 1h1v1l1 1v1l1 1v1l1 1h-1v2l1 2 1 1h-1v1l1 1v2l-1 2v1l-1 1-1 1v3h-3v1h-1l-1 2v1l-1 1v1h-1v1h-1v1h-1l-1 2v2l-1 1v-1l-1 1v1h-2v-1h-1v-1h-1v1h-1v1l-1-1h-1v-1h1l-1-1h-2 1v-1h-2l1 1-1 1h-1v1h-1v1l-1 1h-1v-1h-1l-1 1v-1l-1 1v-1h1v-1l-1 1h-1l1-1h-1l-1 1h1-1v1-1 1h-2 1-1v1h-1l-1-1v1h-1v1h-1l-1-1v1h1-1l-1 1v1l1 1-1 2h-1l-1 1v2h-1v1l-1 1h1v2l-6 1-8-1v1h-3v1-1h-2v1l-1 1-1 1-1 1-1 1H6l-1 1v-1l-1-1H3l-1 1H1v-2l-1-1v-4h1v-4l1-1-1-1h1l1-1 1-2 1-1H4l-1-1-1-1v-1l1-1h1v-2l1-2 1-1-1-1v-3l1-1h1l1-1 1-1 1-2h1l1-1h1v3h1l1-1 1-1 1-1 1-2 1-1 1-1v-1h3v-1l1-1 1-1v-5h-2v-1h-2l-1-1h-2l-1-1h-1v-2l1-1v-2l1-2-1-1v-1l1-3v-1l1-1-1-1v1-1l1-1V7h1l1-1h4l1 1h2l2-1V5h1v1h1v1l1 1h1l1 1h1V8l3-2h6l2-1V4l2 1 1 1h4l3-3zM51 53h1v3h-1v-1h-1l1-1h-1v-1zm4 2v1-1zm4 1h-1zm-14 1l-1 1h1l-1 1h-1v-1l1-1zm-9 3v1h2v1h-1v2-1l-1 1h-1l1-1 1-1h-1l-1-1-1-1z"/>
</svg>
