<svg xmlns="http://www.w3.org/2000/svg" viewBox="0 0 77 49">
  <path d="M74 0l1 1v1l1 1 1 1h-1l-1 1v1l-1 1-1 1 1 1v2h1v-1 1h-1v1l-2 1-1 1-1 1v1h1l-1 2h-1l1 1v2-1h-1v-2h-1v2h1v1h-1 1v2h1v1h-1v1h2v-1l-1 1v1h-1 1l-1 1h1-1l-1 2-1 1v1h-1v1l-1 1-1 1v4-1 1l2 2v1l1 2v4h-1v-1h-1v-1l-1-1h-1v-3h-1l-1-1v-1h-2v1h-1v-1h-4l-1 1h-3l1 1h1-1l1 1-1-1h-1v1h1-1v1h-1v-1l-1-1 1 1h-6l-1 2h-2v1h-1v2h-1 1v2h-2l-1-1-1-2-1-2-2-1v-1h-1l-1 1-1 1-1-1-1-1-1-2-1-1-1-1h-3v1l-5-1-3-2-2-1-1-1H7v-2l-1-1H5v-1l-1-1H3v-2H2v-3l-1-1v-3l-1-2v-2l1-2v-1l1-3 1-1V7l1-1V2l1 1h1v1H5l1 1V4h1V2l33 4V5l1 1h3v1h3l-1 1-1 1h1v1l1-1 1-1h2-1v1h3l1-1 1 1h1-1l-1 1h-2v1l-1 2 1-1v5l1 1 1-2v-5l1 1v-2h1l1 1v2h1l1 1v2l-1 1h2l1-1 1-1 2-2v-1h2l1-1V9l1-2h2l2-1 1-1V1h1V0zm-1 14h-1l-1 1v-1h1z"/>
</svg>
