<svg xmlns="http://www.w3.org/2000/svg" viewBox="0 0 68 77">
  <path d="M17 0h3v1h1v1h1l1 1v1h1l1 1 1 1v1h1l1 1 1 1v1l2 2 1 1v1h3l1-1v-1h1l1 1 1 1v1l1 2h1l1 1v1h1l1 1v-1h1v1l1 1h2l1 1h1l1 1 1 1 1 2 1 1 1 1 1 1h1l2 1 1 1h1v1l1 1v2l1 1v2h1l1 1 2 1 1 1v2h-2 1v1l-1 1h-1v1h-1l-1 1v1h-1v2h1v6l1 1 1 1-1 2v1h-1v1l-1 2-1 1-1 2v1l-3 2-2 2h-1l-3 2-3 1-3 2h-1l-1-1h-3v-1l-1-1h-4v-1h-1l-4 2v1h-2v-1l-1 1v-1h-2v-1h1l-2-1h-2l-2-1h-1v-1l-2-2-3-1h-4l-1 1H7l-1-1v-1l-2-2-1-1H2v-1l-1-1v-1l-1-2v-7h1-1v-1l1-1v-2l2-1 1-1v-2l-1-3v-2l-1-1 1-2 1-2-1-1v-4l-1-1h1l1-1 1-2-1-2v-2l1-1v-1h1v-1h1l-1-1v-1h1v-1l-1-1h4-1l-2-1V9L6 7l2-2 1-1V2h1v1h5V2l1-1V0h1z"/>
</svg>
