<svg xmlns="http://www.w3.org/2000/svg" viewBox="0 0 77 50">
  <path d="M13 0v1l-1 1v1l-1 2v2l1 1v3h2v-1l1 1v-1l1 1h2l-1 1 1 1 1-1h3l1-1-1-1V8h1V7l1 2 2 2 1 2 3-1h5l3 1 1-1 1-1v1l2 2 1 1 1 1h1v6h2v3l1 1h5l1 1v1l1 1h1v-2h1l1-1v-1l1-1h1l1-2 2-1 1-1h1l1-1h1l-1 1-1 1v1l-1 1h-1l1 1h1l1 1h3v-2h1l1 1v1h1v1h1v-1 1h4v1h-1l-1 1h-2v1h-1v1h-1v1h-1l-1-1-1 1h-3v-1h-1l1-1 1-1h-1v-1l-1-1v1l-1 1-1 1-1-1h-1v1h-1v1l1 1h-1l-1 1h-1 1v1h-1v1l-1 1-2 1-1-1-1 1h-1v2h2v1h2v3l1 1v1l-1 1v1l-1 1v2l-1 1v-1h-1l-1 1-1-1h-2l-1-1 1-2v-1h-1l-1-1h-1l-1-1v1h-1l-2-2-2-1-1-1-1-1v1h-1l-1-1-1-2-3-2-3-2v-2l-1-2v-1l-1-1-1-1h-6l-1-1v-3h1-1v-2l-1-1h-2v-1h-2v-1l-1-1v1h-2 1v2h1-1l-1-1H9v1l-1 1H6l-1 2v3l-5-1 1-13 1-9 6-1z"/>
</svg>
