<svg xmlns="http://www.w3.org/2000/svg" viewBox="0 0 32 77">
  <path d="M28 0h2v1l1 1v1l1 1v11l-1 1v2h-1v4h-1v1h-1v1l-1 1h-2v-1h-1v-1h-2v1-2h-2v-2h-1v-1h-1v-1l-1-1v-4h1v-1l1-1V9h2V7l1-2 1-1V3l1-1V1h1l1-1h1zm-4 32v2l-1 1v1l-1 1v1h-5v-1h3l1-1h-1v-1h1l1-1 1-1h1v-1zm-3 7l-1 1v-1zm-1 1v2h-2l1-1 1-1zm11 0h1v1h-1v-1zm-1 1v1h1l-1 1v-1l-1-1h1zm-3 6v1h1-1v2h-1v1-1h-1v-1l1-1v-1h1zm-2 5h1l-1 1zm0 0zm-1 3v1-1zm-12 7h2v2h-1v2h-2v1-1h-1v-1l1 1h1v-1h1v-1l-1-1v-1zm-5 9v1H6v1-2h1zm-5 3l1 1h2l-1 1H2v1H1l-1-1 1-1v-1h1z"/>
</svg>
