<svg xmlns="http://www.w3.org/2000/svg" viewBox="0 0 76 60">
  <path d="M18 0l1 1 1 3h1V3h1l1 1h3l1 1h1v2l1 1h4l1-1h7l1 1h1-1 1l4 1 1-1h1l1-1h2l2-1h-3l1-1h6V4h6l-1 1h-3v3h-1 1V7h1v1l1 1v1-2h2l1 1h2v1h-1 1V9h-1V8l1 1h3v1h1v1h-1v1h-1 1v1l-1 1v1h-2v1h3v-1h4v-1l1 1h1l1 1-1 1-1 1-1 1h-1l-1 1v1l1 1v1h2l-2 2h-2l-1 1v3h-1l3 3 2 3-1 1-1 1h-2v1h-1l-1 1h-1l-1 1h-2l-2 1h-1l-1 1h-1l-1-1h-4v-1l-1 1h-2l1 1 1 1 1 2v1h-1l1 1v2h1v1h5l-1 1h-1v1h-2v2l-1 1h-1l-2 1-1 1-1 1h-1v1h-1v1l-1-1h1l-1-1-2 1-1 1h-1l-1-1-2-1v-2l-1-1v-1l-1-1v-1l-1-1-1-1h-1v-1l-1 1 1-2 1-1h1v-1l-1-1-1-1-1-1-1-1v-3l1-1v-2h-1 1v-2l1-1v-2h-4l-1 1h-6l-2-2-3-2h-3l-1 1H9l-1-1H7v-1H6v-5H5v-1l-2-2v-1H0h1v-1l1-2v-1l-1-2 1-1v-1l2-2V7h1l1-1 1-2 2-1h1L9 4H7v1l1 1 1 1v1L8 7 7 8h2v3l-1 1-1 1v1l1 1v1h1v1l1 1 2-1h1v-4h-1v-1h-1v-1l-1-1V8l1-1h2V6h1l1-1h1l1-1h2V3h-2l-1-1V1h1V0h1zm35 2v2h-3l1-1h1zm-8 2v1l-1-1zm6 0l1 1h-1V4zm2 0v1l-1-1zm18 8zm0 0h-1zm-1 1v-1 1zm0 0h1-1v1-1zm0 0zm1 0l-1 1 1-1zm-1 0zm1 1h-1 1zm-1 0v1l-1-1h1zm1 0h-1 1zm1 0h-1zm-1 0h-1zm-1 1h1zm-1 0zm1 0l-1 1h-2l1-1h1z"/>
</svg>
