<svg xmlns="http://www.w3.org/2000/svg" viewBox="0 0 77 36">
  <path d="M72 0l-1 1V0zm-6 2v1h-1l1-1zm3 0l1 1 1 1h-2V2zm2 1zm-6 1h1v1h2v1h3V5l1-1h1v1h-1 1l1-1h3-1v1h-2v1l-1-1-1 1-1 1h-4l-1 1v1h1v1h-4l-1 1h-1v2l-1 1 1 1v1l-1-1-1 1-1-1v-2h1v-2h1v-1h3V4h-1 3zM45 5v1h1v1l-1 1v1h1v1l-1 1h-1v-1l1-1h-1V8h1-1V5h1zm11 0v1-1zM38 6v1h2v1h1v1h-1v1h-1V9l-1-1h-1 1V7l-1-1zm18 1h1v1h-1l-1-1h1zm-2 0zm-6 2h2l-3 1h-1V9h2zm-31 2h1v1h-2v-1zm-4 0h2v1h1v1h1l-1 1-1-1v1h-1l-2-1-1 1v-1H7l1-1h3v-1zm30 0h1v1l-1-1zm-3 0l1 1v1h1v-1 1h3v-1l1 1h1v3h-1v-1l-1-1h-3v-1 1h-2v2l-1 1h-1v1-1 1h-2l-1-1h-1l-1-1h-1v2h1v1h-3v2l-1-1v1h-2l-1 1-1 1h-1l-1-1h-3 1v1h-2v-1h1-3l1-1h1l1-1h2l2-1v-1l1-1 1-1v-1h-1v-1l1-1h1v-1h8v1h1v-1h3v-1h1zm-22 0v1-1zM0 11l1 1v1H0v-1zm18 3zm23 2v1-1h-1zm16 1v1-1zm-1 3zm0 0v1-1zm-40 2h-2v1h-2v-1h3v-1zm38 0v1h-1v-1l-2 1 1-1h1l1-1zm-6 0l1 1v1h1v1h-1l-1-1v-2zm-31 1h1-1zm29 1h1-1v2-1h-1v-1zm-32 0v1h1-1v1h2v-1h2l1 1h1l1 1h1v1h2v1h2l-1 1v1-1l-1 1h-1v-2h-2v1-3l-1 1v-1h-1v2h-2 1v2h2v2h-1l1 1h-1v2-1h-1l-1-1h1-1l-1 1v-2h-1v1l-1-1h-4v-1 2H9v-1H8v1H7v-1H6v-1l-1 1v-3l1-1v-1l1-1v1h1l1-1h4v-2h-1v-1zm26 2h1-1v-1zm-3 0h1v1h2v4h-1v-2l-1-1h-2l-1 1v-1h-2 2v-1h2v-1zm-6 5zm-4 0v1zm5 1v1h2v-1h2v1h-2v1h-1v1h-2v-2l1 1 1-1h-1v-1h-1z"/>
</svg>
