<svg xmlns="http://www.w3.org/2000/svg" viewBox="0 0 77 33">
  <path d="M26 0v1h1v1h-2V0zm1 3l1 1h2l-1 1v1h1-2V5h-2V3zm10 1h1l1 1 2 1h1l1 1 2 1v1h2v1h4l1 1h1v1h2-1v-1h1v1h1v2h1v-1l1 1h1v1h4l1 1h1-1v1l2 1 1 1 1 1h1l1-1v2h1v1l1 1h-1v1h-1l-1 1h4l3-1 1 1h-4v1l1 1h1v1h-1l-1-1h-1v2h-1v-1h-2v-1h-4v1h-1v-2l-1 1h-4v2h1v1h1v2h-1v1-1h-1v-1h-2v-1h-1v-1h-3v1h-2v-1h-1v1-1h-1v-1h-2v-1h-2v-1h-1l-1 1 1-1v-2l-1-1 1-1v-2h-2v-1h-3l-2 1v1h-3l-1 1v-1 1h-1v1l-1 1-1-1v-1h-1v2l-1 1v-3l1-1-1-1-1 1h-1v2h-1v-2h-3l-1-1h3v-1h-1 1v-1l-1-1h-3v-1l-1-1h-2l-2 1v1h-3l-1 1-1-1H9v1H7v1H6l-1-1H4v-1H3v-1H2l-2-2h3v-2h2v-1h3v1l1-1h4V9h1l1 1h1v1h2l-1-1h1V8h4V7l1 1h1l1-1v1h1l1 1 1-1h5V7l-1-1h1l1 1h1v1h1l1 1v1l1 1h2l1 1h1l1-1 1-1V9h-1l-1-1-1-1h-1l-1-1V5h-1l-1-1zm1 17h1v2h1l1 1v1h-2v-1l-1-1v-1l-1-1h1v-1zm-2 2v2h1v2h-1v-1h-1v1-1h-1l-1 1v3h-1v1h-2v-1l1-1h1-2v-1h1v-1h-1l1-1h1l1-1 1-1 1-1z"/>
</svg>
