<svg xmlns="http://www.w3.org/2000/svg" viewBox="0 0 37 77">
  <path d="M15 0l1 1h1v1h5l1 1v1h-1v3h2v1h1v1h4v1h-1l-1 1h-1 1v1h-1v1h-2v1l-1-1v2h-1v2h-1l-1 1h-1v2l-1 1v2h-1l1 1h1v2h1v1h1l1 1v2l1 1v1h2v2h1v1h1-1l2 1v1h2v1h1v1l1 1v1h2v3l1 1v1l1 2h-1 1v2-1 3-1 2l1 1v1h-1v1h1l-1 1v-1 4l-1 1v1h-1v1h-1l-1 1h-1l-1 1-1 1h-1l-1 1h-4v2h-1l1 1h-1v2l-1-1h-1v2l-4 1v2h-1l-1 1h-1v-1h1v-1h-1v-3l1-1v-1l1-1h-1l-1-1h-1v-1l2-1h1v-2h4v1h2v-1l-1-1h-1v-3h2v1h1v-2h1l1-1h1l1-1h1l1-1h-1v-4l1-1-1-1v-1l-1-1 1-2v-2l-1-1h1v-2h-1v-1h-1v-1h1v-2h-2v-1h-2v-3l-1-1h-1v-1l-1-1-2-1v-2h-1l-1-1v-2h-2v-1h-2v-1h-1l-2-1h1l1-1-1-1h4l1-1v-1h-2v-2 1h-1v-1l1-1-1-1H8v1H7l-1-1H5l-1-2V8H3v1-1L2 7 0 6V5l1-1h2l1 1 1-1 1-1v1h3V3h4V1h1l1-1z"/>
</svg>
