<svg xmlns="http://www.w3.org/2000/svg" viewBox="0 0 38 77">
  <path d="M0 0h1v1H0V0zm1 2zm0 1zm0 0l1 1H1zm8 1v1H8V4zm3 2h-1 1zm-2 0l1 1v1h-1v1H9V6zm1 5v2H9v-1l1-1zm5 3h-1zM1 17v1h1v1h1v2l1 1 1-1v-1h1v2l1 1H6h1v2l1 1H6v1H3l-1-1v-1l-1-1v-4l-1-1v-2h1zm16 3v1l1 2v2l-1-1v-2l-1-1v-2zm-2 3v2h-3l1-1h1zm2 2v1h1v5h-1v-6zM7 26v1H6l1-1zm1 0v1-1zm-2 1h1l1 1H6v-1zm2 3l1 1v1h1v1h1l1 1h1v3-1h-1l-1 1H9v-4l-1-1-1 1v-3zm9 2l1 1v1h1l-1 1h-2l-1-2h1l1-1zm1 4v1-1zm1 0l1 1h-1v-1zm-1 1v1l1 1h1l1 1h-3l-1-1v-2zm4 3v1h-1zm-2 2v1h-1v-1zm-1 4l1 1h-1v-1zm2 0l-1 1v-1zm-3 1zm1 0l1 1h1v1h1v1h-4l1-1h-2 1v-2zm-1 1zm-1 1zm10 10v1h1-1v1h1v2h-1l-1-1-1-1v-2h1zm5 7zm-3 1l1 1v2h-1l-1-1v-2h1zm9 2zm-4 6v1h1v1h-2v-2z"/>
</svg>
