<svg xmlns="http://www.w3.org/2000/svg" viewBox="0 0 77 51">
  <path d="M58 0v1-1zm1 1h1l1 1v1l-1-1-1-1h-1 1zm5 4l1 1h-1V5h-1zm2 4h1-1zm-7 0l1 1h2v1l1 1v1h1v3l1 1h2v3h1v1h-1l-1 3-1 1h-1v1l-1 2v1l1 1-1 1v-1h-1v1l1 1h-1v3l-1 1v1h1v1h2v1h1l-1 1-1 1-2-1h-1l-1-1v1l-1 1-1 1v-1h-2v-1 1h-1v-1l1-1v-1l-1-1v-1h-1v-2h-2l-1-1v-1l-1 1v-1h-2v-6h2l1-1h2v-1h1v-9l1-1v-2h1l1-2 1-1h1zm13 13h-2 1zM3 22l1 1h2l1 1 1 1h1l1 1h2l1 1h1l1 2v1h1l2 1v1l1 1h1l1 1 1 1 1 1h3l1 1 1 1h3l-1 1h-4l-5-1h-1l-2 1h-2l-3-1h-1v1h-2v-1H8l-1-1H6v-2H5h1-1v-1H4l-1-1v-2l-1-1v-2l-1-1-1-2v-2l1-1zm69 1v1h-1zm5 3h-1zM34 42h2l1 1 1 1h4l1 1h1-1l-2 1-5 3-1 1-1 1h-1l-1-1-2-2h-1l-1 1h-1v-1h-1v-1l1-1v-1l1-1 2-1v-1h3zm20 3l1 1v1h1v2-1h-2v-3zm12 1v2l1 1-1 2-1-1h1v-2h-1 1l-1-2z"/>
</svg>
