<svg xmlns="http://www.w3.org/2000/svg" viewBox="0 0 77 36">
  <path d="M25 0h1l1 1 1 1 1 1v1h1v1l1 1 1 1v1h1v3l1 1v2l-1 1v2h-1v3h-3v-1l-1-1h-1l-1 1h-3l-1 1v-1h-1l-1 1h-6v-1h-1v-1h-1v-1l-1-1v-1l-2-2-1-1-1-1-1-1-2-2H3L1 6V5L0 4l1-1h2v1h5V3v1h1l1-1h3l1-1h3l2-1h1l1 1V1h2l2-1zm29 20l1 1 1 1 1-1v1h1l1 1h1l1 1h3l1 1h1l1-1 1 1v1h1v1h1l-1 1h2v-1 1l1 1h1l1 1h1v1h1l1 1-1 1v2l-2-1H62l-1-1-1 1h-3v-1l-3-1-1-1h1-2l-2 1h-1l-1-1-1-1v-1l-1-1-1 1-1-1v-1h-1l-2-1v-3l1-1h3l2-1h2l4-1zm-18 1v1zm2 2h1l-1 1v-1zm38 12h1v1h-1v-1z"/>
</svg>
