<svg xmlns="http://www.w3.org/2000/svg" viewBox="0 0 57 77">
  <path d="M2 0h1v1l1 1h1L4 3 3 4H2v1H1l1-1V3H0V1h1V0h1zm16 3v1l-1 1h1l-1 1h-2v1l1 1h1v2h2v1l1 2h3v1h-1v2l1 1v1l1 1h3v1l2-1 1-1h-1v-1h1l1 1 1 1h4l1 1v-1h1v1h2v2h2l1 1 1 1 1 1v2h-1v2h-1 1v1h1v1h-2l-1 1h-1l-1 2v1h-1v1h-1v2h-1l-1 2 1 1h-1l-1 1 1 1v2h1v1h1l1 1v2h2v1l-1 1h1v1h-1l-1 1h-1v1h-1l-1 1 1 1v2l1 1h-2l-1-1-1 1v1h-1l-1 1v1l1 1v1h-2v2l1 1 1 1v1h2v1h3v1l-1 1h-1v1h-1l-1-1h-1v2l-1 1v-2l-1-1-1-1v-1 1h-2v3l-1 1-1 1v-1l-1 1v-1l-1-1h-2v1-3h-3v2h-1v-7h-1v1h-1l-1 1-1-1h-2l1-1 1-1h1l1-1 1-2v-2l-1-1h-1l-1 1v-1l-1-1-1-3-1-1v-1h6v3l1 2 1 1h2l1 1 1 1h1l2-1v-4l-1-1v-1h-1v-3h-1l-1-1h-1v-1h-1v-1l-1-1v-1h-2l-1-1-1-1 1-1h1v-1h2l1-1h-1l-2-1v-3l1-1-1-1-1-1 1-2h1-1l-1-1-1-1 2-1v-3h-1l-1 1-2-1h-2v-1l-1-1H9l-1-1-1 1-1-1H5v-2h1v-1h1l1-2v-1H4h1v-1h1v-3l1-1h3v-1h1v-1l-1-1V9h1l1 1 1-1V7h1V6h1V4h2V3zm33 20v1-1zm-4 2zm7 0l1 1v1l1 1v1l1 1v1h-1v2h1l-1 1h-1v1l-1 1 1 1v1h-1v-1h-1v-1l-1-2-3-2v-1h-1v-1h1l1-1h1l1-1v-1h1v-1h1zm-6 3h-1v1-1zm-4 7l1 1v1l-1 1h-1v-3h1zm4 5h-1zm-4 2h-1zm2 0h1-2zm-3 12h1v1h-1v-1zm-18 4l1 1h-2 1v-1zm12 3v1h-1v-1zM24 75l1 1-1 1v-1z"/>
</svg>
