<svg xmlns="http://www.w3.org/2000/svg" viewBox="0 0 77 67">
  <path d="M63 0l3 1h2l3 1v1l1 2v4l1 1v2l1 1v2l-1 3v3l-1-1h-3v1l-1 1v1h-1v2h1v1l1 1 1 1h3v-1l1-1h3l-1 3v1l-1 2v1l-1 1-1 2-1 1h-1l-2 2-1 1v1l-1 1-1 1-1 2-1 1-1 2-1 1-4 3v1h-1l-3 3-1 1-1 1-1 1-2 1-1 1h-5v2h-1l-1-1h-1l-1 1v1l-1-1-5-1-1 1h-5l-1 1-1 1h-5l-1 1-1 1h-1l-1-1h-1l-1-1h-2v-2h-1v2l-1-1v-1h1v-1l-1-1v-1l-1-1-1-1 1 1v-1H8v-1h1v-1l1-1v-2l-1-2-1-1v-1l-2-3-1-1-1-1v-1l-1-2v-2l-1-2H1v-1H0v-1l1-1 1-1v-1h1v1h1v1l1 1h1l1 1h6v-1l1-1h1l1-1V14l1 1 1 1 1 1v1l1 1v3l-1 1v1l1 1 1-1 2 1h1v-1h1l1-1 1-1 1-2h1v-2l1-2h2l1 1 1 1h2l2 1h3l1-1 1-2h1v-2l2-1 1-1 1-1h1V9l1-2h1l1-1 1-1h1V4h1V3l2-1h1l1-1 1-1h1z"/>
</svg>
