<svg xmlns="http://www.w3.org/2000/svg" viewBox="0 0 77 66">
  <path d="M57 0l1 1 1 1h1l1 1h2v1l1 1h1v1h4v1h1l1 1h1v1h1v1h1v1l1 1v2h1v2l1 1h-1v1h-2v1l1 1v1l-1 1v6h1v1h-1v1h-2v4l-1 1v1h-1v1h1-1v1h1v1h2v1l-4 1-6 1-1 1-3 1-4 1-2 1 1 1v3h-6l-2 1-1 1h-1v3l-4 1v1l-2 1-1 1-1 2-1 1-1 1-1 1-1 1h-1l-1 1-1-1h-5l-2-1h-2l-1-1-1-1h-1l-3-1h-1l-3 1H9l-2-1-3-3-2-2v-1H1v-1l-1-1V31h14l-1-1v-2l1-1v-1l-1-1v-4l1-1v-3 1h2v2h-1l1 1h1v-1h3l1-1h1v3l1 1h2l1 1h3v1h2l1-1v-1h1v-1h1v1l1 1v2h1v1h2l1 1h3v3h2v1l1 1v2h1l1-1h2v-1l1 1h-1l1 1h1v-9l-1 1h-1v1h-3l-1-1v-1h-1l-1-1-1-1v-1h-1v-1l1-1v-3l1-1V9l-1-1V7l1-1 1-2 1-1V2l6-1zM43 15z"/>
</svg>
