<svg xmlns="http://www.w3.org/2000/svg" viewBox="0 0 77 71">
  <path d="M46 0h4v1l1-1h1v4h5v1h1l1-1 2 1 1 1h2l1 1 1 1 1 1h3l2 1 2 1v1h3l-2 2v1l1 2v2h1-1v5l-1 1v2l1 1v3h-2v1h1v1l-1 1h-1v1h-1v1h2v2l-1 1v4h1l1 1v3h-2v2h-1l-1 2v1h-2v3l-1 1v4l-3 2-4 4-4 4-2 1-1-1h-2l-3-1-1 1h-2l-1-1h-3v-1h-1l-1-1h-2l-1 1-1-1h-1l-1-1v-2l-1-1h-2l-1-1h-4l-2-1v-2l-1-2h-1v-7h-4v-3l-1-1v-1h-4v-1l-1-1h-1l-1-1v-1H8v-2l-1-3v-2H6l-1-1v-2l-1-1-1-1-1-2-1-1-1-1v-3h1l3 1h2v1h7l1 1h2l1-1h1l1-1v-1l3-3 1-1 1-1 2-3 3-2h1v-1l6-2V7h1V4l1-1h1l2-2h2l2-1h1z"/>
</svg>
